<?xml version="1.0" encoding="utf-8"?>
<!-- (c) ammap.com | SVG map of Aruba - High -->
<svg xmlns="http://www.w3.org/2000/svg" xmlns:amcharts="http://amcharts.com/ammap" xmlns:xlink="http://www.w3.org/1999/xlink" version="1.1">
	<defs>
		<style type="text/css">
			.land
			{
				fill: #CCCCCC;
				fill-opacity: 1;
				stroke:white;
				stroke-opacity: 1;
				stroke-width:0.5;
			}
		</style>
        
		<amcharts:ammap projection="mercator" leftLongitude="-70.066026" topLatitude="12.623363" rightLongitude="-69.865655" bottomLatitude="12.411766"></amcharts:ammap>

		<!-- All areas are listed in the line below. You can use this list in your script. -->
		<!--{id:"AW"}-->

	</defs>
	<g>
		<path id="AW" title="Aruba" class="land" d="M37.28,0L35.49,1.05L34.75,2.71L34.11,2.11L34.35,1.11L33.75,1.34L33.98,2.04L33.25,2.42L32.51,3.68L32.06,6.8L31.19,8.26L29.41,9.64L28.04,11.51L27.44,11.64L26.62,13.46L25.43,14.13L25.86,15.42L25.11,17.35L25.25,18.54L24.45,19.17L23.65,18.73L22.57,19.92L22.13,19.65L22.55,20.57L21.7,20.76L21.9,21.46L21.48,23.19L20.17,26.19L21.92,28.46L24.72,30.34L26.21,32.89L27.55,33.7L28.09,35.14L30.51,36.71L32.16,38.69L34.42,39.97L34.88,40.77L35.73,40.87L36.06,42.39L37.71,44.52L43.42,49.76L45.09,53.13L46.18,57.69L46.38,62.08L45.94,62.16L46.43,62.6L45.96,63.71L46.29,64.15L46.5,67.09L49.36,70.23L50.07,72.7L53.21,79.29L53.28,84.85L53.39,85.55L53.94,85.81L53.03,90.34L55.18,94.45L56.06,95.41L57.53,96.08L57.41,97L58.98,98.67L58.56,98.44L58.85,99.1L58.33,99.32L58.28,99.83L58.97,100.04L58.27,100.89L59.24,101.47L59.03,102.28L58.64,102.13L58.77,103.11L59.53,102.8L59.96,103.8L60.03,104.9L59.45,105.84L59.75,106.27L59.23,106.41L59.15,106.92L59.72,108.54L60.13,108.65L60.13,112.69L60.62,113.68L62.61,115.43L64.53,124.35L66.92,130.36L68.54,132.86L71.02,140.88L72.32,143.43L73.63,151.39L73.56,155.37L76.59,158.36L78.35,163.37L79.48,170.17L80.04,181.88L79.23,187.06L76.09,196.53L75.25,204.06L71.72,212.07L68.31,222.05L64.09,229.93L61.21,234L58.91,236.06L55.01,238.3L49.26,244.58L43.15,253.56L42.37,254.1L40.4,253.47L39.13,255.69L39.24,256.36L38.63,256.83L38.93,259.13L38.6,259.5L38.79,260.54L38.37,261.9L38.64,262.3L38.23,263.41L38.4,266.68L38.22,268.72L37.49,269.92L37.69,271.02L37.38,271.33L38.9,277.97L38.89,282.75L38.67,284.34L37.57,286.88L34.5,292.85L25.16,307.33L19.09,313.75L14.69,321.13L10.25,326.06L3.26,335.8L0.46,337.8L0.46,339.33L1.45,341.26L3.81,343.81L5.38,346.22L9.59,349.01L11.37,351.24L12.18,351.12L14.29,352.46L21.53,356.95L27.6,361.9L30.74,371.12L30.59,371.95L35.06,377.19L40.62,378.92L45.62,382.87L50.34,387.74L48.8,391.33L50.7,393.55L50.92,393.31L50.17,392.4L50.89,391.87L52,391.9L53.57,392.36L55.48,394.3L56.72,397.03L54.93,398.64L55.03,399.04L58.26,400.82L59.68,402.39L63.28,404.29L69.2,409.5L69.06,410.47L76.95,417.28L84.25,416.77L84.02,417.22L86.21,418.47L85.8,418.69L85.84,419.25L80.32,419.71L80.22,420.04L81.83,421.43L89.16,420.86L90.94,422.66L90.98,423.36L85.51,423.8L85.01,424.15L100.27,437.12L100.84,436.46L98.9,434.75L99.8,433.69L101.84,435.43L102.04,435.22L96.74,430.29L100.06,426.1L104.46,429.14L104.03,429.71L104.38,429.97L104.78,429.39L107.59,431.44L108.73,430.32L107.77,431.59L108.94,432.43L108.36,433.99L108.78,434.15L109.19,432.6L110.4,433.93L112.79,435.24L111.53,436.97L110.76,436.42L110.02,437.37L109.01,436.55L106.72,439.37L104.84,437.38L104.5,437.82L112.62,446.05L112.54,446.55L113.75,447.34L114.6,447.27L118.07,444.21L118.74,444.47L118.1,445.1L118.15,445.74L118.91,445.19L121.38,444.67L123.78,445.87L126.29,447.94L134.3,457.46L138.33,464.72L140.23,469.53L140.73,473.63L140.18,478.39L139.13,481.07L138.07,481.42L138.03,481.89L139.53,483.48L140.45,483.61L141.95,485.48L144.24,485.23L143.66,485.7L141.34,485.99L142.03,486.65L142.07,487.87L142.9,488.45L142.97,489.81L144.02,490.88L143.83,491.35L144.35,492.74L147.79,494L151.71,496.53L155.68,497.49L157.64,498.62L158.87,498.56L163.44,500.16L164.3,499.93L166.01,500.49L166.54,500.15L168.31,500.32L168.95,500.83L169.77,500.45L169.89,501.39L170.47,501.67L170.21,501.88L169.23,501.05L168.33,501.08L170.06,502.23L171.01,502.05L171.5,501.51L172.9,501.65L174.18,503.93L173.57,504.97L173.93,505.35L173.74,506.66L172.13,505.4L171.78,504.67L171.25,505.33L173.86,507.86L175.65,507.62L176.01,508.05L177.93,508.52L182,508.54L182.26,509.16L183.23,509.37L184.75,511.08L185.45,510.73L184.53,509.62L185.01,509.27L185.91,510.38L187.23,509.64L189.29,511.83L188.82,512.26L189.54,512.99L190.64,513.83L190.94,513.55L192.1,514.91L192.43,514.58L195.16,516.39L197.6,518.68L198.88,519.31L209.55,530.73L213.35,532.62L214.61,534.04L215.52,534.16L216.32,535.88L218.34,537.23L220.26,536.95L221.66,537.6L221.46,538.7L222.04,540.5L221.9,541.63L222.92,542.4L223.05,543.01L222.09,543.95L221.62,547.21L220.57,548.09L220.29,548.83L219.57,548.95L218.02,547.69L216.07,547.46L214.1,545.97L213.35,544.48L212.34,543.7L211.16,541.29L207.77,537.34L206.76,536.37L206.32,536.47L206.49,537.14L207.72,537.92L209.37,540.05L212.86,546.08L217.31,550.98L219.3,552.44L219.49,553.43L220.72,554.71L239.51,564.08L252.59,567.97L254.73,567.73L257.07,568.77L258.79,570.28L258.1,573.14L258.34,574.9L259.82,579.1L260.02,580.44L259.62,581.17L260.41,582.75L266.3,585.06L265.74,587.74L276.83,593.53L281.62,584.7L282.65,583.5L282.87,583.93L285.49,583.58L288.93,585.17L290.53,586.42L292.21,586.94L295.48,586.81L296.29,587.2L295.73,587.97L296.25,588.4L297.24,587.89L296.73,586.68L297.24,585.82L301.11,588.14L301.63,590.55L300.99,590.99L300.6,592.45L301.76,593.65L304.64,594.35L309.16,596.29L312.18,598.62L317.18,601.34L317.93,600.52L321.24,602.86L326.73,604.87L333.12,609.71L332.21,610.57L334.55,612.12L334.53,612.52L334.99,612.78L335.75,612.2L337.58,614.1L338.27,614.19L339.67,615.24L339.85,616.04L341.56,616.82L343.28,618.7L345.29,620.02L345.69,620.47L345.17,620.8L345.29,621.2L347.39,622.35L348.67,624.02L348.57,624.38L348.1,624.19L348.51,624.52L348.05,625.14L347.01,625.04L346.95,625.9L348.46,627.68L348.15,627.85L348.59,628.44L348.86,628.32L350.66,630.58L352.11,631.46L353.07,630.86L355.71,632.63L357.87,635.02L366.6,640.51L370.35,644.5L373.74,647.1L381.09,649.83L381.58,650.32L381.48,651.01L380.59,651.98L381.37,652.48L380.51,653.16L380.04,654.44L381.52,654.7L384.78,657.01L384.96,657.43L384.37,657.58L383.56,658.73L384.72,658.87L385.7,660L388.55,661.13L389.25,661.07L390.61,659.6L391.88,659.5L397.82,663.39L397.27,665.11L397.64,665.9L401.99,667.41L402.15,668.9L405.56,672.24L408.32,673.92L407.87,675.99L411.07,676.95L411.97,677.95L415.51,677.95L417.79,680.22L417.89,681.64L420.16,683.36L419.16,686.84L419.51,687.63L421.37,688.9L422.26,690.59L424.98,690.8L426.45,692.23L426.34,693.07L426.98,693.62L427.81,693.15L431.76,694.98L433.31,696.16L434.34,697.74L434.03,698.92L435.07,700.05L437.32,700.31L438.06,699.3L437.49,700.37L437.87,701.59L438.68,702.5L438.47,702.95L437.97,702.77L437.44,703.75L439.21,704.12L439.36,703.69L438.74,703.36L439.26,703.16L439.79,704.07L441.49,704.59L441.38,705.34L443.78,710.52L448.16,711.09L449.54,713.03L454.72,714.46L456.16,715.56L457.62,715.92L462.28,718.64L463.8,719.72L465.08,721.58L466.16,722.22L468.24,724.47L473.31,727.98L478.86,732.78L479.07,733.52L479.84,733.3L481.6,734.01L483.14,735.31L483.09,735.67L483.74,735.34L484,735.94L484.58,735.78L486.2,737.37L489.18,736.16L494.92,737L496.76,738.48L496.68,739.08L495.24,739.84L495.18,740.52L495.51,741.39L497.05,742.74L500.44,742.36L501.82,742.7L502.49,743.58L505.61,744.83L505.45,745.11L506.84,745.48L507.64,745.23L508.45,745.94L509.19,745.12L510.68,745.27L511.75,746.28L511.78,747.13L512.41,747.41L512.65,747.01L513.43,747.04L513.48,747.87L513.94,747.12L514.35,747.13L514.53,747.86L515.44,746.82L517.05,747L516.98,748.28L516.26,748.83L517.11,749.22L517.5,747.43L520.87,747.75L523.41,750.95L524.43,751.43L524.94,750.81L525,751.57L525.76,751.63L526,752.1L527.79,751.48L529.26,752.27L530.31,751.69L532.74,752.15L533.46,751.75L538.62,753.43L543.22,754.12L543.85,752.96L545.97,752.68L545.44,751.51L545.99,750.86L546.62,750.82L546.65,752.13L546.98,751.8L549.58,752.01L551.05,752.61L551.37,753.63L552.19,754.22L554.99,755.17L555.7,755.29L556.2,754.79L556.5,755.37L559.33,755.54L558.45,757.26L564.75,760.72L558.85,771.52L555.63,770.36L552.22,768.07L541.14,764.24L535.81,762.91L534.05,761.63L530.9,760.86L527.47,759.39L526.16,759.27L525.11,760.24L529.81,761.54L533.79,763.28L543,766.23L551.8,769.94L555.69,773.99L564.04,778.17L564.94,779.37L570.84,783.3L572.44,785.51L573.68,788.2L576.56,790.28L579.43,790.01L581.66,790.55L584.85,790.52L588.47,791.29L589.43,790.7L600.53,787.96L601.47,787.41L604.92,787.33L605.8,788.21L616.55,787.19L618.01,786.71L618.34,787.2L622.87,787.68L623.73,788.98L627.28,789.62L627.2,790.47L628.53,790.71L628.81,791.59L632.06,792.67L633.3,794.62L634.26,794.66L635.14,795.31L635.19,796.21L636.34,797.44L638.87,799L643.42,802.84L643.75,804.42L645.98,805.1L646.75,806.52L647.22,810.31L649.22,810L651.09,808.89L653.3,809.31L654.61,808.68L654.08,809.8L654.9,809.52L656.24,810.07L655.66,811.41L657.36,811.36L656.73,812.02L648.24,812.3L647.15,812.82L649.15,813.21L651.98,812.78L654.06,813.35L657.91,812.85L657.3,814.12L656.21,813.87L647.86,815.03L647.24,815.89L646.29,816.31L644.04,816.48L644.19,817.06L647.67,816.49L649.25,815.25L656.86,814.53L660.33,817.89L660.67,818.95L661.75,819.49L661.94,821.18L667.57,823.78L668.45,824.3L668.31,824.76L671.74,826.09L672.95,823.99L675.42,824.34L678.77,825.55L679.55,827L684.69,829.47L686.22,829.97L688.69,829.96L691.05,829.26L692.49,827.43L691.94,826.43L687.64,823.28L687.95,822.71L688.43,823.04L688.95,822.54L689.18,822.68L688.69,823.21L689.84,823.93L690.24,824.91L691.96,825.88L692.91,826.11L693.36,825.81L693.24,824.95L692.19,823.73L692.39,823.32L695.09,824.7L695.73,826.17L698.1,826.37L700.7,828.56L704.21,829.32L705.9,832.01L707.68,831.83L710.49,832.33L712.53,834.29L713.67,836.36L717.99,839.19L721.45,843.41L721.5,845.16L722.53,845.62L724.25,847.96L724.95,850.54L723.62,856.35L723.12,857.23L722.26,857.49L721.06,858.63L720.74,859.66L722.49,862.08L724.41,863.4L723.24,863.4L726.67,865.72L727.4,867.05L729.02,867.98L729.81,869.13L731.28,869.27L732.5,868.62L731.86,867.87L730.9,868.1L730.09,865.94L728.89,864.34L728.79,863.46L731.03,860.75L734.18,859.48L736.85,860.29L738.34,859.53L739.63,859.56L741.52,860.59L742.86,862.8L743.67,865.12L743.49,866.34L741.79,866.72L742.27,867.24L749.65,866.95L751.29,866.5L761.33,867.19L761.44,866.61L762.2,866.45L763.95,867.15L762.52,867.05L762.62,867.34L764.28,867.74L766.23,867.19L765.64,866.68L767.23,865.78L767.06,864.31L769.16,861.71L773.87,858.97L775.72,858.69L776.89,857.8L779.44,857.38L784.23,854.57L785.32,854.36L788.7,855.01L790.27,854.71L791.77,855.39L793.65,857L794.41,856.61L794.8,854.46L794.14,852.61L794.79,851.41L792.88,849.53L793.35,849.53L793.8,847.44L798.4,844.72L799.54,843.63L797.88,842.41L798.15,841.85L796.95,841.6L797.44,840.81L796.04,839.11L796.34,838.38L794.63,838.28L794.65,837.5L793.36,837.02L793.82,835.82L792.96,835.95L792.6,834.4L793.64,833.7L793.61,833.29L792.27,833.21L792.03,832.31L791.45,831.85L791.65,831.5L791.07,831.7L790.33,830.7L789.57,830.71L789.57,830.27L789.15,830.12L789.31,829.68L787.85,828.9L785.75,819.54L781.39,804.94L780.83,801.95L777.15,792.32L777.62,789.98L777.08,788.75L774.97,787.56L774.14,785.58L774.47,783.55L776.77,782L773.52,765.03L772.85,763.67L771.66,762.6L772.88,761.26L772.95,760.15L772.51,760.11L772.58,761.31L771.09,762.48L770.12,762.03L767.57,762.21L764.82,760.88L763.92,759.67L763.26,757.67L763.03,754.36L764.14,749.55L765.67,746.13L769.28,741.86L766.29,737.01L765.74,734.35L764.12,733.78L762.61,730.23L760.69,725.04L760.54,721.96L758.94,716.31L756.14,712.83L754.28,709.54L753.93,705.92L752.83,701.93L748.65,690.84L747.65,686.09L747.34,682.25L745.09,677.34L743.61,675.28L743.01,671.16L742.29,669.44L740.81,667.43L740.2,663.6L738.18,660.58L736.85,659.44L734.84,658.62L732.81,658.85L731.31,657.88L731.59,656.8L730.94,656.16L730.83,655.38L732.84,652.48L733.6,650L734.15,645.85L733.24,643.7L733.32,640.85L732.29,639.3L732.4,638.49L731.37,635.95L731.51,633.2L729.66,633.29L729.5,632.75L730.83,631.98L729.45,624.8L727.5,624.66L727.41,623.48L728.94,623.18L728.58,622.64L727.46,614.74L726.86,614.65L727.28,613.81L725.91,613.47L726.95,612.81L724.31,602.84L719.79,593.22L716.02,589.62L714.54,586.55L709.95,580.89L709.5,578.86L708.52,577.64L704.9,575.25L704.55,574.29L703.97,574.1L703.66,574.51L702.83,574.41L698.17,573.02L696.72,573.05L695.59,575.25L694.68,575.74L693.83,575.13L693.3,574.06L690.37,574.81L688.71,574.5L687.56,573.92L686.09,572.32L681.79,571.86L677.25,569.46L675.98,567.65L674.86,567.18L672.87,564.99L672.49,563.45L670.99,560.84L668.88,557.94L667.17,556.72L666.83,554.88L667.5,553.44L666.17,551.95L665.61,550.27L664.03,548.67L661.88,548.72L660.47,548.11L659.68,547.15L659.88,546.69L659.4,545.45L658.22,546.08L659.09,544.39L657.68,540.58L652.86,536.51L649.52,534.7L649.36,532.85L651.05,532.06L651.07,529.33L647.59,523.14L646.33,522.15L644.99,522.46L643.13,521.68L640.43,516.32L639.31,517.17L637.35,517.03L636.61,516.23L636.18,514.69L634.83,513.9L633.33,514.27L632.48,515.83L631.68,515.97L630.66,515.43L630.2,514.59L630.72,514.51L631.1,512.09L633.37,509.51L632.13,508.17L628.34,509.08L627.23,508.47L628.39,508.13L627.16,506.95L628.39,504.78L628.18,504.32L623.86,500.86L622,498.24L620.43,498.45L619.6,498.16L619.21,497.31L618.57,496.97L619.41,496.42L617.79,495.89L617.51,495.31L617.11,495.62L617.15,495.21L615.96,494.24L616,493.51L615.08,493.87L613.88,493.08L613.11,493.04L610.95,493.84L609.34,495.24L609.08,497.42L607.82,497.69L607.4,497.4L608.12,497.4L608.8,496.86L608.94,495.84L608.47,495.11L608.78,494.62L608.27,493.83L608.3,492.15L607.59,491.07L608.3,489.73L607.79,489.05L604.78,489.61L604.78,488.46L603.33,487.54L603.15,486.7L601.77,487.13L601.31,485.96L600.04,485.49L599.88,484.79L598.53,483.95L594.57,483.74L591.96,485.14L591.05,484.99L590.2,485.49L588.18,481.99L589.67,480.46L588.21,479.69L587.28,479.86L586.73,478.78L586.9,476.86L588.02,477L589.07,476.41L588.09,474.48L588.26,473.28L587.73,472.74L587.86,472.24L586.48,470.65L584.07,468.88L584.14,468.29L584.9,467.92L584.75,467.1L582.4,466.67L581.62,465.49L580.68,466.09L578.92,465.49L578.36,462.96L579.09,463.21L578.49,462.71L578.76,461.12L577.84,460.74L577.2,461.12L576.43,460.36L575.57,460.13L574.97,459.14L575.23,458.93L574.84,458.87L575.18,458.43L573,458.52L572.28,458.06L572.01,458.47L571.56,458.38L571.43,457.92L572.03,457.57L570.41,456.06L570.61,455.07L569.68,453.99L567.68,453.76L566.52,454.76L563.99,453.71L563.25,452.49L562.93,450.87L563.37,450.88L563.21,450.62L563.57,450.67L564.85,449.3L564.6,448.29L565.58,448.21L564.85,447.44L564.18,447.93L563.17,447.43L563.52,446.86L563.48,444.8L562.86,444.36L561.17,444.54L560.11,443.05L558.29,442.23L556.96,442.09L556.62,441.59L555.96,442.27L553.32,442.5L551.96,440.92L551.31,438.66L552.91,437.12L553.26,436.11L554.09,435.94L554.32,434.58L553.84,434.69L553.59,433.66L551.6,432.7L550.34,429.69L548.68,428.61L546.28,428.13L546.09,427.74L546.82,426.76L546.5,426.42L547.05,425.4L544,425.21L544.27,424.24L546.05,423.88L545.92,423.16L546.35,422.85L545.01,420.23L543.25,420.08L543.02,419.74L542.83,418.84L543.47,417.84L543.1,417.69L542.73,418.34L542.2,418.38L541.46,417.51L541.86,416.33L542.77,415.94L542.25,415.94L542.26,415.5L543.18,415.73L545.05,414.68L543.69,414.88L543.26,414.17L543.59,412.43L544.37,412.31L543.71,412.12L544.77,411.84L544.29,411.55L544.62,409.3L545.09,408.14L545.72,408.21L546.73,405.85L547.54,406.73L547.96,406.04L547.03,405.58L547.2,405.97L546.89,405.88L546.91,404.99L546.47,405.15L546.58,405.76L546.1,405.32L544.57,405.78L543.64,405.11L543.38,404.3L540.6,403.26L540.38,402.5L539.9,402.55L540.19,402.24L539.93,401.92L538.27,402.11L538.9,401.68L537.94,402.04L534.68,401.39L532.86,400L533.17,399.39L532.89,399.08L528.7,396.05L526.26,398.32L526.04,399.07L523.94,399.23L522.79,397.33L520.22,396.86L519.5,395.66L519.51,395.01L520.17,394.71L520.73,392.43L520.62,391.05L519.16,390.21L519.73,388.75L518.46,387.73L516.18,387.06L515.6,386.27L513.35,385.13L512.12,385.33L512.13,383.92L510.42,381.38L508.57,381.06L507.36,381.51L505.79,381.49L503.65,383.36L503.3,383.13L502.05,381.85L501.35,379.99L502.95,378.28L505.14,377.26L505.55,376.55L504.75,374.01L502.66,372.05L502.98,371.42L502.25,371.68L499.73,369.08L498.92,369.61L498.14,369.3L497.84,367.26L495.36,364.32L494.64,364.31L493.63,363.6L492.39,364.46L492.44,363.98L491.62,363.05L490.67,363.23L489.78,362.87L489.93,362.49L489.47,362.39L489.16,361.43L490.28,360.37L489.46,359.89L488.67,357.78L487.39,357.04L486.45,355.77L486.73,355.72L485.08,355.44L484.26,357.02L482.63,357.98L481.69,357.77L481.29,357.18L481.15,355.42L481.62,354.76L481.23,354.44L481.73,354.15L481.69,352.46L481.12,351.24L481.94,350.56L481.07,350.23L480.06,350.46L479.9,349.61L479.38,349.33L479.81,348.38L478.76,347.23L477.69,347.05L477.77,346.28L474.85,345.65L473.98,346.32L473.59,346.06L473.26,345.5L473.59,345.04L473.93,345.21L474.04,344.61L475.37,344.19L473.07,343.86L473.27,343.35L473.98,343.39L474.1,342.72L472.44,341.76L471.68,341.75L471.55,341.24L470.85,341.47L471.21,341.81L470.46,341.83L470.98,342.27L470.68,343.59L469.86,343.28L468.31,344.15L468.22,343.41L467.64,343.33L467.82,343.79L468.09,343.62L467.96,344.8L467.41,344.66L467.73,344.97L467.18,346.18L465.69,347.84L465.03,347.67L464.92,346.58L463.43,347L460.28,346.63L459.94,347.33L460.3,349.09L459.52,348.89L460.31,349.42L460.39,350.08L459.56,350.99L458.39,351.23L458.07,350.33L458.03,351.06L457.47,351.08L457.68,349.01L456.47,348.57L455.8,349.02L453.96,348.96L450.61,350.82L448.76,350.69L445.53,352.51L445.1,352.18L442.25,352.52L441.16,352.16L440.03,350.52L440.36,348.76L439.11,349.57L438.93,351.56L437.28,351.99L435.26,351.94L435.68,351.36L435.06,350.4L434.96,348.36L433.36,348.3L432.04,348.94L430.43,347.74L430.57,346.04L431.49,344.42L431.72,342.88L431.22,341.77L428.9,339.99L428.28,339.02L428.56,338.13L429.18,337.93L430.28,336.37L429.6,335.73L429.65,335.24L430.24,334.94L429.85,333.89L429.92,331.89L430.55,331.18L429.86,330.26L430.29,329.78L429.46,329.85L429.96,329.47L429.11,329.47L429.2,328.54L428.74,328.34L429.67,326.58L430.31,326.38L429.92,326.16L430.3,326.07L430.22,325.36L431,324.45L429.89,323.56L428.54,323.39L428.58,322.98L428.16,323.37L427.09,323.06L426.1,323.99L425.52,323.76L424.19,324.55L424.31,324.87L423.56,324.69L423.7,325.28L421.99,325.72L420.19,324.02L418.53,324.27L418.01,325.35L417.34,325.3L417.08,324.75L417.53,324.09L417.1,324.31L418.36,322.35L417.02,322.16L416.82,321.53L415.59,320.68L413.14,322.37L414.57,320.24L414.69,319.74L414.16,319.21L412.49,318.24L411.94,318.87L411.96,317.9L411.11,317.37L409.34,319.14L408.95,319.08L408.76,318.4L409.66,317.04L406.16,314.46L405.85,314.75L405.81,314.26L404.4,313.32L402.32,315.74L402.81,314.44L403.52,313.85L403.61,312.76L398.93,310.04L398.18,308.83L398.15,307.16L396.73,307.78L395.37,307.56L395.07,307.87L394.1,307.34L393.52,305.47L393.82,305.55L393.72,304.93L393.15,304.22L393.67,304.26L393.5,303.55L392.83,303.82L392.77,303.36L392.31,304.47L389.34,303.51L387.65,305.27L387.81,304.17L388.61,303.13L384.69,300.32L380.2,297.99L377.83,299.83L375.86,302.11L374.57,301.61L373.35,300.39L375.76,296.8L375.46,296.22L373.97,295.57L374.85,294.66L370.3,291.49L368.97,291.21L367.87,292.09L367.41,292.03L367.94,290.7L366.63,290.61L362.99,291.94L362.14,291.59L361.47,290.19L362.66,288.11L361.87,286.46L354.71,280.73L342.87,274.15L340.38,275.22L340.68,276.05L340.3,276.4L338.66,275.87L338.27,275.08L338.87,274.87L339.32,273.75L340.26,273.1L340.48,272.24L339.32,271.11L332.77,268.4L330.81,269.55L329.84,271.32L329.32,270.8L327.89,270.58L324.75,271.21L321.58,269.9L319.76,269.65L316.74,267.27L315.26,267.01L313.43,265.56L311.28,265.87L310.96,265.46L311.28,264.5L310.25,265.09L308.24,264.34L307.09,263.3L306.91,260.68L306.01,258.18L304.48,257.86L304.5,257.39L303.96,257.5L304.69,256.33L302.67,252.47L302.89,250.96L301.69,250.68L301.37,250.31L301.75,249.69L301.33,249.75L298.88,247.41L298.07,246.89L297.16,247.05L297.96,245.85L296.49,244L295.46,244.39L295.33,242.97L295.81,241.92L294.77,240.97L294.89,240.05L294.24,240.15L293.64,239.35L294.19,238.63L293.97,238.16L293.62,238.4L293.29,237.64L292.59,237.93L292.65,237.31L291.88,237L291.36,237.27L290.81,236.32L289.32,236.14L287.85,234.24L287.05,234.34L285.54,230.04L284.79,229.58L284.76,228.41L282.88,226.37L282.93,225.98L282.31,225.91L281.85,226.42L281.17,225.45L280.18,225.46L280.34,224.97L278.6,223.44L277.2,223.52L277.44,222.78L277.12,222.25L274.77,220.07L274.03,220.54L273.56,221.55L272.67,221.32L272.04,219.73L272.68,218.17L271.99,218.16L271.5,218.78L271.79,217.2L268.96,214.86L266.94,216.09L266.74,215.88L267.74,214.69L267.76,214.03L265.65,212.1L264.98,212.02L263.19,214.03L262.8,213.79L262.6,213.53L263.99,211.55L263.83,210.38L263,209.52L262.65,209.61L262.38,208.84L259.8,206.84L258.47,206.34L255.81,204.08L254.65,203.59L251.5,205.82L249.62,204.85L248.71,203.68L250.66,200.86L245.41,194.62L244.86,194.91L244.97,194.53L244.31,193.67L242.57,193.65L242.54,193.21L244.42,191.89L241.12,187.72L239.22,187.26L239.66,186.76L239.01,185.26L234.48,180.74L233.67,180.79L232.68,181.8L232.09,181.5L231.81,180.86L232.84,180.12L232.97,179.56L232.22,178.04L230.46,176.48L229.46,176.44L228.61,176.96L228.34,176.47L229.36,175.47L229.13,174.81L227.78,173.45L226.74,173.36L227.02,172.33L224.35,168.98L223.15,168.58L222.19,168.82L222.17,168.36L222.84,167.93L222.69,167.58L219.45,164.3L218.72,164.64L218.84,163.78L216.86,161.74L214.7,160.24L213.61,160.38L213.08,161.32L212.28,161L211.95,160.75L212.57,158.9L210.34,156.88L209.86,156.76L208.92,157.93L207.01,156.72L206.55,156.12L206.64,153.46L204.39,150.65L202.74,151.03L203.69,150.12L203.83,149.29L200.78,144.84L198.61,142.57L198.38,141.31L195.33,134.79L193.63,132.53L192.58,132.69L191.76,131.8L192.42,130.88L192.1,129.54L191.1,128.03L189.99,128.02L190.44,127.7L190.4,126.55L189.45,123.79L187.64,120.65L186.27,119.87L187,119.11L185.34,116.01L184.55,115.38L184.89,113.69L184.16,112.77L184.68,112.32L184.2,112.14L184.42,111.81L183.82,111.52L183.05,109.74L183.43,108.25L182.43,108.17L182.1,107.32L182.38,106.85L181.84,106.76L182.24,106.56L181.49,106.43L181.2,105.47L180.7,105.34L181.22,105.01L180.77,103.68L179.67,103.76L179.58,103.23L179.91,103.06L176.53,101.14L176.14,100.24L175.39,99.74L175.07,98.71L173.99,97.91L173.55,96.68L172.73,96.38L172.13,93.78L170.57,91.81L169.72,89.76L168.04,87.85L163.07,83.89L156.92,80.84L153.68,78.74L152.66,78.86L151.29,77.07L146.56,74.1L141.28,73.09L136.97,74.48L136.62,75.29L135.93,74.98L134.12,72.25L130.52,68.32L126.93,62.14L121.95,57.1L117.02,53.74L115.17,52.98L110.46,52.13L109.14,52.36L106.16,50.96L104.75,49.13L103.8,48.78L102.46,46.62L101.29,46.02L99.42,44.04L83.45,33.23L80.44,30.31L76.72,25.43L75.31,24.23L72.08,17.85L71.92,16.83L72.41,16.31L71.9,13.08L71.69,13.31L71.39,12.9L70.57,13.66L69.81,13.16L68.46,13.16L67.79,12.71L67.62,11.92L66.78,11.92L66.58,11.13L65.78,10.75L65.09,11.01L64.71,10.3L63.75,10.21L62.84,10.65L61.83,9.98L61.07,10.11L58.33,9.27L53.18,4.14L51.29,3.24L47.99,2.85L41,0.03L38.99,0.4L37.28,0z"/>
	</g>
</svg>
