<?xml version="1.0" encoding="utf-8"?>
<!-- (c) ammap.com | SVG map of The Bahamas - Low -->
<svg xmlns="http://www.w3.org/2000/svg" xmlns:amcharts="http://amcharts.com/ammap" xmlns:xlink="http://www.w3.org/1999/xlink" version="1.1">
	<defs>
		<style type="text/css">
			.land
			{
				fill: #CCCCCC;
				fill-opacity: 1;
				stroke:white;
				stroke-opacity: 1;
				stroke-width:0.5;
			}
		</style>

		<amcharts:ammap projection="mercator" leftLongitude="-80.474946" topLatitude="27.933781" rightLongitude="-72.712069" bottomLatitude="20.912131"></amcharts:ammap>
        
		<!-- All areas are listed in the line below. You can use this list in your script. -->
		<!--{id:"BS-HT"},{id:"BS-BI"},{id:"BS-IN"},{id:"BS-MG"},{id:"BS-AK"},{id:"BS-CK"},{id:"BS-RI"},{id:"BS-LI"},{id:"BS-RC"},{id:"BS-SS"},{id:"BS-CI"},{id:"BS-SE"},{id:"BS-CE"},{id:"BS-NE"},{id:"BS-HI"},{id:"BS-SW"},{id:"BS-EX"},{id:"BS-BP"},{id:"BS-SA"},{id:"BS-MC"},{id:"BS-CS"},{id:"BS-NS"},{id:"BS-BY"},{id:"BS-MI"},{id:"BS-SO"},{id:"BS-CO"},{id:"BS-NO"},{id:"BS-GC"},{id:"BS-EG"},{id:"BS-WG"},{id:"BS-FP"},{id:"BS-NP"}-->

	</defs>
	<g>
		<path id="BS-HI" title="Hope Town" class="land" d="M363.16,78.73L361.15,84.95L363.42,80.98L363.16,78.73z"/>
		<path id="BS-BI" title="Bimini" class="land" d="M99.29,427.93L96.77,426.28L98.92,428.11L99.29,427.93zM95.27,423.63L94.19,422.17L90.98,419.02L95.27,423.63zM81.16,405.35L80.99,405.67L81.3,406.13L81.16,405.35zM6.95,404.46L6.06,404.13L6.75,405.02L6.95,404.46zM75.2,391.53L74.73,391.6L74.92,391.77L75.2,391.53zM1.25,376.47L1.47,376.04L0.56,377.05L1.25,376.47zM11.51,372.72L11.19,372.45L10.81,372.96L11.51,372.72zM13.03,372.35L12.5,372.16L12.35,372.75L13.03,372.35zM19.35,369.44L18.6,369.88L19.31,370.07L19.35,369.44zM22.78,369.76L22.54,369.12L22.34,369.93L22.78,369.76zM30.39,367.35L30.19,367.45L30.35,367.68L30.39,367.35zM136.63,230.21L136.47,230.21L136.59,230.42L136.63,230.21zM136.88,226.28L136.61,226.43L136.91,227.14L136.88,226.28zM136.57,225.34L136.43,225.43L136.52,225.58L136.57,225.34zM134.78,221.4L134.53,221.4L134.78,221.51L134.78,221.4zM135,220.44L135.04,220.31L134.91,220.37L135,220.44zM132.83,214.5L132.58,214.74L132.98,215.09L132.83,214.5zM131.82,211.74L131.56,211.53L131.54,211.87L131.82,211.74zM130.92,209.42L130.85,209.24L130.92,209.6L130.92,209.42zM130.66,208.79L130.45,208.89L130.61,209.13L130.66,208.79zM125.44,197.32L125.38,197.22L125.44,197.89L125.44,197.32zM124.9,195.71L124.67,195.63L125.35,196.83L124.9,195.71zM123.56,194.12L122.63,192.83L123.51,194.57L123.56,194.12zM121.55,190.68L120.77,190.2L121.71,191.82L121.55,190.68zM120.22,188.09L120.01,188.19L120.17,188.42L120.22,188.09zM120.92,178.29L120.81,178.18L120.71,178.35L120.92,178.29zM127.01,169.77L121.37,177.34L125.38,177.82L127.01,169.77zM168.81,147.85L168.68,147.59L168.6,147.87L168.81,147.85zM168.01,147.32L167.97,147.56L168.16,147.6L168.01,147.32zM164.36,145.58L164.15,145.68L164.31,145.91L164.36,145.58zM139.08,144.89L138.91,144.71L138.91,145.03L139.08,144.89zM151.51,139.33L151.34,139.07L151.42,139.44L151.51,139.33zM143.59,139.19L142.73,139.01L142.91,139.44L143.59,139.19zM146.01,137.63L145.83,137.45L145.68,137.75L146.01,137.63z"/>
		<path id="BS-IN" title="Inagua" class="land" d="M706.44,716.61L749.85,712.17L769.67,689.53L769.69,669.14L756.53,688.07L746.79,691.93L732.85,681.03L704.09,694.13L700.43,704.72L706.44,716.61zM768.66,659.63L782.45,650.87L774.06,644.51L765.3,650.65L768.66,659.63z"/>
		<path id="BS-MG" title="Mayaguana" class="land" d="M758.79,555.12L799.44,558.71L759.56,544.36L758.79,555.12z"/>
		<path id="BS-AK" title="Acklins" class="land" d="M710.32,531.18L710.49,527.56L708.47,531.51L710.32,531.18zM724.69,530.01L721.33,527.4L715.37,527.31L724.69,530.01zM685.78,515.15L668.05,519.11L682.12,539.5L641.08,576.57L683.66,542.06L680.12,517.59L685.78,515.15z"/>
		<path id="BS-CK" title="Crooked Island and Long Cay" class="land" d="M633.03,532.74L640.37,520.58L629.84,535.19L633.03,532.74zM649.69,510.56L633.32,503.66L640.94,518.18L660.35,522.18L668.05,515.15L649.69,510.56zM688.67,472.07L690.69,475.44L704.27,473.67L688.67,472.07z"/>
		<path id="BS-RI" title="Ragged Island" class="land" d="M491.58,573.1L489.78,570.83L490.31,576.17L491.58,573.1zM489.11,569.36L488.5,566.32L488.34,569.21L489.11,569.36zM487.64,560.85L486.96,559.75L487.59,561.84L487.64,560.85zM483.24,556.26L481.49,552.32L482.16,555.91L483.24,556.26zM479.85,544.13L479,542.09L478.7,543.45L479.85,544.13z"/>
		<path id="BS-LI" title="Long Island" class="land" d="M580.85,485.95L560.07,467.81L531.99,406.45L559.19,470.62L542.52,464.46L568.55,475.54L582.83,499.47L580.85,485.95z"/>
		<path id="BS-RC" title="Rum Cay" class="land" d="M588.29,406.66L581.82,402.59L571.93,406.94L588.29,406.66zM554.82,391.45L555,388.25L553.49,390.05L554.82,391.45z"/>
		<path id="BS-SS" title="San Salvador" class="land" d="M621.25,368.46L621.64,354.62L611.99,376.19L621.25,368.46z"/>
		<path id="BS-CI" title="Cat Island" class="land" d="M533.72,346.29L490.53,291.59L523.86,339.99L513.53,354.83L536.23,354.53L533.72,346.29z"/>
		<path id="BS-SE" title="South Eleuthera" class="land" d="M446.85,259.36L445.21,258.51L440.82,278.6L428.03,278.35L446.14,297.7L446.85,259.36z"/>
		<path id="BS-CE" title="Central Eleuthera" class="land" d="M446.14,238.31L430.34,223L428.42,224.63L445.76,242.41L445.21,258.51L446.85,259.36L446.14,238.31z"/>
		<path id="BS-NE" title="North Eleuthera" class="land" d="M430.34,223L386.61,192.75L381.67,208.48L401.66,208.92L428.42,224.63L430.34,223z"/>
		<path id="BS-HI" title="Harbour Island" class="land" d="M383.15,194.16L381.36,195.24L385.66,194.88L383.15,194.16z"/>
		<path id="BS-SW" title="Spanish Wells" class="land" d="M377.07,196.41L372.61,199.29L379.09,196.68L377.07,196.41z"/>
		<path id="BS-EX" title="Exuma" class="land" d="M510.44,435.6L498.67,432.01L512.09,438.17L510.44,435.6zM465.2,407.41L458.98,416.54L497.89,432.78L465.2,407.41z"/>
		<path id="BS-BP" title="Black Point" class="land" d="M429.83,373.17L421.29,357.63L427.63,372.27L429.83,373.17zM414.03,345.13L406.45,337.42L411.81,346.13L414.03,345.13zM382.9,312.02L380.85,308.61L381.17,312.09L382.9,312.02z"/>
		<path id="BS-SA" title="South Andros" class="land" d="M284.8,407.67L285.77,406.34L283.81,405.99L284.8,407.67zM275,397.9L273.39,397.26L273.02,397.97L275,397.9zM342.13,366.33L339.77,366.29L341.57,367.52L342.13,366.33zM303.59,367.09L294.47,345.87L282.4,366.91L274.28,373.17L276.75,387.15L291,383.98L280.28,390.94L284.87,395.28L299.77,388.23L278.87,399.57L297.58,401.4L305.84,386.3L305.06,378.51L297.23,381.67L303.59,367.09z"/>
		<path id="BS-MC" title="Mangrove Cay" class="land" d="M282.4,366.91L280.99,351.37L294.07,342.69L289.53,336.58L261.92,359.95L274.28,373.17L282.4,366.91z"/>
		<path id="BS-CS" title="Central Andros" class="land" d="M276.36,343.22L258.67,348.69L259.12,352.85L276.36,343.22zM261.93,343.67L262.93,339.67L254.17,342.77L261.93,343.67zM271.58,333.78L273.21,331.29L267.96,332.25L271.58,333.78zM288.77,330.92L284.97,328.77L276.15,333.83L288.77,330.92zM254.08,339.75L284.07,317.13L282.63,298.87L252.83,300.83L242.01,314.01L254.08,339.75z"/>
		<path id="BS-NS" title="North Andros" class="land" d="M282.63,298.87L257.31,255.77L257.2,239.85L234.95,233.62L237.93,266.41L224.46,288.23L235.59,302.37L222.16,304.48L223.7,290.29L210.09,300.03L232.5,318.12L242.01,314.01L252.83,300.83L282.63,298.87z"/>
		<path id="BS-BY" title="Berry Islands" class="land" d="M272.25,208.84L272.8,207.55L265.57,210.46L272.25,208.84zM274.45,175.2L268.26,166.82L272.05,174.57L274.45,175.2z"/>
		<path id="BS-MI" title="Moore's Island" class="land" d="M303.72,107.28L299.41,103.7L300.12,111.65L303.72,107.28z"/>
		<path id="BS-SO" title="South Abaco" class="land" d="M305.03,132.17L304.34,130.27L302.61,131.59L305.03,132.17zM357.67,106.69L356.11,101.66L335.52,109.76L336.27,125.82L317.14,139.19L335.92,155.84L342.31,114.34L357.67,106.69z"/>
		<path id="BS-CO" title="Central Abaco" class="land" d="M328.42,101.6L326.32,102.84L329.53,107.35L328.42,101.6zM329.12,95.58L332.29,92.8L331.48,92.83L329.12,95.58zM334.79,87.94L330.59,88.89L333.86,92.03L334.79,87.94zM314.55,70.88L314.6,72.82L315.84,72.99L314.55,70.88zM332.56,64.5L325.45,60.75L320.54,61.86L325.26,72.85L343.49,79.22L335.52,109.76L356.11,101.66L353.29,81.55L332.56,64.5z"/>
		<path id="BS-NO" title="North Abaco" class="land" d="M325.45,60.75L296.59,36.26L259.79,39.43L301.83,42.04L320.54,61.86L325.45,60.75z"/>
		<path id="BS-GC" title="Grand Cay" class="land" d="M220.65,0L221.72,1.1L222.44,0.06L220.65,0z"/>
		<path id="BS-EG" title="East Grand Bahama" class="land" d="M271.74,73.97L266.98,73.08L269.54,77.56L271.74,73.97zM264.11,59.84L264.67,52.95L206.84,60.32L213.38,74.04L263.26,68.84L264.11,59.84z"/>
		<path id="BS-WG" title="West Grand Bahama" class="land" d="M207.21,54.09L204.66,53.49L205.59,55.3L207.21,54.09zM203.84,76.49L213.38,74.04L206.84,60.32L194.49,49L189.55,60.07L196.58,63.64L182.03,76.79L152.69,61.65L176.59,84.01L189.04,84.38L190.13,79.6L194.04,81.31L203.84,76.49z"/>
		<path id="BS-FP" title="City of Freeport" class="land" d="M194.04,81.31L190.13,79.6L189.04,84.38L194.04,81.31z"/>
		<path id="BS-NP" title="New Providence" class="land" d="M309.72,258.22L332.08,250.6L301.25,255.08L309.72,258.22z"/>
	</g>
</svg>
