<?xml version="1.0" encoding="utf-8"?>
<!-- (c) ammap.com | SVG map of DR Congo - High -->
<svg xmlns="http://www.w3.org/2000/svg" xmlns:amcharts="http://amcharts.com/ammap" xmlns:xlink="http://www.w3.org/1999/xlink" version="1.1">
	<defs>
		<style type="text/css">
			.land
			{
				fill: #CCCCCC;
				fill-opacity: 1;
				stroke:white;
				stroke-opacity: 1;
				stroke-width:0.5;
			}
		</style>

		<amcharts:ammap projection="mercator" leftLongitude="12.205166" topLatitude="5.387119" rightLongitude="31.307673" bottomLatitude="-13.457585"></amcharts:ammap>

		<!-- All areas are listed in the line below. You can use this list in your script. -->
		<!--{id:"CD-BC"},{id:"CD-BN"},{id:"CD-EQ"},{id:"CD-HK"},{id:"CD-HL"},{id:"CD-KE"},{id:"CD-KN"},{id:"CD-KW"},{id:"CD-LB"},{id:"CD-MA"},{id:"CD-NK"},{id:"CD-OR"},{id:"CD-SK"},{id:"CD-TG"}-->

	</defs>
	<g>
		<path id="CD-BC" title="Bas-Congo" class="land" d="M8.848,550.446l0.042,0.413l-0.156,0.281l-0.469,0.365l0.071,-0.347l-0.89,0.604l-0.418,-0.293l0.036,0.178l-0.436,0.124l-0.107,-0.587l0.472,-0.444L8.848,550.446zM70.382,497.411l-0.504,0.575l1.649,2.277l1.393,0.78l-0.406,0.286l-0.308,0.767l-0.866,0.743l-0.036,0.859l-0.257,-0.198l-0.383,-0.006l-0.966,0.354l-0.732,0.598l-0.306,0.655l0.252,0.602l0.781,0.416l-0.115,0.625l0.238,0.711l0.918,-0.033l0.48,0.586l-0.622,2.2l-0.06,1.345l0.282,0.543l-0.497,0.744l0.059,1.742l0.424,1.167l2.36,-1.576l0.597,0.313l1.575,0.236l1.101,1.215l1.738,0.632l1.418,-0.189l1.567,-1.323l1.965,-1.053l0.83,-0.21l0.74,-0.591l0.275,-0.81l0.352,-0.274l0.202,-0.897l1.179,-2.35l2.253,-2.098l0.378,-0.736l1.381,-1.491l2.233,-1.701l1.369,-2.218l0,0l3.23,4.856l2.307,2.244l1.138,0.506l1.15,-0.372l0.497,-1.092l-0.17,-1.525l0.571,-0.701l0.705,-0.435l1.573,-0.222l3.08,0.878l2.262,-0.31l0.766,0.177l0.134,0.719l-1.051,1.872l0.285,0.398l2.278,0.781l0.4,0.328l0.195,1.108l-0.73,1.811l-0.365,2.732l-1.032,0.746l-1.958,0.274l-0.375,0.745l0.705,1.137l2.724,1.979l2.785,0.79l1.647,-0.195l0.73,-1.029l0.106,-2.334l0.195,-0.391l3.535,2.92l8.805,0.088l0,0l-0.83,2.291l-0.045,1.704l0.375,2.858l-1.301,6.109l0.535,6.388l-0.25,2.203l-1.407,3.403l-2.339,1.591l-0.65,1.297l0,0l-7.558,0.229l-5.987,-0.341l-4.622,0.217l-18.036,-0.112l-8.458,0.245l-3.33,0.935l-2.756,-0.635l-1.618,0.345l-2.967,-0.164l-2.27,-0.439l-2.038,0.222l-1.741,-0.884l-0.425,0.229l-2.725,-0.085l-1.308,0.578l-1.662,-1.362l-1.117,0.52l-1.812,-0.082l-2.103,0.633l-8.212,-0.032L43,547.131l-1.333,-0.327l-3.563,0.055l-0.449,0.178l-0.726,0.79l-3.566,-1.138l-2.039,0.314l-1.97,0.829l-0.641,-0.212l-0.738,-0.689l-1.038,-0.071l-0.935,0.201l-3.961,2.235l-2.179,0.816l-2.325,0.168l-1.737,1.035l-2.521,0.252l-2.521,1.203l-2.855,0.802l-0.151,-0.724l-0.4,-0.124l-0.009,-0.552l0.507,-0.267l0.517,0.035l0.917,-1.075l-0.16,-0.223l-0.036,-0.204l0.125,-0.151l-0.151,-0.089l-0.08,-0.045l-2.127,0.205l-0.436,0.24l-0.196,-0.019l-0.161,0.116l0.267,1.12l-0.32,-0.88l-1.611,-1.832l-0.115,-0.56l-0.151,0.089L2.8,547.55l-2.181,-2.577L0,543.62l1.892,-0.831l8.633,-0.302l0.075,-19.079l-1.393,-0.515l-0.742,-1.03l0.272,-0.624l1.596,-0.043l0.743,-0.559l0.721,0.016l0.729,-0.338l0.559,-0.595l0.449,0.008l0.368,-0.963l-0.25,-0.971l0.22,-0.338l1.032,0.26l1.47,-0.305l0.395,-1.487l0.791,-0.846l0.771,-0.229l0.69,-0.741l-0.198,-0.625l1.456,-2.277l0.676,-0.448l0.618,-0.286h1.397l2.007,-0.933l1.566,-0.301l0.77,-0.479l1.236,0.342l0.387,-0.662l-0.267,-0.889l0.034,-1.272l0.772,-0.455l2.669,2.631l0.743,0.345l1.015,1.507l-0.316,0.36l0.956,1.058l0.919,0.485l1.015,-0.044l0.463,0.389l0.426,0.037l0.469,1.557l-0.213,0.125l-0.05,0.5l1.777,1.686l0.116,-0.448l-0.54,-0.991l0.117,-0.184l0.757,-0.172l1.265,0.217l0.269,-0.904l0.455,-0.392l1.277,-0.511l0.773,0.262l0.631,-0.259l1.308,-2.371l0.463,0.036l0.752,0.702l0.544,0.183l0.269,-0.861l-0.437,-0.946l1.418,-0.085l0.034,-0.875l-0.515,-0.197l-0.15,-0.778l0.343,-0.604l-0.163,-0.426l0.651,-0.825l0.474,-1.125l-0.003,-0.823l-0.704,-1.416l0.07,-0.955l0.256,-0.295l0.771,-0.119l0.615,-0.627l1.205,-0.085l1.076,0.819l0.984,1.693l2.442,0.542l1.325,-1.415l0.795,-1.567l0.346,0.05l1.283,-0.614l0.721,0.122l1.732,-0.551l0.809,0.188l2.507,-1.332l1.076,-1.048l0.595,0.063l0.402,-0.405l1.183,-0.005l0.269,-0.787l1.299,-0.328l0.244,0.308L70.382,497.411z"/>
		<path id="CD-BN" title="Bandundu" class="land" d="M138.203,418.679L140.147,420.879L141.525,423.364L150.417,423.364L150.312,419.87L149.77,419.109L147.588,418.065L147.453,417.34L147.783,416.642L152.814,417.296L154.307,417.693L156.07,417.296L159.053,414.854L170.729,408.026L172.511,407.283L175.385,406.638L178.109,404.931L182.15,404.02L183.422,403.444L186.219,401.446L187.943,399.722L189.199,398.191L190.385,395.601L192.759,395.769L197.194,396.511L199.303,398.714L200.726,399.545L201.981,399.96L204.244,399.942L205.907,399.262L207.644,398.908L210.277,399.111L211.594,398.828L212.254,398.236L212.787,397.122L213.552,396.573L213.857,395.663L211.8,393.311L211.184,392.196L211.114,389.296L211.889,388.182L213.927,387.377L215.59,386.263L216.25,385.458L216.907,383.336L217.263,383.08L217.683,383.124L218.644,384.167L219.66,386.546L219.811,388.747L220.361,391.365L221.938,393.398L223.236,395.795L224.511,397.52L227.671,400.11L228.267,402.578L229.449,405.346L232.878,410.476L234.06,414.837L234.166,416.605L236.037,417.102L236.963,416.924L237.71,416.252L239.572,413.483L240.408,412.723L241.289,412.307L243.567,413.616L243.808,413.961L244.539,416.358L246.141,420.241L247.038,421.294L249.825,421.728L252.876,421.444L255.673,421.666L257.381,422.56L258.759,424.603L260.39,424.674L263.114,426.178L264.386,425.938L267.244,424.408L270.003,424.824L270.42,424.691L270.839,423.904L271.497,423.364L281.645,435.513L281.911,436.362L281.885,438.282L282.097,438.919L282.097,438.919L281.603,439.613L280.417,442.451L280.507,444.257L280.302,445.416L279.802,446.203L277.469,448.532L276.303,450.391L271.916,461.493L270.75,465L270.295,472.245L270.974,477.96L270.865,482.798L271.214,485.066L271.36,491.341L270.048,492.37L269.878,493.115L269.414,493.532L266.049,495.207L265.107,495.358L264.537,495.057L264.207,495.119L263.905,496.147L262.918,495.952L261.723,496.52L261.422,496.892L261.137,498.133L261.156,499.073L260.541,499.792L259.419,499.33L258.548,499.765L258.147,499.721L257.471,499.091L257.426,498.391L256.917,497.787L256.286,497.548L255.423,497.717L254.238,496.254L253.071,495.891L253.071,495.891L251.979,496.13L250.973,495.996L250.973,495.996L250.793,496.688L250.989,498.355L251.719,499.153L252.549,500.749L252.681,502.142L253.536,503.082L252.921,504.244L252.264,504.679L251.719,506.115L251.844,508.359L251.428,509.087L251.469,511.651L252.351,512.964L253.206,516.957L254.478,518.768L254.507,519.141L254.177,519.683L254.267,520.25L254.988,521.085L255.869,524.111L255.869,525.79L255.645,526.465L256.02,527.77L255.359,528.214L255.209,529.102L254.417,530.327L254.353,535.736L254.552,536.873L255.513,539.379L255.314,540.01L255.494,540.906L255.033,541.28L255.334,541.526L256.2,548.877L258.798,551.04L260.963,551.905L262.695,554.067L265.727,556.231L267.892,560.126L268.758,562.29L271.356,564.454L273.955,564.454L275.687,567.484L277.419,571.382L277.419,575.713L275.687,580.913L272.656,581.779L269.628,581.106L269.628,581.106L269.822,580.265L259.884,580.252L259.394,582.979L235.107,583.023L235.221,584.012L235.716,584.884L234.769,585.868L233.563,588.745L233.866,589.749L233.293,593.1L233.526,594.848L234.376,596.666L235.138,597.707L234.406,598.247L234.083,598.74L233.252,599.169L233.508,600.146L232.86,601.231L229.893,601.293L229.854,601.564L229.495,601.748L229.785,602.839L230.432,603.935L230.798,605.537L230.53,605.956L230.073,608.165L229.271,609.104L229.089,611.268L229.111,612.344L229.634,614.997L211.28,615.149L210.573,613.983L210.741,613.783L210.618,612.629L202.697,612.59L202.807,613.864L202.537,615.149L198.17,615.149L198.407,615.574L197.677,616.028L196.983,616.002L195.874,615.719L195.388,615.594L195.498,614.951L195.058,614.77L194.013,614.953L192.592,614.811L190.549,615.424L189.971,616.268L188.786,616.441L188.443,617.335L188.955,617.957L188.855,618.334L185.639,618.287L185.062,618.773L183.713,617.798L181.952,617.688L180.04,618.091L179.129,618.715L176.703,618.264L175.554,618.412L173.185,619.28L171.551,619.247L170.559,618.425L170.523,618.123L169.793,617.813L169.769,617.362L170.169,616.646L170.662,616.562L169.859,615.574L169.098,615.149L169.229,613.574L168.275,613.35L167.771,612.814L168.176,611.403L167.207,610.958L167.423,610.086L166.508,610.062L165.988,609.393L166.042,608.478L164.623,608.021L163.896,607.39L164.206,606.053L163.768,605.539L162.917,605.174L163.247,603.218L161.205,602.166L160.663,601.594L159.94,600.145L160.172,599.479L160.001,599.067L158.603,598.285L158.717,597.614L159.623,597.308L159.532,596.909L158.749,596.685L158.245,596.053L157.857,596.674L157.126,596.604L157.335,594.737L157.109,594.149L156.046,594.039L155.045,593.347L154.575,592.598L153.772,592.668L153.722,591.488L153.23,590.444L152.113,589.564L152.147,589.093L152.646,588.501L152.112,587.936L152.02,587.089L151.296,585.419L151.641,584.989L152.078,585.54L152.571,585.428L152.663,584.454L153.043,583.789L152.727,582.597L151.997,582.424L151.633,581.953L151.9,580.811L151.573,580.318L151.603,578.873L150.886,578.324L150.245,578.489L149.631,578.131L149.485,576.798L148.366,575.709L148.175,573.918L147.22,573.395L146.988,572.866L146.437,570.026L145.626,569.552L145.558,569.125L146,567.927L144.855,567.043L145.087,566.181L144.339,565.293L145.021,564.627L144.407,564.056L143.773,564.139L143.583,562.563L143.663,562.387L144.489,562.575L144.694,562.404L144.78,561.852L144.287,560.315L144.577,559.313L144.315,558.548L144.972,557.213L144.673,556.315L143.653,555.474L143.042,555.417L142.237,555.082L142.314,554.198L140.994,553.747L140.747,552.887L141.024,552.305L140.725,551.062L140.432,549.937L140.797,549.155L140.77,548.397L137.949,547.113L135.759,547.681L134.513,547.431L133.868,546.766L124.527,546.958L124.527,546.958L125.177,545.661L127.516,544.07L128.922,540.667L129.172,538.464L128.637,532.076L129.938,525.967L129.563,523.108L129.608,521.404L130.438,519.113L130.438,519.113L130.4,516.212L129.823,512.467L131.826,509.886L135.312,503.676L135.687,503.321L137.334,503.277L137.334,502.709L138.036,501.867L138.411,500.227L138.917,499.854L138.696,499.419L139.157,498.763L139.157,498.373L138.651,497.326L138.962,496.954L138.962,496.387L138.545,495.474L137.795,494.578L136.417,493.833L134.19,490.261L131.781,489.188L128.176,486.963L126.885,486.484L125.282,486.29L120.271,486.636L118.421,485.495L118.421,485.495L118.987,484.776L119.748,482.025L121.585,478.756L123.416,474.619L125.17,472.304L125.796,470.407L127.548,467.813L128.679,464.651L127.618,463.729L127.451,463.191L127.726,461.547L127.265,458.462L127.812,455.715L127.294,452.902L127.327,451.223L128.102,448.607L128.176,446.488L129.014,444.65L129.159,443.249L127.458,435.543L127.688,430.515L129.308,427.251L133.063,424.567L135.551,421.959z"/>
		<path id="CD-EQ" title="Équateur" class="land" d="M236.976,196.124L239.999,196.077L242.535,197.07L244.125,197.34L244.864,197.954L245.683,199.781L247.006,200.979L247.838,201.218L248.822,200.999L250.494,201.417L252.681,203.317L254.752,204.292L256.017,205.844L258.724,207.507L259.584,207.568L260.72,208.276L262.045,210.085L264.253,212.229L264.507,213.131L264.156,214.86L264.529,216.204L265.039,216.76L266.025,217.057L266.802,218.133L267.516,218.284L269.152,219.379L273.06,218.817L273.994,219.063L275.185,219.043L277.458,218.026L278.077,218.288L280.798,218.593L282.55,219.423L284.183,219.732L285.009,220.435L285.579,221.527L287.391,222.607L287.913,222.54L288.54,223.095L289.361,222.828L289.798,221.746L290.811,221.47L292.484,222.875L295.479,223.937L296.786,223.674L297.64,224.024L299.867,224.362L302.616,222.391L302.932,222.389L303.456,222.821L305.306,222.558L306.5,223.634L307.551,223.638L309.303,224.595L311.743,224.83L312.516,225.114L313.241,224.693L314.027,224.632L314.815,225.181L316.866,225.499L317.867,226.135L319.061,227.336L320.833,228.221L322.348,228.606L324.714,228.629L326.932,228.249L328.077,228.283L328.646,227.913L328.646,227.913L331.793,229.02L335.833,232.317L336.698,232.645L338.121,232.53L338.346,235.286L341.149,236.704L342.492,237.05L343.914,236.5L344.726,236.456L345.562,235.978L346.267,236.155L346.997,236.704L347.673,236.5L348.555,235.854L349.756,235.854L350.573,235.57L351.384,236.048L352.326,236.022L352.852,236.589L353.406,236.704L354.367,237.422L357.356,238.335L357.882,238.246L358.654,237.511L359.616,237.812L360.097,237.723L360.997,238.14L362.358,237.812L361.983,239.513L361.458,240.603L359.99,241.808L358.479,243.873L357.703,244.51L356.921,244.767L355.488,243.722L353.207,243.678L352.506,242.898L351.339,242.525L350.243,243.306L348.24,245.662L347.058,246.689L345.635,247.106L344.396,247.018L343.568,246.672L341.46,247.956L337.134,249.108L335.202,249.878L333.795,251.748L333.885,253.041L334.847,254.042L337.944,254.785L338.691,255.175L339.332,255.875L339.457,257.247L338.826,260.47L338.797,262.108L339.217,263.685L339.919,264.269L340.71,264.339L341.505,263.764L344.379,260.214L345.892,258.991L347.478,258.646L348.48,259.452L348.57,260.258L348.27,261.675L346.792,264.88L346.667,266.456L345.366,268.678L345.306,269.483L345.831,270.705L345.981,271.882L344.574,274.591L345.02,275.812L347.077,278.229L348.33,279.388L349.916,279.998L355.729,278.954L356.521,278.972L357.373,279.317L359.395,281.609L363.221,283.467L365.964,285.467L366.384,286.715L366.729,289.874L366.354,290.201L365.242,290.095L362.538,288.962L356.876,287.998L352.284,291.316L349.256,292.953L348.75,293.015L347.628,292.555L345.456,290.201L345.081,290.139L344.994,290.926L343.764,291.271L343.854,292.236L343.238,292.908L342.226,292.908L342.252,293.713L341.505,294.023L341.396,294.545L340.995,294.545L340.649,295.049L339.813,295.005L338.076,295.677L337.195,295.049L336.233,294.917L334.962,292.758L333.314,292.166L332.523,292.166L332.148,292.493L332.104,292.891L332.674,294.457L330.37,298.667L329.425,304.515L328.963,305.753L327.227,307.672L324.528,309.379L323.781,310.096L322.99,311.821L324.201,311.776L324.858,311.989L325.489,311.776L325.891,312.033L327.717,312.254L328.258,312.802L329.47,313.041L331.206,314.156L331.908,315.005L332.479,315.288L332.959,316.119L333.814,316.331L334.632,317.711L334.677,318.666L335.202,319.232L335.397,320.284L336.188,321.027L337.15,322.486L338.016,324.883L338.467,325.078L338.602,325.387L338.691,326.342L339.919,327.96L340.034,328.721L339.813,329.817L340.249,330.622L339.947,331.144L341.31,334.15L341.13,337.51L341.761,338.845L343.107,340.331L343.783,341.506L343.764,342.682L344.113,344.451L344.976,346.52L346.532,348.916L348.51,350.799L350.263,354.681L353.752,358.535L355.05,360.852L358.939,366.307L359.004,367.633L358.494,368.075L356.546,368.42L355.273,369.772L353.957,369.578L351.204,368.535L350.368,368.482L348.795,369.401L344.885,372.578L352.835,373.203L353.165,373.548L353.646,375.14L354.482,375.44L356.146,375.051L359.77,373.654L360.497,373.565L361.137,373.885L363.855,378.146L366.024,379.914L365.874,380.303L365.127,380.833L362.974,381.285L361.417,381.921L357.373,385.016L357.267,385.37L359.529,387.854L362.733,390.737L367.19,392.895L369.238,394.159L369.869,394.964L370.094,396.122L370.619,397.21L372.639,397.953L374.721,400.11L376.263,401.27L379.777,403.206L381.29,403.754L382.806,403.932L386.891,403.648L387.638,404.02L388.599,406.372L389.941,408.663L390.823,412.112L391.367,416.474L391.367,416.474L391.134,416.609L379.031,414.837L377.429,415.995L374,415.748L372.282,415.969L371.517,416.402L370.949,417.189L370.949,419.286L370.681,420.719L368.226,421.161L367.985,421.904L368.091,423.948L364.451,423.515L361.878,423.665L354.81,425.045L352.941,426.071L352.284,425.435L350.201,422.205L349.362,421.621L348.225,421.179L346.907,421.056L345.696,421.294L343.828,422.144L342.953,420.613L341.7,419.658L340.098,418.844L338.271,418.693L335.593,417.189L334.41,417.517L333.859,417.013L332.719,419.348L330.876,421.621L330.146,422.037L324.111,421.444L320.642,420.356L319.741,420.268L319.081,421.119L319.146,421.507L320.312,424.107L321.282,429.646L323.141,435.53L323.301,436.733L323.016,437.539L322.686,437.929L321.869,438.221L320.177,437.609L319.68,436.45L320.052,434.813L319.92,433.327L319.456,432.61L318.69,432.15L318.289,432.15L317.523,432.654L315.37,435.158L312.271,436.583L310.576,438.972L310.576,438.972L308.26,440.203L305.821,438.698L303.738,437.955L302.482,436.778L301.031,436.45L299.563,435.035L298.467,434.813L296.82,434.026L296.57,434.247L296.314,438.344L295.895,438.654L293.901,438.583L291.437,439.478L289.639,439.681L287.137,439.681L282.097,438.919L282.097,438.919L281.885,438.282L281.911,436.362L281.645,435.513L271.497,423.364L270.839,423.904L270.42,424.691L270.003,424.824L267.244,424.408L264.386,425.938L263.114,426.178L260.39,424.674L258.759,424.603L257.381,422.56L255.673,421.666L252.876,421.444L249.825,421.728L247.038,421.294L246.141,420.241L244.539,416.358L243.808,413.961L243.567,413.616L241.289,412.307L240.408,412.723L239.572,413.483L237.71,416.252L236.963,416.924L236.037,417.102L234.166,416.605L234.06,414.837L232.878,410.476L229.449,405.346L228.267,402.578L227.671,400.11L224.511,397.52L223.236,395.795L221.938,393.398L220.361,391.365L219.811,388.747L219.66,386.546L218.644,384.167L217.683,383.124L217.263,383.08L216.907,383.336L216.25,385.458L215.59,386.263L213.927,387.377L211.889,388.182L211.114,389.296L211.184,392.196L211.8,393.311L213.857,395.663L213.552,396.573L212.787,397.122L212.254,398.236L211.594,398.828L210.277,399.111L207.644,398.908L205.907,399.262L204.244,399.942L201.981,399.96L200.726,399.545L199.303,398.714L197.194,396.511L192.759,395.769L190.385,395.601L189.199,398.191L187.943,399.722L186.219,401.446L183.422,403.444L182.15,404.02L178.109,404.931L175.385,406.638L172.511,407.283L170.729,408.026L159.053,414.854L156.07,417.296L154.307,417.693L152.814,417.296L147.783,416.642L147.453,417.34L147.588,418.065L149.77,419.109L150.312,419.87L150.417,423.364L141.525,423.364L140.147,420.879L138.203,418.679L138.203,418.679L140.426,415.232L147.053,402.038L148.655,399.897L150.283,398.305L152.852,396.325L154.916,395.425L157.166,393.872L158.858,393.149L161.206,393.007L164.529,391.204L169.378,386.381L175.502,378.624L176.335,376.884L177.367,371.802L177.226,369.814L176.516,367.086L176.465,363.754L178.314,359.676L177.885,359.1L178.436,356.251L179.909,352.813L180.988,351.399L183.18,349.623L184.166,348.047L184.358,347.302L184.2,344.082L183.855,343.375L181.994,341.459L181.674,340.756L181.615,338.679L182.161,337.872L181.95,336.162L182.284,335.005L181.895,332.996L181.191,331.948L180.669,330.418L180.836,327.449L181.27,326.179L181.894,325.169L182.92,324.187L183.773,322.61L184.879,317.078L186.398,313.417L187.817,311.246L188.151,307.017L188.46,306.26L187.503,301.704L187.803,299.812L188.604,297.211L188.337,295.851L187.731,295.145L188.486,293.153L188.67,288.417L189.037,287.512L190.567,286.306L191.577,285.015L191.739,284.222L192.284,283.588L192.91,281.978L193.386,279.855L196.496,276.928L196.644,276.179L198.274,273.38L198.489,272.645L199.115,272.039L199.513,271.222L199.914,269.804L199.724,267.891L200.631,265.478L202.203,263.698L202.711,261.905L204.378,261.034L204.91,260.495L205.686,259.081L206.203,257.484L205.979,255.842L206.462,253.608L205.907,251.835L206.143,249.845L205.456,247.141L205.214,243.978L204.589,241.707L204.453,240.188L204.794,238.54L204.92,235.58L206.02,234.198L206.541,232.96L206.431,229.817L205.456,226.937L203.29,223.029L203.233,222.162L204.167,221.274L205.083,220.841L206.063,221.194L208.618,220.89L210.439,219.562L211.095,218.756L211.631,217.547L212.293,214.434L213.98,212.651L214.669,211.316L215.505,210.994L215.999,210.035L217.994,208.206L218.296,207.146L219.586,205.313L220.135,203.685L221.076,202.598L222.044,202.224L224.17,202.173L225.415,200.106L229.182,197.994L230.607,196.456L231.459,196.171L232.909,196.412L233.946,196.325L234.591,195.873L235.465,195.669z"/>
		<path id="CD-HK" title="Haut-Katanga" class="land" d="M556.715,627.266L534.974,630.415L536.458,633.444L536.96,635.626L536.293,638.277L534.802,640.729L530.026,646.816L528.363,648.442L526.812,649.645L521.546,652.85L519.457,654.496L518.697,655.241L517.726,657.271L517.653,659.475L518.401,660.421L519.432,660.881L520.938,660.34L522.308,658.747L522.964,658.982L523.183,659.69L522.596,661.65L523.229,662.286L523.979,662.839L524.333,663.175L524.836,666.039L525.782,666.752L525.702,667.793L526.237,668.847L526.068,670.891L526.674,671.609L527.485,671.738L527.659,672.441L528.409,673.351L527.585,673.831L527.028,676.284L526.099,678.23L526.466,680.328L526.082,681.97L525.997,684.692L524.729,686.468L524.567,687.072L525.74,688.826L526.465,689.514L525.993,691.769L526.672,693.762L526.392,696.387L526.472,696.721L527.582,697.754L527.41,699.648L528.09,700.249L528.401,701.057L528.142,701.627L527.471,702.092L527.289,702.885L526.273,702.766L525.622,703.104L525.412,704.464L523.811,706.561L523.305,710.147L522.358,711.184L522.341,712.996L521.94,713.733L521.324,715.414L521.973,716.875L521.988,717.905L521.506,719.145L521.674,719.918L521.126,721.256L520.675,721.523L520.436,722.551L520.764,724.04L519.746,724.488L519.827,725.398L519.506,726.472L518.697,727.402L518.846,728.35L518.293,730.996L519.885,732.962L519.459,734.001L520,734.719L519.354,735.565L520.014,736.132L520.4,736.979L520.066,738.211L520.13,738.974L521.513,738.855L522.149,739.887L522.219,740.56L524.548,741.58L525.77,741.644L526.582,742.927L529.178,744.182L530.065,743.966L530.406,744.17L531.016,746.287L532.748,747.773L533.486,748.982L536.419,751.385L538.078,753.846L538.271,754.99L539.616,757.015L540.241,757.161L541.556,756.839L542.263,757.359L544.236,756.554L545.581,756.688L546.67,756.346L547.6,757.17L547.588,757.808L548.786,758.116L549.849,757.932L553.334,759.842L554.121,759.79L554.998,758.94L555.338,758.244L555.235,757.579L554,757.316L552.733,755.345L553.103,753.382L553.794,752.252L556.548,750.763L557.223,750.772L558.415,751.214L559.494,751.231L561.29,750.68L562.538,749.704L563.975,749.579L564.039,791.982L563.011,791.388L560.944,792L559.896,791.185L558.832,791.4L557.685,790.466L557.6,789.979L557.796,789.598L557.491,788.979L559.019,788.552L559.37,787.243L559.063,786.534L559.98,785.749L559.596,784.5L558.467,784.89L556.992,784.083L556.075,784.536L555.037,784.54L552.274,787.359L549.821,787.772L549.292,788.482L548.244,787.951L547.704,789.368L546.065,789.946L543.972,791.586L543.255,790.221L542.694,789.561L542.01,789.188L540.916,789.44L538.762,790.756L538.234,790.697L537.347,789.395L537.103,788.308L536.374,787.048L536.244,785.989L535.026,782.391L534.124,782.413L533.534,782.212L533.213,781.841L533.199,780.548L533.179,779.743L532.82,778.945L532.578,777.453L531.419,775.931L530.293,775.084L529.345,773.063L526.986,771.177L526.146,771.227L525.45,771.951L524.931,773.326L524.419,773.604L524.255,773.094L523.506,772.401L523.012,770.591L520.988,768.412L520.687,767.253L521.37,766.777L522.381,766.62L522.84,765.149L522.614,764.628L521.77,763.814L520.344,762.838L520.479,761.755L520.224,761.301L519.009,760.801L516.164,758.134L514.377,757.934L513.608,758.252L512.911,757.722L512.129,757.553L511.655,756.951L510.788,757.728L510.745,758.426L510.059,758.668L508.848,756.172L508.5,755.974L506.474,755.873L505.734,755.516L504.639,756.009L504.423,755.563L504.577,754.713L503.437,752.314L501.767,752.433L500.254,751.972L500.099,752.101L500.222,752.938L498.878,753.404L498.321,753.906L496.834,753.646L495.06,753.832L494.26,753.452L493.679,751.78L492.122,751.318L490.528,749.605L489.964,746.66L489.008,745.607L489.161,743.172L488.872,742.135L487.958,741.381L486.75,740.459L483.344,738.295L481.927,738.003L481.466,737.543L481.28,733.289L480.623,730.447L479.063,731.472L477.857,731.319L476.889,731.657L475.452,731.566L474.938,731.841L474.824,733.158L475.469,734.087L475.587,734.676L474.292,736.915L473.988,738.521L474.271,739.501L473.105,740.58L472.541,741.857L471.092,743.017L470.299,743.981L469.422,743.854L468.512,744.267L467.561,743.407L466.811,743.293L466.17,743.628L465.002,744.771L464.663,744.776L464.146,744.229L462.361,744.019L461.265,743.556L459.903,743.807L457.577,742.177L456.227,741.723L455.082,741.881L452.563,743.381L448.78,742.126L448.132,742.497L441.655,742.551L441.295,742.298L441.694,741.548L441.572,741.166L440.693,740.498L439.862,740.592L439.39,740.4L438.727,739.513L438.466,738.399L438.157,737.989L437.589,738.045L436.336,738.89L432.974,738.487L432.312,737.697L431.651,737.378L430.934,735.803L432.602,733.908L434.887,730.024L436.486,727.054L437.856,725.911L438.999,723.627L438.542,719.514L440.142,716.087L441.513,713.573L443.798,711.745L444.939,711.06L448.367,711.06L449.738,709.232L451.337,708.775L453.394,709.004L453.622,711.06L453.851,714.944L453.394,717.458L455.45,718.828L457.05,717.914L458.191,716.315L458.877,714.487L459.334,711.745L461.162,708.775L462.076,706.262L462.076,702.606L460.934,701.007L459.791,698.036L461.162,697.123L463.219,696.438L466.417,696.209L469.616,696.209L471.9,698.265L473.043,700.321L475.785,701.921L478.298,699.316L478.526,695.203L477.612,692.005L475.785,689.72L476.014,685.15L477.385,680.58L476.242,677.382L473.043,676.011L471.672,677.382L468.017,677.61L464.817,677.382L463.219,675.325L460.705,675.325L456.136,675.554L453.851,674.183L452.937,672.355L454.536,667.785L456.593,665.501L459.334,660.702L460.477,656.59L462.076,653.392L463.219,648.821L464.589,643.109L466.874,640.824L471.215,640.14L473.729,637.626L474.871,634.655L476.471,631.229L480.354,626.431L483.097,625.06L486.752,622.546L491.321,622.089L496.577,621.86L500.689,622.774L503.889,624.374L507.087,627.801L508.687,630.771L511.428,629.857L513.256,626.888L515.541,625.745L517.597,626.659L519.653,624.146L520.567,618.434L521.481,613.636L520.339,611.351L518.054,609.065L519.196,607.01L522.396,606.096L526.279,607.238L528.564,609.294L530.393,612.95L532.22,615.463L534.962,615.691L537.018,614.549L539.531,612.493L541.816,611.579L545.929,611.122L549.356,608.837L552.098,609.294L553.926,611.122L554.84,612.265L558.724,613.407L560.78,614.549L561.923,617.977L561.237,621.175L558.952,623.231L558.038,625.06z"/>
		<path id="CD-HL" title="Haut-Lomami" class="land" d="M452.937,672.355L446.082,671.608L438.999,668.867L429.632,662.927L427.347,662.927L427.347,675.722L424.376,677.777L418.664,680.063L412.724,682.805L409.525,684.176L405.412,684.404L401.757,682.119L396.959,680.977L391.475,681.662L389.647,680.063L385.306,679.605L383.479,681.434L381.65,679.834L381.422,674.579L382.793,671.152L383.479,662.241L385.534,657.443L387.134,654.93L388.276,650.132L384.62,646.247L379.365,643.277L374.339,642.135L370.227,640.535L366.799,638.479L366.113,632.081L367.027,627.055L367.027,618.829L365.199,615.859L363.551,612.069L367.682,612.167L368.457,611.766L369.354,610.703L369.703,610.873L369.834,611.748L370.229,612.096L371.02,612.069L371.837,611.587L372.122,610.436L372.853,609.873L374.4,609.579L376.448,609.757L376.583,608.677L376.423,608.159L375.326,606.366L375.531,605.295L375.442,603.082L375.711,602.458L375.487,601.396L375.763,600.611L375.586,600.112L376.333,599.505L376.983,597.499L377.239,595.608L378.006,594.806L377.829,594.324L376.993,594.048L376.628,593.558L377.259,591.32L376.718,589.85L377.028,589.279L378.301,588.308L378.88,586.927L379.572,586.285L379.938,585.474L381.72,585.02L382.421,584.396L382.706,583.336L382.165,582.811L382.616,582.222L382.396,581.777L381.96,581.679L381.825,581.385L382.911,580.699L382.251,579.684L382.796,578.909L383.168,578.784L384.398,579.176L385.055,579.915L385.369,580.61L385.234,582.258L385.731,582.854L389.756,584.832L391.339,585.341L392.435,585.341L393.2,585.02L393.54,584.628L394.082,583.096L394.953,582.882L396.978,582.87L398.674,581.047L402.153,579.871L405.191,577.404L407.12,576.192L407.255,575.783L406.854,574.625L406.935,574.109L407.601,572.934L408.331,572.328L411.805,572.079L414.936,572.561L416.938,573.388L418.044,574.189L419.095,575.418L419.617,575.48L423.927,573.851L424.318,573.281L424.452,572.293L424.978,571.527L424.808,570.344L425.064,570.041L426.65,569.418L426.49,568.27L426.09,568.092L423.501,568.527L423.021,568.367L422.751,568.572L422.476,568.181L422.174,568.047L421.79,568.323L421.338,567.922L420.027,566.348L419.271,565.796L418.134,563.918L418.63,562.682L419.815,561.693L422.094,561.587L425.859,562.424L426.65,562.334L428.153,561.284L430.781,560.849L433.63,558.101L435.187,557.095L437.1,557.361L439.573,558.216L440.233,558.892L440.305,560.359L440.92,560.866L441.711,560.715L443.134,559.337L444.3,559.194L444.026,562.623L443.341,563.994L441.513,564.68L440.37,566.735L439.228,570.392L439.913,573.59L441.741,577.018L442.884,579.53L444.026,582.958L445.854,584.101L448.596,585.699L451.794,586.385L454.079,588.213L455.45,591.412L454.079,593.696L453.394,596.438L455.45,600.094L458.877,601.693L463.676,601.465L466.188,602.379L468.017,603.521L473.271,603.75L478.526,603.293L480.126,601.693L486.295,600.779L492.692,601.236L493.149,603.293L493.606,608.776L494.749,611.29L497.262,612.203L499.775,613.574L502.061,614.717L503.889,616.773L503.66,619.515L501.604,620.429L500.689,622.774L496.577,621.86L491.321,622.089L486.752,622.546L483.097,625.06L480.354,626.431L476.471,631.229L474.871,634.655L473.729,637.626L471.215,640.14L466.874,640.824L464.589,643.109L463.219,648.821L462.076,653.392L460.477,656.59L459.334,660.702L456.593,665.501L454.536,667.785z"/>
		<path id="CD-KE" title="Kasai-Oriental" class="land" d="M310.576,438.972L312.271,436.583L315.37,435.158L317.523,432.654L318.289,432.15L318.69,432.15L319.456,432.61L319.92,433.327L320.052,434.813L319.68,436.45L320.177,437.609L321.869,438.221L322.686,437.929L323.016,437.539L323.301,436.733L323.141,435.53L321.282,429.646L320.312,424.107L319.146,421.507L319.081,421.119L319.741,420.268L320.642,420.356L324.111,421.444L330.146,422.037L330.876,421.621L332.719,419.348L333.859,417.013L334.41,417.517L335.593,417.189L338.271,418.693L340.098,418.844L341.7,419.658L342.953,420.613L343.828,422.144L345.696,421.294L346.907,421.056L348.225,421.179L349.362,421.621L350.201,422.205L352.284,425.435L352.941,426.071L354.81,425.045L361.878,423.665L364.451,423.515L368.091,423.948L367.985,421.904L368.226,421.161L370.681,420.719L370.949,419.286L370.949,417.189L371.517,416.402L372.282,415.969L374,415.748L377.429,415.995L379.031,414.837L391.134,416.609L391.367,416.474L391.367,416.474L392.342,421.4L392.342,421.4L392.665,423.859L393.3,426.045L394.928,428.602L397.472,431.822L400.285,437.849L401.736,438.282L403.669,438.309L413.237,437.583L412.847,440.946L412.365,442.663L412.757,444.062L412.772,445.522L413.478,447.248L413.593,448.187L412.452,450.347L411.856,452.612L410.273,455.596L410.318,456.189L411.02,457.234L410.764,457.624L410.229,457.278L409.943,457.429L409.988,457.783L410.469,458.173L410.123,458.935L410.559,459.572L409.969,460.289L409.838,461.201L408.981,461.661L408.956,462.185L408.536,462.645L408.696,463.361L408.536,463.646L407.158,463.733L406.649,464.105L406.694,464.451L407.113,464.69L406.89,465.346L406.918,466.7L405.572,467.179L405.137,468.251L404.675,468.472L404.326,469.65L403.339,469.73L402.833,470.102L402.804,470.624L403.579,471.607L403.596,472.006L403.099,472.591L402.394,472.68L402.634,473.096L402.519,473.857L402.919,474.318L403.009,475.647L403.554,475.976L403.355,476.648L403.474,477.189L402.233,478.394L402.308,478.872L401.336,479.856L401.603,480.423L401.513,480.795L402.563,481.247L402.368,481.947L403.339,481.814L403.881,482.143L403.909,482.47L403.509,482.541L403.444,482.824L404.496,484.411L405.242,484.233L405.197,485.2L405.752,485.306L406.649,486.184L406.518,487.354L407.31,488.337L407.755,488.471L408.28,488.098L409.071,488.621L409.161,490.217L409.943,490.979L409.463,491.369L409.443,491.741L410.273,492.459L409.924,493.354L409.882,494.561L410.318,495.429L410.318,496.015L409.658,497.132L409.597,498.328L408.956,499.242L410.123,500.944L410.139,501.663L408.04,503.517L407.62,504.217L407.46,505.113L406.96,505.086L406.739,505.529L405.902,506.026L405.287,507.623L405.643,509.3L406.303,509.734L406.918,511.35L407.64,511.695L407.905,512.334L408.696,512.662L409.088,513.576L410.123,514.534L410.389,515.146L410.404,516.327L410.93,516.886L411.02,517.632L411.68,518.288L411.92,519.052L450.526,519.025L450.526,519.025L450.35,520.791L448.574,524.422L445.662,528.312L444.54,531.49L446.643,535.168L444.569,537.521L444.124,538.774L444.14,539.636L444.71,540.827L447.549,543.483L447.639,543.955L447.175,546.816L447.549,551.893L446.322,553.822L446.367,554.685L447.773,557.478L447.113,559.017L446.412,559.452L444.3,559.194L443.134,559.337L441.711,560.715L440.92,560.866L440.305,560.359L440.233,558.892L439.573,558.216L437.1,557.361L435.187,557.095L433.63,558.101L430.781,560.849L428.153,561.284L426.65,562.334L425.859,562.424L422.094,561.587L419.815,561.693L418.63,562.682L418.134,563.918L419.271,565.796L420.027,566.348L421.338,567.922L421.79,568.323L422.174,568.047L422.476,568.181L422.751,568.572L423.021,568.367L423.501,568.527L426.09,568.092L426.49,568.27L426.65,569.418L425.064,570.041L424.808,570.344L424.978,571.527L424.452,572.293L424.318,573.281L423.927,573.851L419.617,575.48L419.095,575.418L418.044,574.189L416.938,573.388L414.936,572.561L411.805,572.079L408.331,572.328L407.601,572.934L406.935,574.109L406.854,574.625L407.255,575.783L407.12,576.192L405.191,577.404L402.153,579.871L398.674,581.047L396.978,582.87L394.953,582.882L394.082,583.096L393.54,584.628L393.2,585.02L392.435,585.341L391.339,585.341L389.756,584.832L385.731,582.854L385.234,582.258L385.369,580.61L385.055,579.915L384.398,579.176L383.168,578.784L382.796,578.909L382.251,579.684L382.911,580.699L381.825,581.385L381.96,581.679L382.396,581.777L382.616,582.222L382.165,582.811L382.706,583.336L382.421,584.396L381.72,585.02L379.938,585.474L379.572,586.285L378.88,586.927L378.301,588.308L377.028,589.279L376.718,589.85L377.259,591.32L376.628,593.558L376.993,594.048L377.829,594.324L378.006,594.806L377.239,595.608L376.983,597.499L376.333,599.505L375.586,600.112L375.763,600.611L375.487,601.396L375.711,602.458L375.442,603.082L375.531,605.295L375.326,606.366L376.423,608.159L376.583,608.677L376.448,609.757L374.4,609.579L372.853,609.873L372.122,610.436L371.837,611.587L371.02,612.069L370.229,612.096L369.834,611.748L369.703,610.873L369.354,610.703L368.457,611.766L367.682,612.167L363.551,612.069L362.358,612.632L361.096,612.837L359.77,612.677L358.094,612.024L356.165,612.203L355.024,611.587L354.623,611.846L353.877,613.042L353.047,613.221L352.345,612.944L351.829,612.212L351.509,610.194L350.923,608.615L350.923,608.615L351.519,604.555L351.686,600.656L352.685,595.305L352.685,593.566L352.345,591.802L352.566,589.306L351.935,586.998L353.777,581.83L353.752,581.438L352.265,579.515L351.474,578.899L348.555,577.511L346.532,574.233L345.757,573.539L344.2,572.729L343.854,572.364L343.453,571.251L343.498,569.747L345.962,565.288L346.597,563.723L347.192,560.102L348.855,557.46L348.465,556.259L346.487,555.023L345.562,553.822L344.949,552.577L344.379,550.194L344.424,546.097L345.216,544.159L346.337,543.483L350.483,543.306L354.828,542.737L358.078,541.298L358.479,541.493L357.953,543.066L358.212,543.528L358.629,543.652L361.087,542.604L361.772,541.476L362.625,540.818L365.652,539.77L367.325,538.748L369.193,538.943L369.588,538.25L369.434,531.837L369.148,531.108L366.579,530.354L363.346,528.56L360.41,527.689L359.99,527.344L359.856,526.554L359.305,525.834L358.122,526.056L355.47,527.077L353.512,527.06L350.698,523.525L345.145,519.069L344.556,518.377L344.44,514.97L345.456,513.186L350.308,511.855L351.073,511.42L351.604,510.631L351.534,509.061L350.903,505.787L350.263,504.217L349.871,503.827L346.997,503.632L344.184,503.037L341.94,502.976L341.085,502.647L339.217,500.288L335.462,496.404L333.465,494.95L330.306,493.638L326.986,491.174L325.891,489.498L323.391,486.724L322.029,486.857L319.411,488.23L318.619,488.187L317.809,487.885L316.431,486.396L314.364,486.112L314.713,485.155L315.396,484.526L316.998,484.109L320.007,484.127L320.312,483.232L319.081,479.617L318.094,477.562L317.418,476.994L314.694,476.383L313.964,475.976L313.111,474.841L312.807,472.875L312.977,471.147L313.467,470.341L315.024,468.835L315.565,467.356L315.771,465.673L316.867,464.177L317.658,462.512L319.475,457.544L320.052,454.923L319.126,452.108L317.479,449.408L316.011,447.531L313.467,445.018L312.957,441.725L312.512,440.504z"/>
		<path id="CD-KN" title="Kinshasa" class="land" d="M118.421,485.495L120.271,486.636L125.282,486.29L126.885,486.484L128.176,486.963L131.781,489.188L134.19,490.261L136.417,493.833L137.795,494.578L138.545,495.474L138.962,496.387L138.962,496.954L138.651,497.326L139.157,498.373L139.157,498.763L138.696,499.419L138.917,499.854L138.411,500.227L138.036,501.867L137.334,502.709L137.334,503.277L135.687,503.321L135.312,503.676L131.826,509.886L129.823,512.467L130.4,516.212L130.438,519.113L130.438,519.113L121.633,519.025L118.098,516.105L117.903,516.496L117.797,518.83L117.066,519.859L115.419,520.055L112.635,519.265L109.911,517.286L109.206,516.149L109.581,515.404L111.539,515.13L112.571,514.384L112.936,511.651L113.667,509.841L113.471,508.732L113.071,508.404L110.792,507.623L110.507,507.225L111.558,505.353L111.424,504.634L110.658,504.457L108.396,504.767L105.316,503.889L103.743,504.11L103.038,504.545L102.467,505.246L102.637,506.771L102.141,507.863L100.99,508.235L99.853,507.729L97.545,505.485L94.315,500.629L94.315,500.629L95.229,499.691L95.735,498.19L96.841,497.538L98.037,497.187L99.192,496.086L101.427,496.331L102.237,496.665L103.242,496.395L104.37,495.698L105.657,493.51L105.53,491.858L105.992,490.497L106.88,489.111L107.501,488.595L112.383,486.907L116.955,486.234z"/>
		<path id="CD-KW" title="Kasai-Occidental" class="land" d="M269.628,581.106L272.656,581.779L275.687,580.913L277.419,575.713L277.419,571.382L275.687,567.484L273.955,564.454L271.356,564.454L268.758,562.29L267.892,560.126L265.727,556.231L262.695,554.067L260.963,551.905L258.798,551.04L256.2,548.877L255.334,541.526L255.033,541.28L255.494,540.906L255.314,540.01L255.513,539.379L254.552,536.873L254.353,535.736L254.417,530.327L255.209,529.102L255.359,528.214L256.02,527.77L255.645,526.465L255.869,525.79L255.869,524.111L254.988,521.085L254.267,520.25L254.177,519.683L254.507,519.141L254.478,518.768L253.206,516.957L252.351,512.964L251.469,511.651L251.428,509.087L251.844,508.359L251.719,506.115L252.264,504.679L252.921,504.244L253.536,503.082L252.681,502.142L252.549,500.749L251.719,499.153L250.989,498.355L250.793,496.688L250.973,495.996L250.973,495.996L251.543,496.13L253.071,495.891L253.071,495.891L254.238,496.254L255.423,497.717L256.286,497.548L256.917,497.787L257.426,498.391L257.471,499.091L258.147,499.721L258.548,499.765L259.419,499.33L260.541,499.792L261.156,499.073L261.137,498.133L261.422,496.892L261.723,496.52L262.918,495.952L263.905,496.147L264.207,495.119L264.537,495.057L265.107,495.358L266.049,495.207L269.414,493.532L269.878,493.115L270.048,492.37L271.36,491.341L271.214,485.066L270.865,482.798L270.974,477.96L270.295,472.245L270.75,465L271.916,461.493L276.303,450.391L277.469,448.532L279.802,446.203L280.302,445.416L280.507,444.257L280.417,442.451L281.603,439.613L282.097,438.919L282.097,438.919L287.137,439.681L289.639,439.681L291.437,439.478L293.901,438.583L295.895,438.654L296.314,438.344L296.57,434.247L296.82,434.026L298.467,434.813L299.563,435.035L301.031,436.45L302.482,436.778L303.738,437.955L305.821,438.698L308.26,440.203L310.576,438.972L310.576,438.972L312.512,440.504L312.957,441.725L313.467,445.018L316.011,447.531L317.479,449.408L319.126,452.108L320.052,454.923L319.475,457.544L317.658,462.512L316.867,464.177L315.771,465.673L315.565,467.356L315.024,468.835L313.467,470.341L312.977,471.147L312.807,472.875L313.111,474.841L313.964,475.976L314.694,476.383L317.418,476.994L318.094,477.562L319.081,479.617L320.312,483.232L320.007,484.127L316.998,484.109L315.396,484.526L314.713,485.155L314.364,486.112L316.431,486.396L317.809,487.885L318.619,488.187L319.411,488.23L322.029,486.857L323.391,486.724L325.891,489.498L326.986,491.174L330.306,493.638L333.465,494.95L335.462,496.404L339.217,500.288L341.085,502.647L341.94,502.976L344.184,503.037L346.997,503.632L349.871,503.827L350.263,504.217L350.903,505.787L351.534,509.061L351.604,510.631L351.073,511.42L350.308,511.855L345.456,513.186L344.44,514.97L344.556,518.377L345.145,519.069L350.698,523.525L353.512,527.06L355.47,527.077L358.122,526.056L359.305,525.834L359.856,526.554L359.99,527.344L360.41,527.689L363.346,528.56L366.579,530.354L369.148,531.108L369.434,531.837L369.588,538.25L369.193,538.943L367.325,538.748L365.652,539.77L362.625,540.818L361.772,541.476L361.087,542.604L358.629,543.652L358.212,543.528L357.953,543.066L358.479,541.493L358.078,541.298L354.828,542.737L350.483,543.306L346.337,543.483L345.216,544.159L344.424,546.097L344.379,550.194L344.949,552.577L345.562,553.822L346.487,555.023L348.465,556.259L348.855,557.46L347.192,560.102L346.597,563.723L345.962,565.288L343.498,569.747L343.453,571.251L343.854,572.364L344.2,572.729L345.757,573.539L346.532,574.233L348.555,577.511L351.474,578.899L352.265,579.515L353.752,581.438L353.777,581.83L351.935,586.998L352.566,589.306L352.345,591.802L352.685,593.566L352.685,595.305L351.686,600.656L351.519,604.555L350.923,608.615L350.923,608.615L350.378,608.829L349.266,609.847L348.439,610.203L344.084,611.676L341.815,612.114L339.839,611.311L338.221,611.498L336.138,610.98L335.743,610.677L335.221,609.552L334.775,607.268L334.25,606.509L333.545,606.063L332.949,606.134L330.616,608.142L329.86,608.508L326.211,608.49L321.869,609.062L319.802,608.829L318.354,608.23L316.287,607.954L314.223,606.919L312.701,605.482L308.236,603.804L308.236,603.804L308.309,603.009L308.956,602.295L309.111,600.813L308.569,599.729L309.228,598.284L309.188,597.239L308.63,595.419L308.037,593.551L306.992,592.759L306.782,592.149L267.083,592.07L266.909,590.077L267.146,587.663L267.401,586.655L268.159,585.273L268.616,583.234L269.544,582.258z"/>
		<path id="CD-LB" title="Lualaba" class="land" d="M363.551,612.069L365.199,615.859L367.027,618.829L367.027,627.055L366.113,632.081L366.799,638.479L370.227,640.535L374.339,642.135L379.365,643.277L384.62,646.247L388.276,650.132L387.134,654.93L385.534,657.443L383.479,662.241L382.793,671.152L381.422,674.579L381.65,679.834L383.479,681.434L385.306,679.605L389.647,680.063L391.475,681.662L396.959,680.977L401.757,682.119L405.412,684.404L409.525,684.176L412.724,682.805L418.664,680.063L424.376,677.777L427.347,675.722L427.347,662.927L429.632,662.927L438.999,668.867L446.082,671.608L452.937,672.355L453.851,674.183L456.136,675.554L460.705,675.325L463.219,675.325L464.817,677.382L468.017,677.61L471.672,677.382L473.043,676.011L476.242,677.382L477.385,680.58L476.014,685.15L475.785,689.72L477.612,692.005L478.526,695.203L478.298,699.316L475.785,701.921L473.043,700.321L471.9,698.265L469.616,696.209L466.417,696.209L463.219,696.438L461.162,697.123L459.791,698.036L460.934,701.007L462.076,702.606L462.076,706.262L461.162,708.775L459.334,711.745L458.877,714.487L458.191,716.315L457.05,717.914L455.45,718.828L453.394,717.458L453.851,714.944L453.622,711.06L453.394,709.004L451.337,708.775L449.738,709.232L448.367,711.06L444.939,711.06L443.798,711.745L441.513,713.573L440.142,716.087L438.542,719.514L438.999,723.627L437.856,725.911L436.486,727.054L434.887,730.024L432.602,733.908L430.934,735.803L430.291,735.948L428.967,735.908L428.446,736.727L427.004,737.219L425.883,737.492L425.447,737.075L425.817,736.146L425.784,735.129L425.242,734.323L423.64,733.947L420.732,732.35L420.392,730.982L419.717,730.364L419.885,729.303L419.218,728.767L420.412,728.194L419.691,727.24L419.634,725.492L418.859,724.008L418.918,723.701L419.918,723.303L419.945,722.615L419.413,722.026L419.502,721.78L420.241,721.605L420.688,721.179L420.191,720.299L421.216,718.348L419.678,718.203L417.18,719.375L414.343,719.711L412.201,720.262L409.482,720.118L408.654,720.411L407.713,720.309L406.93,720.75L405.891,720.498L405.235,721.5L403.473,721.868L402.682,721.713L401.554,721.923L401.375,722.662L400.3,722.82L399.239,723.613L398.225,725.101L397.082,725.579L396.866,726.551L396.597,726.806L395.543,726.484L394.654,726.993L393.01,726.948L392.173,727.435L391.903,727.173L391.858,726.478L390.162,725.274L388.122,725.222L387.151,724.624L387.376,724.146L389.102,723.885L390.499,721.271L390.745,718.307L390.29,717.694L390.439,715.672L390.171,714.993L388.164,713.701L386.97,713.373L386.037,713.462L383.889,712.938L383.164,713.452L382.434,713.175L382.098,712.765L382.577,711.251L381.795,710.205L382.079,709.46L381.9,709.087L381.662,708.9L380.931,708.929L379.775,708.405L378.217,708.27L377.247,708.648L376.633,709.997L376.125,710.533L374.362,711.611L373.809,712.558L373.158,712.892L371.987,712.896L369.744,711.742L368.541,712.247L367.393,712.259L366.014,711.688L364.61,711.773L363.174,710.68L362.057,710.251L359.813,709.989L355.115,713L352.366,715.309L350.733,715.018L348.549,716.015L346.313,715.242L344.53,715.181L342.771,714.634L341.604,714L340.511,714.621L339.793,714.691L339.236,715.605L336.989,715.563L334.756,714.675L332.572,713.161L331.827,712.984L330.16,713.368L329.755,713.664L329.482,714.214L329.767,715.171L329.672,715.902L327.815,717.665L325.068,717.72L324.53,718.716L323.416,719.909L323.108,720.139L322.526,719.978L322.113,719.361L322.465,718.326L322.264,717.377L320.891,715.381L320.863,713.142L320.44,711.93L320.417,710.214L319.644,708.992L319.398,707.932L319.606,707.194L321.234,705.918L323.477,705.257L324.316,704.615L324.514,704.14L323.878,701.497L323.955,697.206L322.711,696.318L323.296,694.722L324.156,693.21L324.321,692.072L323.644,690.214L322.854,689.374L322.79,688.049L321.381,686.387L320.948,684.747L321.022,681.907L320.164,679.581L319.945,677.253L317.984,676.196L316.155,675.656L315.243,674.33L314.209,673.66L313.064,671.994L311.884,670.327L311.706,669.494L309.837,668.408L309.589,665.585L308.362,663.377L308.521,662.333L307.177,660.896L307.478,660.38L307.892,658.218L308.424,656.814L309.344,655.11L309.357,652.888L308.777,649.955L309.024,648.069L309.527,644.979L309.597,643.091L310,641.911L310.751,639.815L311.127,636.786L311.333,634.451L311.967,632.216L312.523,631.135L311.982,628.868L311.227,626.614L311.768,625.585L310.484,624.51L309.899,621.491L309.162,619.779L307.852,616.954L307.019,616.149L305.657,612.836L306.464,611.73L306.257,609.72L306.38,607.996L307.259,606.498L307.758,604.939L308.236,603.804L312.701,605.482L314.223,606.919L316.287,607.954L318.354,608.23L319.802,608.829L321.869,609.062L326.211,608.49L329.86,608.508L330.616,608.142L332.949,606.134L333.545,606.063L334.25,606.509L334.775,607.268L335.221,609.552L335.743,610.677L336.138,610.98L338.221,611.498L339.839,611.311L341.815,612.114L344.084,611.676L348.439,610.203L349.266,609.847L350.378,608.829L350.923,608.615L351.509,610.194L351.829,612.212L352.345,612.944L353.047,613.221L353.877,613.042L354.623,611.846L355.024,611.587L356.165,612.203L358.094,612.024L359.77,612.677L361.096,612.837L362.358,612.632z"/>
		<path id="CD-MA" title="Maniema" class="land" d="M498.496,377.287L498.894,378.584L499.327,382.025L498.461,385.467L498.028,388.478L496.296,390.629L492.831,392.78L485.47,392.35L483.305,394.071L484.604,396.222L484.604,398.804L481.572,399.664L479.407,400.955L482.005,402.676L484.171,406.118L488.934,410.852L498.028,421.18L496.729,425.054L496.729,425.054L495.862,425.054L495.862,425.054L493.697,425.484L490.666,425.484L488.501,426.345L486.336,428.497L485.902,431.511L481.572,433.232L474.644,431.08L472.045,431.08L469.447,431.94L468.147,438.829L469.014,443.565L477.675,464.24L475.51,476.307L476.376,482.773L478.541,484.93L482.005,486.654L485.036,487.085L490.666,487.085L497.162,488.379L499.76,491.829L503.225,493.123L504.957,494.417L512.318,493.554L514.483,496.143L517.515,498.73L520.979,503.045L524.443,510.813L529.15,519.025L529.15,519.025L516.255,519.025L516.255,519.025L450.526,519.025L450.526,519.025L411.92,519.052L411.68,518.288L411.02,517.632L410.93,516.886L410.404,516.327L410.389,515.146L410.123,514.534L409.088,513.576L408.696,512.662L407.905,512.334L407.64,511.695L406.918,511.35L406.303,509.734L405.643,509.3L405.287,507.623L405.902,506.026L406.739,505.529L406.96,505.086L407.46,505.113L407.62,504.217L408.04,503.517L410.139,501.663L410.123,500.944L408.956,499.242L409.597,498.328L409.658,497.132L410.318,496.015L410.318,495.429L409.882,494.561L409.924,493.354L410.273,492.459L409.443,491.741L409.463,491.369L409.943,490.979L409.161,490.217L409.071,488.621L408.28,488.098L407.755,488.471L407.31,488.337L406.518,487.354L406.649,486.184L405.752,485.306L405.197,485.2L405.242,484.233L404.496,484.411L403.444,482.824L403.509,482.541L403.909,482.47L403.881,482.143L403.339,481.814L402.368,481.947L402.563,481.247L401.513,480.795L401.603,480.423L401.336,479.856L402.308,478.872L402.233,478.394L403.474,477.189L403.355,476.648L403.554,475.976L403.009,475.647L402.919,474.318L402.519,473.857L402.634,473.096L402.394,472.68L403.099,472.591L403.596,472.006L403.579,471.607L402.804,470.624L402.833,470.102L403.339,469.73L404.326,469.65L404.675,468.472L405.137,468.251L405.572,467.179L406.918,466.7L406.89,465.346L407.113,464.69L406.694,464.451L406.649,464.105L407.158,463.733L408.536,463.646L408.696,463.361L408.536,462.645L408.956,462.185L408.981,461.661L409.838,461.201L409.969,460.289L410.559,459.572L410.123,458.935L410.469,458.173L409.988,457.783L409.943,457.429L410.229,457.278L410.764,457.624L411.02,457.234L410.318,456.189L410.273,455.596L411.856,452.612L412.452,450.347L413.593,448.187L413.478,447.248L412.772,445.522L412.757,444.062L412.365,442.663L412.847,440.946L413.237,437.583L403.669,438.309L401.736,438.282L400.285,437.849L397.472,431.822L394.928,428.602L393.3,426.045L392.665,423.859L392.342,421.4L392.342,421.4L394.268,421.64L400.15,421.621L403.801,422.037L407.55,421.356L410.273,421.206L410.674,422.161L411.83,422.754L412.292,423.409L412.275,424.169L411.725,425.391L411.812,425.956L412.231,426.435L413.112,426.328L414.885,426.85L416.797,426.877L418.729,426.638L419.867,426.267L420.598,425.762L425.404,420.374L427.666,418.72L429.204,418.393L431.512,419.41L432.383,419.525L434.117,418.765L435.988,418.888L436.799,417.411L436.93,414.12L437.526,411.626L437.526,409.945L437.171,407.876L437.395,406.788L437.437,403.929L438.532,405.019L438.907,405.762L439.895,406.328L439.85,406.938L441.941,407.159L442.486,406.762L442.646,405.956L443.169,405.391L442.682,404.32L442.727,403.932L444.22,403.206L444.444,401.773L444.175,401.004L444.265,400.482L444.745,400.093L446.002,399.783L446.092,399.438L445.81,398.837L446.393,397.563L446.348,396.229L447.344,395.424L446.613,394.831L446.393,394.088L446.643,391.647L447.168,389.994L449.907,388.986L450.744,388.358L451.254,387.633L451.359,386.369L450.417,380.285L450.504,379.109L451.334,377.934L454.589,375.184L454.964,374.335L454.624,373.177L453.708,372.089L450.219,369.799L448.485,367.828L444.656,364.733L446.332,362.832L446.793,362.594L447.344,362.531L447.825,362.947L448.2,362.965L448.456,363.575L449.312,363.813L450.479,364.777L450.959,365.626L451.51,365.538L451.93,365.803L452.695,367.633L453.202,367.527L453.513,368.119L454.323,368.835L455.489,369.207L455.986,370.666L456.912,371.497L460.19,371.32L461.568,370.516L462.404,369.596L464.888,369.251L467.035,367.739L468.528,367.942L468.903,367.438L468.512,366.501L468.929,366.042L470.354,367.023L471.12,366.855L472.348,367.854L473.931,368.004L474.565,368.686L475.712,369.269L476.132,369.772L476.014,370.444L476.344,370.993L477.66,371.841L478.257,372.805L479.772,373.459L483.217,373.831L484.229,374.132L484.905,374.574L485.521,375.467L485.985,375.661L487.178,375.679L488.469,375.007L489.231,374.918L489.812,375.228L490.507,376.271L493.076,376.209L496.967,377.73L498.482,377.297L498.482,377.297z"/>
		<path id="CD-NK" title="Nord-Kivu" class="land" d="M496.729,425.054L498.028,421.18L488.934,410.852L484.171,406.118L482.005,402.676L479.407,400.955L481.572,399.664L484.604,398.804L484.604,396.222L483.305,394.071L485.47,392.35L492.831,392.78L496.296,390.629L498.028,388.478L498.461,385.467L499.327,382.025L498.894,378.584L498.496,377.287L498.496,377.287L498.963,376.952L498.963,376.952L501.997,374.052L503.9,370.516L504.721,369.861L507.551,368.809L508.736,368.093L509.482,366.961L510.012,364.58L509.634,363.813L508.912,359.057L509.419,356.201L510.38,355.635L510.665,354.636L510.38,354.044L509.874,353.655L509.964,352.629L508.887,352.187L508.271,351.471L507.73,349.614L507.836,347.917L507.73,347.589L507.24,347.413L507.506,346.104L506.936,345.821L506.695,344.973L506.188,344.866L505.968,344.424L504.872,344.619L503.359,343.964L503.004,344.274L502.654,344.009L502.148,344.38L500.966,344.053L499.29,342.877L497.688,342.311L497.582,341.595L497.822,341.392L498.963,341.02L500.19,341.179L502.654,340.693L503.484,340.171L504.846,338.606L508.076,337.359L517.298,336.095L518.57,336.511L521.144,339.349L522.31,340.331L523.207,340.826L524.363,341.091L529.27,339.844L532.208,339.562L535.854,339.782L538.491,340.198L539.809,339.888L541.276,338.642L542.923,337.837L544.836,338.032L546.483,339.146L547.951,338.668L550.479,340.065L551.245,340.083L552.431,339.562L553.613,338.43L553.203,337.643L550.435,336.688L549.643,335.618L549.822,334.415L551.023,332.408L551.841,332.302L554.494,333.54L556.186,333.716L556.757,333.044L556.516,332.346L556.872,331.621L558.625,331.709L559.807,331.471L560.646,331.771L561.409,331.709L562.159,331.161L563.146,329.941L565.344,328.986L565.693,329.003L566.511,330.728L567.126,331.471L569.747,332.757L569.747,332.757L569.646,332.911L569.184,333.708L568.93,334.79L569.364,335.937L569.077,336.856L568.923,337.954L568.698,339.177L569.26,340.539L569.165,341.579L569.479,343.134L566.055,347.329L564.486,354.113L564.219,354.399L563.389,354.194L562.747,354.387L561.663,355.631L561.649,356.761L561.075,357.249L561.033,358.48L561.34,359.71L561.424,360.879L561.494,362.567L558.968,374.334L559.596,374.694L559.468,376.901L559.986,377.52L559.527,378.413L559.347,379.464L558.148,382.047L558.324,383.198L558.141,384.819L558.604,386.003L558.157,387.027L558.518,388.235L556.724,388.396L556.886,389.585L556.854,390.842L556.758,392.059L556.992,393.106L556.541,395.519L556.85,396.374L556.43,397.351L557.558,398.482L557.07,400.033L557.522,401.516L556.988,403.787L556.165,404.062L554.76,404.875L554.086,405.774L552.676,407.477L550.4,407.5L549.703,407.889L548.128,410.43L546.622,411.829L545.952,413.926L544.587,415.412L542.597,418.516L542.597,418.516L538.734,418.167L535.703,416.876L535.27,415.154L531.806,414.725L529.641,418.167L526.176,421.61L524.877,423.762L521.846,424.192L520.546,422.041L518.814,420.749L517.082,422.901L514.051,425.914L509.72,427.206L507.122,427.206L505.822,426.775L504.091,425.054L498.894,425.054L498.894,425.054z"/>
		<path id="CD-OR" title="Orientale" class="land" d="M427.729,188.294L428.575,188.335L429.078,189.283L429.895,189.221L429.954,189.53L429.934,190.053L430.361,190.198L430.61,189.874L431.051,189.843L431.553,190.349L432.658,190.831L433.021,191.794L433.654,191.858L433.951,192.762L435.045,192.288L434.617,191.899L435.338,191.61L435.604,192.235L436.223,192.469L436.24,193.388L436.729,194.357L437.086,193.555L437.563,193.303L438.263,193.338L438.373,193.5L438.735,194.109L438.943,195.05L439.34,194.74L439.088,193.924L439.632,194.026L440.139,193.723L440.831,194.199L440.917,193.198L441.512,192.667L442.02,192.982L442.284,193.025L442.338,193.673L443.214,193.861L443.713,193.868L444.163,194.124L444.448,193.513L445.177,193.673L445.219,193.128L445.727,192.979L446.276,192.316L446.356,191.89L447.144,192.064L447.116,192.91L447.403,193.005L447.976,192.606L448.653,192.752L448.985,193.479L449.141,193.714L449.597,193.662L450.119,193.999L450.334,194.388L450.144,194.845L451.137,194.916L451.446,195.188L452.108,195.429L452.947,195.632L453.728,195.763L454.514,195.614L454.979,196.084L455.523,196.414L456.119,196.685L456.694,197.287L456.783,197.86L456.844,198.456L457.624,198.844L458.301,198.923L458.867,198.915L459.094,198.179L459.343,198.156L460.071,198.294L460.395,198.301L460.416,197.742L460.879,197.69L461.101,197.969L461.681,197.762L462.438,197.724L462.99,197.892L463.445,197.854L464.114,197.529L465.224,197.13L466.018,197.019L466.738,197.076L467.188,197.575L467.402,198.009L467.882,198.758L468.301,198.802L468.631,198.434L469.934,199.248L470.345,198.872L470.542,197.975L471.218,197.768L471.599,196.745L471.98,196.45L471.951,196.038L474.963,194.349L476.169,193.906L477.625,193.72L479.073,193.947L481.458,195.459L484.225,196.287L484.945,196.786L487.858,197.842L488.33,198.636L488.164,199.625L488.88,199.81L490.094,200.935L490.666,201.136L491.102,202.689L491.923,203.185L492.421,203.863L495.098,203.8L495.947,204.531L496.764,206.329L496.578,206.813L496.899,207.167L498.342,207.011L498.839,207.631L499.261,208.75L499.293,209.735L498.807,210.146L498.798,210.41L499.217,212.19L499.146,213.197L499.454,213.324L500.697,213.586L501.073,213.962L501.853,214.767L503.836,214.893L504.126,214.123L505.286,214.524L506.711,214.847L507.417,214.769L507.098,217.009L507.375,217.77L507.966,218.011L508.484,219.146L509.54,218.181L510.311,218.339L510.646,218.826L510.305,219.684L511.69,220.278L512.517,221.164L514.191,221.355L514.686,220.968L516.273,220.99L517.323,221.098L517.805,221.901L517.842,223.225L518.208,223.491L519.273,223.584L520.745,223.15L521.572,222.339L521.635,221.641L522.42,220.477L523.736,220.175L524.566,220.304L525.367,219.029L526.146,219.136L527.293,218.863L528.392,216.825L528.138,216.177L528.822,215.982L529.053,215.653L528.907,215.27L530.35,215.042L531.007,214.443L531.278,214.437L531.884,215.286L531.914,216.602L532.668,217.135L533.543,217.036L535.308,217.017L537.328,217.086L538.419,216.534L539.219,216.862L539.64,217.695L540.69,217.811L540.598,218.575L542.404,218.717L542.387,219.298L544.193,220.793L544.674,221.457L545.983,221.251L546.216,220.577L546.014,219.922L546.559,219.712L547.592,220.159L548.416,219.98L548.956,219.447L549.593,217.525L551.214,216.83L552.148,215.534L552.199,214.41L553.235,213.351L552.971,210.982L553.641,210.824L554.093,210.246L554.924,211.361L555.845,210.992L556.498,211.114L557.194,211.567L557.814,211.159L560.805,212.583L561.802,214.037L562.738,213.653L563.241,214.274L564.401,214.421L564.419,215.105L563.938,216.579L563.611,218.304L563.699,220.502L565.022,221.51L566.737,221.206L568.296,222.208L568.993,223.403L568.368,224.545L568.491,224.767L569.753,225.025L571.382,226.231L571.741,227.584L572.688,228.658L574.207,228.636L575.148,229.16L575.241,230.5L576.604,232.021L576.632,233.41L577.293,234.251L578.928,233.647L579.75,234.456L581.467,234.974L582.56,235.174L584.407,235.949L585.311,236.74L585.958,236.824L586.835,236.429L587.675,236.462L587.903,236.767L587.865,237.954L588.411,239.515L588.903,242.456L588.582,243.702L587.985,244.812L588.061,245.142L589.127,245.198L591.547,243.854L593.198,244.357L593.698,244.24L594.357,242.895L594.881,242.632L595.28,243.21L595.338,244.355L595.773,245.32L597.783,246.191L597.271,247.938L597.512,248.638L597.796,248.822L598.306,248.709L598.766,248.132L600.181,247.914L600.377,249.201L600.12,249.979L600.211,251.245L599.577,252.25L598.6,253.26L598.762,254.107L598.061,255.194L597.021,255.743L597.111,256.513L596.747,257.626L595.863,259.82L595.615,261.933L594.771,262.481L595.178,263.414L595.866,263.919L596.612,264.497L597.654,265.358L597.938,266.62L598.177,267.612L598.592,267.944L598.685,268.654L598.492,270.06L597.693,271.352L596.992,271.562L596.525,272.113L596.646,272.767L596.139,273.862L595.367,275.437L595.504,275.771L595.09,276.767L594.197,277.321L594.572,279.75L594.468,280.142L594.077,280.347L593.901,281.658L594.247,282.629L595.089,282.024L595.979,282.464L596.837,282.708L597.349,283.763L598.126,284.245L598.421,285.143L599.356,285.427L600.021,285.332L600.339,285.05L600.582,284.465L600.34,284.072L600.741,283.245L601.877,283.06L602.45,283.229L603.046,283.669L604.541,284.971L604.427,285.381L604.927,286.094L604.425,286.275L606.205,287.514L606.458,287.544L606.726,286.973L607.458,287.143L608.708,286.625L608.712,288.964L610.163,289.639L611.999,291.001L611.996,292.293L608.6,297.05L605.642,300.7L603.104,303.977L594.193,311.05L587.775,319.369L586.815,319.372L585.397,321.075L584.67,321.417L583.634,321.696L582.658,321.779L581.696,321.313L581.097,322.123L580.915,322.945L580.17,322.885L580.047,322.422L579.535,322.249L578.939,322.452L578.524,323.114L577.708,323.547L577.847,324.648L577.468,325.041L577.458,325.961L577.194,327.256L576.598,328.488L576.18,329.392L575.613,330.141L575.139,331.408L574.184,331.349L573.19,331.478L571.817,331.979L570.892,332.075L570.327,332.415L569.747,332.757L569.747,332.757L567.126,331.471L566.511,330.728L565.693,329.003L565.344,328.986L563.146,329.941L562.159,331.161L561.409,331.709L560.646,331.771L559.807,331.471L558.625,331.709L556.872,331.621L556.516,332.346L556.757,333.044L556.186,333.716L554.494,333.54L551.841,332.302L551.023,332.408L549.822,334.415L549.643,335.618L550.435,336.688L553.203,337.643L553.613,338.43L552.431,339.562L551.245,340.083L550.479,340.065L547.951,338.668L546.483,339.146L544.836,338.032L542.923,337.837L541.276,338.642L539.809,339.888L538.491,340.198L535.854,339.782L532.208,339.562L529.27,339.844L524.363,341.091L523.207,340.826L522.31,340.331L521.144,339.349L518.57,336.511L517.298,336.095L508.076,337.359L504.846,338.606L503.484,340.171L502.654,340.693L500.19,341.179L498.963,341.02L497.822,341.392L497.582,341.595L497.688,342.311L499.29,342.877L500.966,344.053L502.148,344.38L502.654,344.009L503.004,344.274L503.359,343.964L504.872,344.619L505.968,344.424L506.188,344.866L506.695,344.973L506.936,345.821L507.506,346.104L507.24,347.413L507.73,347.589L507.836,347.917L507.73,349.614L508.271,351.471L508.887,352.187L509.964,352.629L509.874,353.655L510.38,354.044L510.665,354.636L510.38,355.635L509.419,356.201L508.912,359.057L509.634,363.813L510.012,364.58L509.482,366.961L508.736,368.093L507.551,368.809L504.721,369.861L503.9,370.516L501.997,374.052L498.963,376.952L498.963,376.952L498.482,377.297L498.482,377.297L496.967,377.73L493.076,376.209L490.507,376.271L489.812,375.228L489.231,374.918L488.469,375.007L487.178,375.679L485.985,375.661L485.521,375.467L484.905,374.574L484.229,374.132L483.217,373.831L479.772,373.459L478.257,372.805L477.66,371.841L476.344,370.993L476.014,370.444L476.132,369.772L475.712,369.269L474.565,368.686L473.931,368.004L472.348,367.854L471.12,366.855L470.354,367.023L468.929,366.042L468.512,366.501L468.903,367.438L468.528,367.942L467.035,367.739L464.888,369.251L462.404,369.596L461.568,370.516L460.19,371.32L456.912,371.497L455.986,370.666L455.489,369.207L454.323,368.835L453.513,368.119L453.202,367.527L452.695,367.633L451.93,365.803L451.51,365.538L450.959,365.626L450.479,364.777L449.312,363.813L448.456,363.575L448.2,362.965L447.825,362.947L447.344,362.531L446.793,362.594L446.332,362.832L444.656,364.733L448.485,367.828L450.219,369.799L453.708,372.089L454.624,373.177L454.964,374.335L454.589,375.184L451.334,377.934L450.504,379.109L450.417,380.285L451.359,386.369L451.254,387.633L450.744,388.358L449.907,388.986L447.168,389.994L446.643,391.647L446.393,394.088L446.613,394.831L447.344,395.424L446.348,396.229L446.393,397.563L445.81,398.837L446.092,399.438L446.002,399.783L444.745,400.093L444.265,400.482L444.175,401.004L444.444,401.773L444.22,403.206L442.727,403.932L442.682,404.32L443.169,405.391L442.646,405.956L442.486,406.762L441.941,407.159L439.85,406.938L439.895,406.328L438.907,405.762L438.532,405.019L437.437,403.929L437.395,406.788L437.171,407.876L437.526,409.945L437.526,411.626L436.93,414.12L436.799,417.411L435.988,418.888L434.117,418.765L432.383,419.525L431.512,419.41L429.204,418.393L427.666,418.72L425.404,420.374L420.598,425.762L419.867,426.267L418.729,426.638L416.797,426.877L414.885,426.85L413.112,426.328L412.231,426.435L411.812,425.956L411.725,425.391L412.275,424.169L412.292,423.409L411.83,422.754L410.674,422.161L410.273,421.206L407.55,421.356L403.801,422.037L400.15,421.621L394.268,421.64L392.342,421.4L392.342,421.4L391.367,416.474L391.367,416.474L390.823,412.112L389.941,408.663L388.599,406.372L387.638,404.02L386.891,403.648L382.806,403.932L381.29,403.754L379.777,403.206L376.263,401.27L374.721,400.11L372.639,397.953L370.619,397.21L370.094,396.122L369.869,394.964L369.238,394.159L367.19,392.895L362.733,390.737L359.529,387.854L357.267,385.37L357.373,385.016L361.417,381.921L362.974,381.285L365.127,380.833L365.874,380.303L366.024,379.914L363.855,378.146L361.137,373.885L360.497,373.565L359.77,373.654L356.146,375.051L354.482,375.44L353.646,375.14L353.165,373.548L352.835,373.203L344.885,372.578L348.795,369.401L350.368,368.482L351.204,368.535L353.957,369.578L355.273,369.772L356.546,368.42L358.494,368.075L359.004,367.633L358.939,366.307L355.05,360.852L353.752,358.535L350.263,354.681L348.51,350.799L346.532,348.916L344.976,346.52L344.113,344.451L343.764,342.682L343.783,341.506L343.107,340.331L341.761,338.845L341.13,337.51L341.31,334.15L339.947,331.144L340.249,330.622L339.813,329.817L340.034,328.721L339.919,327.96L338.691,326.342L338.602,325.387L338.467,325.078L338.016,324.883L337.15,322.486L336.188,321.027L335.397,320.284L335.202,319.232L334.677,318.666L334.632,317.711L333.814,316.331L332.959,316.119L332.479,315.288L331.908,315.005L331.206,314.156L329.47,313.041L328.258,312.802L327.717,312.254L325.891,312.033L325.489,311.776L324.858,311.989L324.201,311.776L322.99,311.821L323.781,310.096L324.528,309.379L327.227,307.672L328.963,305.753L329.425,304.515L330.37,298.667L332.674,294.457L332.104,292.891L332.148,292.493L332.523,292.166L333.314,292.166L334.962,292.758L336.233,294.917L337.195,295.049L338.076,295.677L339.813,295.005L340.649,295.049L340.995,294.545L341.396,294.545L341.505,294.023L342.252,293.713L342.226,292.908L343.238,292.908L343.854,292.236L343.764,291.271L344.994,290.926L345.081,290.139L345.456,290.201L347.628,292.555L348.75,293.015L349.256,292.953L352.284,291.316L356.876,287.998L362.538,288.962L365.242,290.095L366.354,290.201L366.729,289.874L366.384,286.715L365.964,285.467L363.221,283.467L359.395,281.609L357.373,279.317L356.521,278.972L355.729,278.954L349.916,279.998L348.33,279.388L347.077,278.229L345.02,275.812L344.574,274.591L345.981,271.882L345.831,270.705L345.306,269.483L345.366,268.678L346.667,266.456L346.792,264.88L348.27,261.675L348.57,260.258L348.48,259.452L347.478,258.646L345.892,258.991L344.379,260.214L341.505,263.764L340.71,264.339L339.919,264.269L339.217,263.685L338.797,262.108L338.826,260.47L339.457,257.247L339.332,255.875L338.691,255.175L337.944,254.785L334.847,254.042L333.885,253.041L333.795,251.748L335.202,249.878L337.134,249.108L341.46,247.956L343.568,246.672L344.396,247.018L345.635,247.106L347.058,246.689L348.24,245.662L350.243,243.306L351.339,242.525L352.506,242.898L353.207,243.678L355.488,243.722L356.921,244.767L357.703,244.51L358.479,243.873L359.99,241.808L361.458,240.603L361.983,239.513L362.358,237.812L360.997,238.14L360.097,237.723L359.616,237.812L358.654,237.511L357.882,238.246L357.356,238.335L354.367,237.422L353.406,236.704L352.852,236.589L352.326,236.022L351.384,236.048L350.573,235.57L349.756,235.854L348.555,235.854L347.673,236.5L346.997,236.704L346.267,236.155L345.562,235.978L344.726,236.456L343.914,236.5L342.492,237.05L341.149,236.704L338.346,235.286L338.121,232.53L336.698,232.645L335.833,232.317L331.793,229.02L328.646,227.913L328.646,227.913L331.451,225.381L331.501,224.653L331.161,224.132L331.183,223.691L332.054,221.963L333.661,221.07L333.682,220.203L332.718,219.83L332.577,219.492L332.973,218.705L333.014,217.199L333.909,216.785L335.049,216.915L335.608,217.517L336.211,217.199L336.474,216.574L336.45,215.795L337.323,214.507L337.51,212.309L338.243,211.484L338.916,209.77L339.738,209.106L340.364,209.23L340.909,209.854L341.556,209.662L341.848,208.69L342.736,208.086L342.257,207.212L342.499,206.491L342.866,206.145L343.976,206.224L344.806,205.509L345.336,205.972L346.266,208.205L346.957,208.336L348.422,209.415L349.488,209.655L351.354,208.689L352.12,209.269L352.533,210.158L353.49,210.921L354.284,211.067L354.844,212.287L355.307,212.227L356.47,213.034L357.402,212.85L358.117,213.458L359.345,213.457L359.608,213.074L359.476,212.075L359.666,211.501L360.753,210.757L361.899,210.764L363.523,209.799L364.508,208.856L365.721,208.613L368.58,207.279L370.551,207.366L372.564,205.776L373.131,206.372L374.446,205.672L374.925,205.797L375.212,206.172L376.293,206.414L376.469,205.995L376.321,204.583L376.615,204.252L376.836,204.267L377.138,204.921L379.145,204.251L380.792,203.191L381.453,203.162L382.284,203.735L383.042,203.683L384.023,202.54L385.473,201.619L386.024,201.867L385.989,202.405L386.74,202.339L386.989,201.925L386.636,201.226L386.71,200.925L387.459,200.232L389.927,200.059L391.063,199.328L391.012,198.902L390.66,198.615L389.872,198.882L389.521,198.758L389.369,198.408L389.493,198.132L389.931,198.018L390.141,197.24L390.59,196.725L390.941,196.773L391.813,198.435L392.237,198.271L391.971,197.22L392.446,197.005L395.022,197.753L395.469,198.759L396.015,199.168L397.56,199.353L398.178,201.123L399.494,201.301L399.475,201.918L398.986,202.898L401,202.758L401.443,203.322L402.245,203.238L402.892,203.264L403.267,203.3L404.27,202.266L406.049,202.317L406.443,201.551L407.818,201.568L408.447,200.764L409.943,200.326L414.314,200.326L414.883,199.423L415.185,199.466L415.709,200.17L416.069,200.206L416.406,199.771L417.355,199.87L417.876,199.537L420.132,199.169L420.535,198.667L420.502,197.711L421.197,196.679L421.325,195.561L420.589,195.328L420.261,194.094L420.708,193.599L420.967,192.002L421.391,191.177L421.949,191.153L422.257,190.74L422.168,190.482L421.786,190.58L421.726,190.241L422.601,190.025L423.24,190.067L423.696,190.08L424.693,189.172L425.209,189.214L425.545,188.632L425.884,188.69L426.327,189.336L427.488,188.994L427.147,188.09L427.44,187.986z"/>
		<path id="CD-SK" title="Sud-Kivu" class="land" d="M542.597,418.516L542.169,419.607L542.273,420.957L543.766,426.398L543.52,428.061L540.93,432.271L540.022,432.644L538.418,432.604L536.808,435.28L535.418,435.202L534.675,435.492L533.968,436.695L533.848,437.417L534.055,438.167L534.62,438.734L533.528,440.228L534.752,441.555L535.006,443.65L534.775,444.487L536.972,445.776L538.058,445.94L538.641,446.406L539.192,447.521L538.167,448.307L538.308,449.362L539.099,449.689L539.723,449.471L540.32,450.41L541.094,451.259L540.964,452.063L541.216,452.676L542.234,452.978L543.492,453.922L543.493,455.093L544.622,455.938L545.678,456.017L546.255,456.871L546.421,457.373L546.467,458.87L546.017,459.14L545.438,460.265L545.236,461.512L545.354,462.64L545.798,463.777L544.778,464.458L544.555,465.046L544.657,466.747L545.574,470.771L545.85,473.088L545.982,475.682L545.545,480.413L545.954,483.119L546.582,485.266L547.226,486.244L548.596,487.48L549.263,488.416L549.9,490.288L550.255,492.708L550.752,503.228L550.498,504.356L548.871,507.89L548.601,509.407L548.92,514.348L550.011,519.043L550.011,519.043L533.042,519.025L533.042,519.025L529.15,519.025L529.15,519.025L524.443,510.813L520.979,503.045L517.515,498.73L514.483,496.143L512.318,493.554L504.957,494.417L503.225,493.123L499.76,491.829L497.162,488.379L490.666,487.085L485.036,487.085L482.005,486.654L478.541,484.93L476.376,482.773L475.51,476.307L477.675,464.24L469.014,443.565L468.147,438.829L469.447,431.94L472.045,431.08L474.644,431.08L481.572,433.232L485.902,431.511L486.336,428.497L488.501,426.345L490.666,425.484L493.697,425.484L495.862,425.054L495.862,425.054L498.894,425.054L498.894,425.054L504.091,425.054L505.822,426.775L507.122,427.206L509.72,427.206L514.051,425.914L517.082,422.901L518.814,420.749L520.546,422.041L521.846,424.192L524.877,423.762L526.176,421.61L529.641,418.167L531.806,414.725L535.27,415.154L535.703,416.876L538.734,418.167z"/>
		<path id="CD-TG" title="Tanganyika" class="land" d="M500.689,622.774L501.604,620.429L503.66,619.515L503.889,616.773L502.061,614.717L499.775,613.574L497.262,612.203L494.749,611.29L493.606,608.776L493.149,603.293L492.692,601.236L486.295,600.779L480.126,601.693L478.526,603.293L473.271,603.75L468.017,603.521L466.188,602.379L463.676,601.465L458.877,601.693L455.45,600.094L453.394,596.438L454.079,593.696L455.45,591.412L454.079,588.213L451.794,586.385L448.596,585.699L445.854,584.101L444.026,582.958L442.884,579.53L441.741,577.018L439.913,573.59L439.228,570.392L440.37,566.735L441.513,564.68L443.341,563.994L444.026,562.623L444.3,559.194L446.412,559.452L447.113,559.017L447.773,557.478L446.367,554.685L446.322,553.822L447.549,551.893L447.175,546.816L447.639,543.955L447.549,543.483L444.71,540.827L444.14,539.636L444.124,538.774L444.569,537.521L446.643,535.168L444.54,531.49L445.662,528.312L448.574,524.422L450.35,520.791L450.526,519.025L516.255,519.025L533.042,519.025L550.011,519.043L552.172,525.501L555.092,532.292L556.561,536.791L557.301,540.264L557.578,543.591L557.349,546.38L556.644,549.815L556.68,555.703L557.179,559.08L559.106,564.242L562.041,568.729L563.483,570.507L567.156,573.693L572.886,577.785L576.048,581.128L577.805,583.741L581.66,590.992L583.71,596.461L587.47,604.268L591.04,614.528L591.942,615.15L593.829,618.68L594.396,621.089L594.97,622.363L574.111,625.186L570.16,625.318L556.715,627.266L558.038,625.06L558.952,623.231L561.237,621.175L561.923,617.977L560.78,614.549L558.724,613.407L554.84,612.265L553.926,611.122L552.098,609.294L549.356,608.837L545.929,611.122L541.816,611.579L539.531,612.493L537.018,614.549L534.962,615.691L532.22,615.463L530.393,612.95L528.564,609.294L526.279,607.238L522.396,606.096L519.196,607.01L518.054,609.065L520.339,611.351L521.481,613.636L520.567,618.434L519.653,624.146L517.597,626.659L515.541,625.745L513.256,626.888L511.428,629.857L508.687,630.771L507.087,627.801L503.889,624.374z"/>
	</g>
</svg>