<?xml version="1.0" encoding="utf-8"?>
<!-- (c) ammap.com | SVG map of French Polynesia - High -->
<svg xmlns="http://www.w3.org/2000/svg" xmlns:amcharts="http://amcharts.com/ammap" xmlns:xlink="http://www.w3.org/1999/xlink" version="1.1">
	<defs>
		<style type="text/css">
			.land
			{
				fill: #CCCCCC;
				fill-opacity: 1;
				stroke:white;
				stroke-opacity: 1;
				stroke-width:0.5;
			}
		</style>

		<amcharts:ammap projection="mercator" leftLongitude="-153.5019066" topLatitude="-7.8955619" rightLongitude="-138.6091323" bottomLatitude="-27.652409"></amcharts:ammap>

		<!-- All areas are listed in the line below. You can use this list in your script. -->
		<!--{id:"PF-MI"},{id:"PF-TI"},{id:"PF-TG"},{id:"PF-LI"},{id:"PF-WI"}-->

	</defs>
	<g>
		<path id="PF-MI" title="Marquesas Islands" class="land" d="M650.15,106.21L650.82,104.92L650.81,103.32L650.16,102.03L649.6,101.65L649,101.49L647.65,101.45L648.34,102.76L648.42,103.39L647.82,104.8L647.86,105.55L648.18,106.2L648.75,106.55L650.15,106.21zM630.67,83.93L631.59,82.35L632.13,81.76L632.37,81.65L632.77,81.6L632.96,81.48L633.05,81.34L633.14,81.15L633.24,80.99L633.39,80.92L633.53,80.75L633.22,80.36L632.67,79.98L632.13,79.8L631.27,79.34L630.59,80L630.05,80.98L629.62,81.48L629.85,82.26L629.7,83.06L629.65,83.84L630.18,84.54L630.67,83.93zM640.44,73.84L639.48,73.61L638.65,73.55L637.78,73.35L637.03,73L636.58,72.46L636.09,71.59L634.84,71.38L633.39,71.67L629.87,73.7L628.61,74.12L628.46,74.66L628.58,75.31L628.8,75.85L629.12,76.34L629.66,76.9L630.36,77.36L632.01,77.72L632.58,77.96L632.96,77.93L633.24,77.25L633.24,75.98L633.46,75.86L633.93,75.82L634.4,75.86L634.62,75.98L635.08,76.09L637.26,76.13L638.84,75.99L639.83,75.75L640.75,75.37L642.81,73.61L642.99,73.23L642.07,73.3L641.84,73.43L641.61,73.62L641.31,73.81L640.86,73.89L640.44,73.84zM592.85,57.11L591.92,56.17L590.92,56.29L590.12,56.86L589.39,57.58L588.61,58.16L590.52,60.86L591.27,61.26L592.48,60.79L593.05,59.64L593.38,58.25L593.91,57.01L593.35,57.3L592.85,57.11zM611.92,37.56L611.63,37.11L611.33,37.11L609.97,38.64L610.14,39.27L610.47,39.85L610.69,40.44L610.52,41.05L611.08,40.34L611.78,40.04L613.56,39.9L614.3,39.71L614.91,39.32L615.12,38.79L614.66,38.17L613.35,37.49L612.88,37.39L612.24,37.61L611.92,37.56zM586.26,33.96L585.01,34.2L584.47,35.69L584.56,35.99L584.93,36.32L585.02,36.68L585.11,37.48L585.53,39.36L585.82,39.94L586.66,40.44L587.17,40.89L587.62,41.03L587.81,40.34L588.16,40.04L589.77,39.5L590.27,39.06L590.57,39.06L591.14,39.61L591.93,39.45L592.58,38.83L592.78,37.95L593.76,38.6L594.25,38.68L594.46,38.06L594.38,37.17L594.13,36.65L593.03,35.69L593.43,35.03L593.72,34.69L593.83,34.59L593.91,34.48L593.91,34.29L593.51,34.42L592.95,34.76L592.64,34.82L591.4,34.82L586.26,33.96zM567.81,0L566.46,0.53L565.6,1.69L565.62,3.18L566,3.72L566.4,3.66L566.77,3.22L567.03,2.65L567.37,1.44L567.71,1.09L568.41,0.95L568.62,0.84L569.21,0.39L567.81,0z"/>
		<path id="PF-TI" title="Austral Islands" class="land" d="M420.19,841.3L420.63,841.25L420.96,840.9L421.25,840.37L421.13,840.34L421,839.45L420.97,839.41L421.09,839.21L421.62,838.7L421.8,838.47L421.55,838.06L421.22,837.73L420.42,837.2L419.55,837.56L419.2,838.76L419.26,840.12L419.59,840.96L420.19,841.3zM284.91,672.01L285.2,671.85L285.44,671.67L285.62,671.43L285.76,671.13L284.14,671.25L283.41,671.43L282.67,671.71L282.67,672.01L283.14,672.26L283.69,672.29L284.91,672.01zM212.35,651L212.85,650.36L212.62,649.66L211.6,649.33L210.5,649.41L210,649.55L209.78,649.78L209.86,650.48L210.1,650.97L210.55,651.21L212.35,651zM135.29,612.24L135.54,612.02L135.75,610.87L135.81,609.77L135.68,609.37L135.34,608.79L134.93,608.31L134.56,608.27L134.15,609.14L134.39,610.11L134.82,611.17L134.99,612.29L135.17,612.3L135.29,612.24zM0.78,581.36L0.75,581.18L0.68,581.05L0.62,581L0.47,581.04L0.54,581.2L0.71,581.39L0.78,581.36z"/>
		<path id="PF-TG" title="Tuamotu-Gambier" class="land" d="M799.22,637.85L799.53,637.26L798.62,637.57L797.3,638.7L796.44,638.76L796.44,639.09L797.04,639.48L797.41,639.62L797.85,639.69L799.22,637.85zM749.68,591.12L750.08,590.88L750.15,590.53L750.17,590.41L749.27,591.32L749.68,591.12zM641.55,584.21L640.68,584.17L639.85,583.97L639.03,583.89L638.21,584.21L641.55,584.21zM570.62,577.05L569.38,575.05L568.61,574.45L567.85,574.96L567.7,576.27L568.41,577.3L569.53,577.69L570.62,577.05zM778.24,568.46L777.61,567.91L776.85,567.6L775.96,567.49L778.72,569.27L778.24,568.46zM741.42,566.27L740.95,566.15L740.41,566.32L740.06,566.81L740.4,566.55L740.77,566.44L741.16,566.47L741.53,566.68L741.42,566.27zM735.37,561.53L735.52,561.02L735.26,560.72L734.56,560.96L734.85,561.05L735.12,561.2L735.18,561.49L734.82,561.96L735.37,561.53zM730.98,560.8L730.91,560.51L730.74,560.36L730.43,560.36L730.63,560.55L731.05,561.17L730.98,560.8zM726.85,560.23L726.91,560.11L726.82,560.1L726.66,560.05L726.58,560.07L726.76,560.24L726.85,560.23zM726.91,559.34L726.62,559.34L726.36,559.74L726.62,559.51L726.77,559.56L726.89,559.74L727.08,559.89L727.15,559.97L727.17,560.05L727.21,560.12L727.3,560.15L727.17,559.64L726.91,559.34zM629.62,537.89L629.74,537.84L629.99,537.69L629.97,537.69L629.49,537.91L629.62,537.89zM653.96,536.85L653.71,536.83L653.49,536.88L653.09,537.04L652.92,537.19L653.66,536.95L653.88,537.04L654.04,537.26L654.98,539.83L654.9,540.34L654.27,541.03L655.17,540.2L654.89,538.33L653.96,536.85zM578.88,488.64L579.36,488.44L579.7,488.08L579.78,487.55L579.53,487.08L579.05,486.65L578.55,486.43L578.29,486.6L579.26,487.23L579.39,487.72L578.98,488.18L578.35,488.73L578.88,488.64zM627.54,475.26L627.54,474.88L627.26,474.62L626.78,474.61L627.07,474.73L627.17,474.9L627.21,475.1L627.29,475.3L627.17,475.66L627.54,475.26zM643.89,472.44L643.77,472.34L643.46,472.36L643.06,472.43L643.17,472.58L643.31,472.65L643.69,472.71L643.89,472.44zM545,468.57L544.38,468.4L543.82,469L544.29,468.82L544.77,468.94L545.14,469.34L545.27,470.01L545.39,469.2L545,468.57zM566.87,465.39L565.84,466.01L566.56,465.82L567.47,465.94L567.93,466.39L567.29,467.2L568.3,466.81L567.93,465.92L566.87,465.39zM643.82,450.63L643.75,450.49L643.49,450.25L642.92,450.09L642.63,450.04L642.35,450.02L643.83,450.83L643.82,450.63zM738.23,437.41L737.43,437.73L737.66,437.84L737.78,437.99L737.87,438.16L738.01,438.34L737.97,438.17L737.96,437.84L738.13,437.6L738.63,437.73L740.5,438.79L740.84,439.11L741.05,439.37L741.29,439.56L741.66,439.73L742.88,440.1L743.38,440.32L743.75,440.58L744,440.91L744.12,441.25L744.13,441.53L744.1,441.73L744.08,441.8L744.46,440.88L743.42,440.11L741.32,439.36L740.77,438.69L739.55,437.88L738.23,437.41zM567.59,434.8L567.24,434.27L564.45,432.7L563.41,431.91L563.51,432.09L563.89,432.55L564.62,433.13L566.92,434.26L567.49,434.77L567.74,435.26L567.85,435.4L567.59,434.8zM717.04,431.94L715.93,430.59L714.63,429.45L713.61,428.97L717.5,433.05L717.04,431.94zM561.47,425.74L560.6,424.85L559.55,424.05L558.69,423.13L557.62,421.25L556.03,420.47L555.66,420.2L557.41,421.71L557.9,422.24L558.81,423.98L560.72,425.41L561.76,426.91L561.47,425.74zM470.79,410.86L470.44,410.74L469.99,411.41L470.19,411.63L470.38,411.59L470.57,411.36L470.77,411.03L470.87,411.49L471.09,411.85L471.27,412.02L471.29,411.94L470.79,410.86zM562.84,411.81L563.27,411.63L564.37,410.49L565.62,409.44L567.58,408.31L568.81,406.76L569.61,406.1L569.96,405.18L569.77,404.36L568.66,404.23L567.85,404.81L564.87,406.15L563.39,407.09L562.58,408.57L561.76,409.44L561.29,410.42L561.11,410.99L561.18,411.47L561.55,411.7L562.19,411.82L562.84,411.81zM491.58,400.62L490.79,399.45L489.38,398.4L488.29,397.8L491.3,400.72L490.8,401.56L491.58,400.62zM456.65,393.96L456.01,393.58L455.25,393.41L454.51,393.46L456.01,393.82L456.99,394.59L456.65,393.96zM376.43,393.99L375.87,393.31L375.24,392.9L377.45,395.77L376.43,393.99zM536.98,391.48L536.96,390.93L536.95,390.79L536.59,390.13L535.96,389.83L535.1,389.99L535.69,390L536.24,390.15L536.7,390.48L536.85,390.82L536.92,391.44L536.92,391.57L537,391.72L536.98,391.48zM657.8,390.55L657.56,390.46L657.39,390.43L657.35,390.35L657.51,390.05L658.67,388.99L657.83,389.32L657.27,390.07L657.15,390.35L657.16,390.48L657.25,390.72L658.04,390.75L657.8,390.55zM368.86,388.99L368.84,389.76L368.92,390.38L369.12,390.92L369.44,391.46L368.86,388.99zM471.2,375.62L470.87,375.25L470.48,374.96L470.06,374.8L469.62,374.82L469.76,375L469.92,375.15L470.28,375.43L470.52,375.55L470.75,375.64L470.98,375.66L471.2,375.62zM430.04,363.29L428.95,363.57L428.81,363.9L428.77,364.05L428.8,364.24L429.59,363.49L430.21,363.85L430.73,364.62L431.22,365.07L431.09,364.66L430.72,363.86L430.04,363.29zM426.13,360.68L425.67,360.27L425.26,360.12L425.16,360.39L425.76,360.85L426.08,361.03L426.42,361.18L426.13,360.68zM455.9,359.22L454.92,358.96L451.44,359.28L453.24,359.49L455.35,359.38L458.09,361.29L456.72,359.85L455.9,359.22zM449.06,359.61L446.77,357.86L445.34,357.52L447.02,358.44L448.63,359.69L450.62,359.86L449.06,359.61zM440.43,354.82L440.04,354.06L438.86,352.74L438.23,352.43L436.9,352.24L436.09,352.02L435.93,352.03L436.75,352.33L438.13,352.84L439.39,353.83L440.49,355.71L440.65,355.8L440.43,354.82zM423.11,352.5L422.75,351.69L422.12,350.99L421.5,350.59L422.73,352.05L422.81,352.34L422.9,353.2L423.11,352.5zM416,346.64L415.95,346.56L415.7,346.53L416.05,347.08L416.85,346.92L418.19,347.4L417.81,347.05L417.25,346.73L416.6,346.59L415.98,346.81L416,346.64zM339.1,338.86L338.74,337.84L337.86,337.28L336.74,337.62L336.14,338.53L336.56,339.26L337.55,339.75L338.69,339.91L339.1,338.86zM372.86,347.18L371.93,344.81L370.22,342.87L370.11,342.51L369.86,342.01L369.5,339.83L369.29,339.34L368.84,338.97L368.43,338.13L368.13,337.16L368.01,336.44L368.31,338.51L368.96,339.45L369.51,341.59L370.47,343.68L371.42,344.83L372.52,347.24L373.33,347.71L372.86,347.18zM368.01,335.29L367.31,334.68L366.24,334.86L364.17,335.61L368.01,335.29zM494.69,333.86L494.12,334.59L493.54,335.55L493.04,336.61L492.73,337.62L494.69,333.86zM589.95,331.1L588.89,331.28L588.06,332.11L589.24,331.4L590.29,331.45L590.57,332.11L590.7,331.41L589.95,331.1zM383.94,328.79L383.3,328.37L386.06,330.98L383.94,328.79zM356.5,327.95L355.86,327.33L354.4,326.32L356.48,328.36L356.5,327.95zM560.26,325.49L560.56,325.31L560.19,325.31L559.08,325.49L558.81,325.78L558.83,326.04L559.08,326.22L559.45,326.27L560.26,325.49zM261.87,327.34L262.19,327.05L262.22,326.68L261.86,326.32L261.57,325.98L261.1,324.99L260.92,324.76L260.38,325.07L260.22,325.94L260.53,326.89L261.38,327.49L261.87,327.34zM332.92,325.52L332.88,325.28L332.72,324.8L332.22,324.4L332.05,324.31L332.33,324.63L332.56,325L332.91,325.79L332.92,325.52zM390.46,327.85L390.13,327.02L389.09,325.76L388.08,323.84L387.43,323.11L386.33,322.89L387.58,323.73L389.74,327.12L390.5,328.95L390.46,327.85zM408.18,322.43L408.12,321.97L407.68,321.65L407,321.72L406.92,322.14L407.03,322.52L407.32,322.77L407.74,322.78L408.18,322.43zM375.34,311.58L375.23,311.34L374.88,311.2L374.4,311.2L373.36,311L370.61,310.05L371.65,310.82L374.34,311.29L375.13,311.9L375.34,311.58zM344.55,306.16L344.6,305.61L344.44,305.16L344.29,304.91L344.11,304.83L343.74,304.64L343.61,304.66L344.01,304.87L344.16,304.99L344.38,305.29L344.46,305.66L344.36,306.59L344.19,307.39L344.55,306.16zM328.02,301.86L327.66,301.32L327.17,300.94L326.56,300.84L327.29,301.15L327.73,301.84L328.22,302.48L328.02,301.86zM302.31,300.95L302.16,300.83L301.6,300.84L301.81,300.94L302,301.02L302.18,301.11L302.36,301.33L302.31,300.95zM281.63,300.68L281.09,300.29L280.66,300.04L280.46,300.16L282.15,300.95L281.63,300.68zM292.04,294.91L291.3,294.36L290.49,293.99L291.25,294.45L293.4,296.18L292.04,294.91zM274.08,293.88L274.03,294.07L274.08,294.19L274.18,294.32L274.27,294.48L274.08,293.88zM269.3,289.42L267.92,288.45L266.1,287.97L264.4,287.84L267.04,288.6L268.11,289.22L268.84,289.89L269.32,290.46L269.67,291L269.3,289.42zM246.34,285.99L245.62,285.45L244.52,285.1L243.59,284.98L245.32,285.73L246.12,286.69L246.34,285.99zM382.73,277.32L383.55,275.22L382.59,277.01L382.16,278.14L382.3,278.65L383.02,278.48L383.82,278.06L384.53,277.51L384.95,276.96L383.39,278.06L382.53,278.27L382.73,277.32zM342.84,269.32L343.02,268.39L342.56,267.65L341.43,267.5L342.71,268.35L342.46,269.19L342.01,270.09L342.84,269.32zM354.67,267.76L355.12,267.62L355.53,267.42L355.1,267.58L353.76,267.82L354.22,267.83L354.67,267.76zM397.7,266.51L397.48,266.35L396.99,266.53L396.16,266.95L394.36,267.11L393.44,267.36L392.71,267.81L394.62,267.35L396.35,267.19L397.36,266.77L396.45,267.67L394.67,268.67L392.71,270.66L393.41,270.22L394.67,268.93L395.07,268.66L395.47,268.51L396.77,267.77L397.55,267.16L397.66,266.94L397.7,266.51zM359.05,263.62L358.12,263.4L355.86,263.79L358.05,263.68L358.76,263.79L358.6,264.64L359.05,263.62zM547.53,257.24L546.39,256.42L545.98,256.21L546.93,257.26L547.33,257.52L547.53,257.24z"/>
		<path id="PF-LI" title="Leeward Islands" class="land" d="M32.12,368.13L32.01,367.67L31.78,367.08L31.56,366.68L31.53,366.25L31.41,365.92L31.2,365.71L30.88,365.68L31.19,366.26L31.59,367.59L31.95,368.13L32.12,368.13zM151.03,366.8L151.08,366.28L151.05,365.93L150.8,365.49L150.43,365.18L150.11,365.13L149.97,365.49L149.76,365.61L149.28,365.64L148.81,365.82L148.59,366.36L148.68,366.77L148.94,367.05L149.67,367.66L150,367.65L150.25,367.55L150.41,367.36L150.5,367.09L150.86,367.18L151.03,366.8zM135.48,369.6L135.95,369.26L133.51,365.93L133.05,364.9L132.78,364.58L132.15,364.27L131.41,364.1L130.84,364.18L130.34,364.69L130.2,365.29L130.47,369.17L130.88,370.57L131.67,371.12L132.04,371.14L132.39,371.06L132.65,370.91L132.75,370.68L132.84,370.25L133.05,370.25L133.47,370.54L133.99,370.39L135.48,369.6zM148.82,365.21L149.23,364.91L149.54,364.62L149.82,364.49L149.9,364.27L149.14,362.91L149.03,362.25L148.78,362.32L148.5,362.8L148.12,363.83L148.02,364.33L148.05,364.83L148.29,365.35L148.82,365.21zM130.93,357.94L131.09,357.52L129.88,357.51L129.03,357.62L128.52,358.13L128.33,359.65L128.35,359.88L128.58,360.1L130.77,361.09L131.09,361.29L131.47,361.47L131.61,360.92L131.67,359.57L132.08,359.36L132.37,359.18L132.5,358.96L132.46,358.74L132.25,358.44L132.2,358.24L132.02,358.12L131.62,358.07L130.84,358.1L130.93,357.94zM119.94,354.31L119.73,353.44L119.32,352.96L118.65,353.2L118.48,353.83L118.79,354.62L119.36,355.21L120,355.22L119.94,354.31zM99.87,351.75L99.19,351.66L99.11,351.9L99.4,352.07L99.87,351.75zM7.89,325.64L8.01,325.38L7.97,324.92L7.9,324.47L7.67,324.21L7.18,324.33L7.56,324.44L7.78,324.67L7.84,325.01L7.73,325.47L7.51,325.8L7.64,325.82L7.89,325.64z"/>
		<path id="PF-WI" title="Windward Islands" class="land" d="M164.75,403.46L164.63,403.01L164.15,403.57L164.56,403.96L164.75,403.46zM218.79,405.41L217.84,404.23L217.73,403.36L217.84,400.56L217.75,399.8L217.51,399.13L217.17,398.56L216.76,398.11L215.41,397.18L213.71,396.48L211.87,396.16L210.08,396.35L208.27,396.84L206.64,397.51L205.49,398.68L205.11,400.69L205.26,401.46L205.57,402.32L205.96,403.04L206.34,403.33L206.61,403.7L207.32,406.22L207.78,406.49L210.08,406.86L211.35,407.36L211.99,407.47L212.87,407.41L215.23,406.65L216.05,406.54L216.27,406.35L216.42,405.97L216.62,405.66L217.01,405.67L217.19,405.95L217.56,407.41L218.6,409.3L219.92,411.05L220.53,411.34L222.73,411.97L223.39,412.08L224.76,411.11L225.05,409.23L224.59,407.31L223.66,406.22L220.43,405.87L218.79,405.41zM199.31,395.53L199.29,395.09L198.86,394.9L198.29,394.91L197.8,394.99L197.45,395.26L197.33,395.77L196.88,395.48L196.56,395.53L196.3,395.7L195.98,395.77L195.9,395.89L195.59,396.07L195.26,396.06L195.1,395.63L194.78,395.24L194.06,395.29L193.31,395.63L192.89,396.09L193.17,396.94L194.12,397.91L195.29,398.76L196.23,399.25L197,399.28L197.82,398.52L198.54,397.4L199.31,395.53zM207.94,374.71L208.1,374.49L207.95,374.5L207.79,374.55L207.48,374.69L207.38,374.97L207.34,375.1L207.35,375.26L207.94,374.71z"/>
	</g>
</svg>
