<?xml version="1.0" encoding="utf-8"?>
<!-- (c) ammap.com | SVG map of Macao - Low -->
<svg xmlns="http://www.w3.org/2000/svg" xmlns:amcharts="http://amcharts.com/ammap" xmlns:xlink="http://www.w3.org/1999/xlink" version="1.1">
	<defs>
		<style type="text/css">
			.land
			{
				fill: #CCCCCC;
				fill-opacity: 1;
				stroke:white;
				stroke-opacity: 1;
				stroke-width:0.5;
			}
		</style>

		<amcharts:ammap projection="mercator" leftLongitude="113.5287411" topLatitude="22.2170639" rightLongitude="113.5981886" bottomLatitude="22.1097693"></amcharts:ammap>

		<!-- All areas are listed in the line below. You can use this list in your script. -->
		<!--{id:"MO-01"},{id:"MO-02"}-->

	</defs>
	<g>
		<path id="MO-01" title="Macao" class="land" d="M182.85,0L140.67,76.44L15.08,102.25L49.76,164.51L122.87,124.53L140.67,164.51L0.29,460.57L49.94,546.19L149.11,474.27L180.47,474.27L142.87,394.43L186.03,395.17L195.22,473.66L328.13,388.23L318.75,309.78L392.8,227.79L300.95,261.7L331.96,191.98L389.05,214.12L354.37,115.41L182.85,0z"/>
		<path id="MO-02" title="Taipa, Cotai, and Coloane" class="land" d="M130.79,1041.96L137.51,1183.63L204.3,1226.38L214.2,1033.75L130.79,1041.96zM301.72,1360.5L364.63,1317.16L511.75,1325.82L474.41,1261.32L507.89,1187.79L732.23,1121.93L697.64,1041.51L593.71,1041.07L631.07,948.01L549.79,1000.32L561.66,926.4L681.71,942.83L678.23,890.19L559.64,811.47L520.95,827.27L552.17,793.29L699.83,891.76L756.29,1053.16L799.71,1044.38L674.71,670.63L576.65,717.52L631.97,689.54L586.78,607.1L572.25,702.96L570.23,642.31L514.54,668.79L538.17,599.2L487.25,683.99L322.56,654.82L151.27,692.73L116.68,661.39L148.77,795.71L230.15,877.59L244.53,846.48L265.79,928.7L233.9,1311.34L301.72,1360.5z"/>
	</g>
</svg>