<?xml version="1.0" encoding="utf-8"?>
<!-- (c) ammap.com | SVG map of Mauritius - High -->
<svg xmlns="http://www.w3.org/2000/svg" xmlns:amcharts="http://amcharts.com/ammap" xmlns:xlink="http://www.w3.org/1999/xlink" version="1.1">
	<defs>
		<style type="text/css">
			.land
			{
				fill: #CCCCCC;
				fill-opacity: 1;
				stroke:white;
				stroke-opacity: 1;
				stroke-width:0.5;
			}
		</style>

		<amcharts:ammap projection="mercator" leftLongitude="57.300567627" topLatitude="-19.9736714582" rightLongitude="57.8155517578" bottomLatitude="-20.5344343112"></amcharts:ammap>
        
		<!-- All areas are listed in the line below. You can use this list in your script. -->
		<!--{id:"MU-PW"},{id:"MU-PL"},{id:"MU-SA"},{id:"MU-RN"},{id:"MU-RR"},{id:"MU-PA"},{id:"MU-MO"},{id:"MU-GP"},{id:"MU-FL"}-->

	</defs>
	<g>
		<path id="MU-PW" title="Plaines Wilhems" class="land" d="M249.6,478.29L253.24,538.5L254.69,562.57L259.92,592.31L272.46,604.2L275.61,607.18L268.64,618.34L245.98,618.34L235.52,629.49L244.23,664.82L254.69,692.72L239,705.74L252.95,724.33L284.33,731.77L300.02,741.07L298.28,767.12L324.43,770.84L334.89,735.49L338.37,720.61L362.78,724.33L376.73,735.49L394.16,731.77L481.32,629.49L446.46,605.33L430.77,575.58L437.74,553.28L409.85,516.1L394.16,493.8L362.78,490.09L324.43,454.78L301.76,397.19L296.53,365.61L272.13,361.89L257.76,387.18L254.02,414.25L248.25,456.09L249.6,478.29z"/>
		<path id="MU-PL" title="Port Louis" class="land" d="M394.56,384.67L401.13,339.61L395.9,269.04L383.7,246.76L354.06,254.18L318.26,248.38L309.44,246.96L304.42,278.9L276.67,307.74L260.82,314.78L263.3,325.12L272.13,361.89L296.53,365.61L327.91,354.46L348.83,363.75L381.96,380.47L394.56,384.67z"/>
		<path id="MU-SA" title="Savanne" class="land" d="M325.29,930.78L462.95,909.06L532.08,886.92L528.39,867.59L523.16,828.51L502.24,770.84L472.61,737.35L439.48,729.91L394.16,731.77L376.73,735.49L362.78,724.33L338.37,720.61L334.89,735.49L324.43,770.84L298.28,767.12L279.1,755.96L244.23,767.12L211.11,780.14L172.76,809.9L143.12,819.21L143.12,854.56L160.56,871.31L155.92,897.21L200.84,902.29L276.67,926.83L325.29,930.78z"/>
		<path id="MU-RN" title="Rivière Noire" class="land" d="M263.3,325.12L260.82,314.78L225.68,324.91L210.09,332.51L174.16,362.64L170.85,367.98L157.38,382.34L120.52,455.83L109.42,485.97L101.89,538.36L100.31,633.88L87.23,676.15L104.93,686.16L106.78,703.91L98.32,752.54L88.55,774.96L66.35,779.19L26.19,770.87L0.43,781.02L7.56,804.14L28.17,828.25L121.58,912.87L155.92,897.21L160.56,871.31L143.12,854.56L143.12,819.21L172.76,809.9L211.11,780.14L244.23,767.12L279.1,755.96L298.28,767.12L300.02,741.07L284.33,731.77L252.95,724.33L239,705.74L254.69,692.72L244.23,664.82L235.52,629.49L245.98,618.34L268.64,618.34L275.61,607.18L272.46,604.2L259.92,592.31L254.69,562.57L253.24,538.5L249.6,478.29L248.25,456.09L254.02,414.25L257.76,387.18L272.13,361.89L263.3,325.12z"/>
		<path id="MU-RR" title="Rivière du Rempart" class="land" d="M493.34,0L476.16,5.48L466.39,17.71L459.25,29.94L449.87,35.43L498.76,94.56L502.24,116.83L491.78,140.95L538.85,189.21L512.7,220.77L531.88,304.32L698.77,201.65L692.43,199.97L673.27,203.06L666.67,201.65L658.48,190.96L654.25,170.99L640.51,146.23L628.22,117.26L616.73,100.81L610.39,84.36L619.5,54.55L611.18,35.43L591.76,25.3L518.97,3.94L493.34,0z"/>
		<path id="MU-PA" title="Pamplemousses" class="land" d="M531.88,304.32L512.7,220.77L538.85,189.21L491.78,140.95L502.24,116.83L498.76,94.56L449.87,35.43L428.07,37.11L416.98,42.17L372.19,78.45L365.06,88.86L355.15,107.42L335.07,169.3L310.49,214.74L309.44,246.96L318.26,248.38L354.06,254.18L383.7,246.76L395.9,269.04L401.13,339.61L394.56,384.67L409.85,389.76L437.74,378.61L470.86,356.32L494.59,355.09L497.01,339.61L524.91,321.03L531.88,304.32z"/>
		<path id="MU-MO" title="Moka" class="land" d="M394.56,384.67L381.96,380.47L348.83,363.75L327.91,354.46L296.53,365.61L301.76,397.19L324.43,454.78L362.78,490.09L394.16,493.8L409.85,516.1L437.74,553.28L430.77,575.58L446.46,605.33L481.32,629.49L537.11,631.35L573.72,620.2L592.89,603.47L610.33,538.41L530.14,471.5L582.43,419.48L526.65,376.75L493.53,361.89L494.59,355.09L470.86,356.32L437.74,378.61L409.85,389.76L394.56,384.67z"/>
		<path id="MU-GP" title="Grand Port" class="land" d="M771.03,562.59L735.84,558.85L688.78,596.03L626.02,601.61L592.89,603.47L573.72,620.2L537.11,631.35L481.32,629.49L394.16,731.77L439.48,729.91L472.61,737.35L502.24,770.84L523.16,828.51L528.39,867.59L532.08,886.92L599.03,865.48L619.37,851.52L631.79,834.03L653.59,794.55L662.44,789.48L672.74,790.04L681.99,786.8L687.67,770.87L686.48,761.42L677.76,746.62L676.58,734.36L664.02,705.75L691.64,665.02L736.82,629.37L776.45,616.12L767.34,589.64L771.03,562.59z"/>
		<path id="MU-FL" title="Flacq" class="land" d="M799.57,420.64L792.44,402.33L761.26,364.89L745.67,315.63L728.89,302.12L716.34,284.1L721.63,228.24L716.87,217.13L698.77,201.65L531.88,304.32L524.91,321.03L497.01,339.61L494.59,355.09L493.53,361.89L526.65,376.75L582.43,419.48L530.14,471.5L610.33,538.41L592.89,603.47L626.02,601.61L688.78,596.03L735.84,558.85L771.03,562.59L788.47,509.63L796.66,462.17L799.57,420.64z"/>
	</g>
</svg>
