<?xml version="1.0" encoding="utf-8"?>
<!-- (c) ammap.com | SVG map of Mayotte - Low -->
<svg xmlns="http://www.w3.org/2000/svg" xmlns:amcharts="http://amcharts.com/ammap" xmlns:xlink="http://www.w3.org/1999/xlink" version="1.1">
	<defs>
		<style type="text/css">
			.land
			{
				fill: #CCCCCC;
				fill-opacity: 1;
				stroke:white;
				stroke-opacity: 1;
				stroke-width:0.5;
			}
		</style>

		<amcharts:ammap projection="mercator" leftLongitude="45.0181707" topLatitude="-12.6364115" rightLongitude="45.2999739" bottomLatitude="-13.0055279"></amcharts:ammap>

		<!-- All areas are listed in the line below. You can use this list in your script. -->
		<!--{id:"YT"}-->

	</defs>
	<g>
		<path id="YT" title="Mayotte" class="land" d="M685.01,430.66L670.1,419.54L687.03,439.9L717.58,454.77L740,511.65L764.95,525.27L757.8,484.71L789.38,465.97L784.23,438.59L799.62,432.44L783.23,383.04L755.28,355.39L698.8,423.57L726.41,406.73L707.07,443.29L691.97,431.9L698.21,424.34L685.01,430.66zM368.21,1058.34L397.52,1022.78L391.03,1000.42L420.82,986.23L436.5,995.39L446.52,1042.15L457.2,1041.81L460.74,1015.51L498.84,1021.58L528.37,985.29L503.86,986.91L454.28,958.12L428.2,903.77L439.58,888.37L457.49,893.24L448.73,860.4L479.23,815.96L540.94,828.62L512.22,810.61L511.08,756.21L567.06,726.19L561.61,713.54L578.76,686.6L555.03,687.51L550.82,658.35L506.38,631.77L493.43,591.41L512.93,564.75L499.67,555.05L563.14,481.11L564.87,460.94L605.5,431.12L624.27,431.85L611.75,405.85L593.55,400.48L603.94,368.85L612.92,386.21L602.66,397.97L630.04,368.19L620.33,338.2L589.66,310.51L552.47,299.25L558.42,277.49L549.48,287.25L521.26,269.06L439.95,263.4L419.96,235.03L421.6,254.97L412,251.3L386.67,285.49L369.78,265.67L326.22,266.51L299.92,212.96L319.3,185.4L274.37,172.08L266.47,143.96L237.43,134.4L246.49,115.94L200.19,100.34L250.07,72.2L238.21,64.97L246.07,40.04L227.46,61.96L211.21,59.72L211.86,78.42L182.64,100.19L179.9,128.71L136.78,129.5L156.05,143.11L154.72,160.12L124.42,189.54L94.79,184.49L90.61,216.18L62.18,252L104.18,252.38L112.57,266.24L68.96,312.93L73.26,327.99L94.49,347.89L119.53,333.98L158.06,374.06L179.66,371.25L209.2,392.1L229.02,373.7L238.4,379.16L235.68,419.87L214.52,429.89L224.6,452.48L255.17,454.72L231.64,479.91L248.98,528.74L233.87,574.25L279.1,597.98L238.84,601.94L211.03,629.13L244.17,659.47L262.76,660.65L298.52,713.36L338.26,738.8L373.99,821.65L358.23,864.81L327.79,870.81L248.49,833.67L231.84,762.99L150.33,763.92L199.97,840.1L195.31,853.63L227.17,840.46L243.82,862.49L216.63,922.19L171.63,948.42L210.43,961.68L244.43,937.11L257.9,944.67L247.14,1021.96L257.28,1040.56L263.85,1015.59L287.85,1001.06L303.41,1007.37L306.38,1045.43L333.58,1031.29L351.84,1057.01L368.21,1058.34zM24.63,0L0.38,22.35L34.33,41.99L24.8,62.9L67.3,33.6L54.17,20.92L24.63,0z"/>
	</g>
</svg>
