<?xml version="1.0" encoding="utf-8"?>
<!-- (c) ammap.com | SVG map of Mongolia - Low -->
<svg xmlns="http://www.w3.org/2000/svg" xmlns:amcharts="http://amcharts.com/ammap" xmlns:xlink="http://www.w3.org/1999/xlink" version="1.1">
	<defs>
		<style type="text/css">
			.land
			{
				fill: #CCCCCC;
				fill-opacity: 1;
				stroke:white;
				stroke-opacity: 1;
				stroke-width:0.5;
			}
		</style>

		<amcharts:ammap projection="mercator" leftLongitude="87.737620" topLatitude="52.148696" rightLongitude="119.931949" bottomLatitude="41.581520"></amcharts:ammap>

		<!-- All areas are listed in the line below. You can use this list in your script. -->		<!--{id:"MN-051"},{id:"MN-061"},{id:"MN-1"},{id:"MN-064"},{id:"MN-047"},{id:"MN-037"},{id:"MN-055"},{id:"MN-049"},{id:"MN-059"},{id:"MN-035"},{id:"MN-067"},{id:"MN-046"},{id:"MN-041"},{id:"MN-043"},{id:"MN-065"},{id:"MN-057"},{id:"MN-069"},{id:"MN-073"},{id:"MN-039"},{id:"MN-053"},{id:"MN-063"},{id:"MN-071"}-->

	</defs>
	<g>
		<path id="MN-051" title="Sühbaatar" class="land" d="M716.49,221.74L708.11,210.11L675.06,214.76L663.75,202.25L663.24,189.19L647.57,177.7L619.87,174.48L619.91,166.68L606.11,172.14L605.08,182.43L592.69,186.51L583.76,224.18L593.39,228.94L602.45,264.74L643.39,276.68L665.68,254.23L688.98,253.27L705.62,243.28L716.49,221.74z"/>
		<path id="MN-061" title="Dornod" class="land" d="M716.49,221.74L735.23,219.61L736.62,211.9L746.64,213.75L758.33,206.43L793.33,211.17L798.96,206.59L793.83,190.57L763.39,160.05L745.88,159.91L735.81,172.56L722.44,164.24L699.93,171.34L692.13,163.83L690,154.77L697.09,150.66L717.36,87.99L705.41,83.47L686.87,88.23L671.14,74.89L659.54,73.32L628.72,99.84L605.97,105.52L619.91,166.68L619.87,174.48L647.57,177.7L663.24,189.19L663.75,202.25L675.06,214.76L708.11,210.11L716.49,221.74z"/>
		<path id="MN-1" title="Ulaanbaatar" class="land" d="M470.48,170.35L491.49,172.52L493.01,162.86L481.28,151.53L462.86,150.14L470.48,170.35z"/>
		<path id="MN-064" title="Govĭ-Sümber" class="land" d="M515.65,162.86L508.63,168.89L514.25,176.04L515.65,162.86z"/>
		<path id="MN-047" title="Töv" class="land" d="M516.55,117.54L495.56,120.13L494.84,135.78L485.1,138.86L468.21,139.89L449.91,127.32L430.69,140.76L417.51,136.32L411.56,154.32L421.86,161.7L423.27,172.16L408.28,177.2L408.06,185.51L419.38,217.34L428.38,211.22L439.05,216.68L449.1,206.04L487.27,217.58L502.55,204.56L515.52,204.35L524.16,195.95L514.25,176.04L508.63,168.89L515.65,162.86L529.38,147.71L516.55,117.54zM470.48,170.35L462.86,150.14L481.28,151.53L493.01,162.86L491.49,172.52L470.48,170.35z"/>
		<path id="MN-037" title="Darhan-Uul" class="land" d="M455.01,118.63L473.83,117.24L473.34,102.88L455.01,98.74L457.38,90.83L449.87,98.04L449.26,117.26L455.01,118.63z"/>
		<path id="MN-055" title="Övörhangay" class="land" d="M396.41,187.24L384.39,188.87L371.08,180.6L367.47,197.35L361.49,194.39L336.53,202.98L343.9,216.17L333.5,262.46L344.08,272.99L348.71,300.63L379.6,297.26L385.32,274.67L398.74,261.18L395.11,245.87L405.87,241.54L408.64,228.45L419.38,217.34L408.06,185.51L396.41,187.24z"/>
		<path id="MN-049" title="Selenge" class="land" d="M517.76,109.87L501.82,96.72L502.29,86.6L483.58,83.8L472.52,72.13L437.36,65.55L413.07,73.51L422.6,96.11L417.29,118.23L413.78,126.03L417.51,136.32L430.69,140.76L449.91,127.32L468.21,139.89L485.1,138.86L494.84,135.78L495.56,120.13L516.55,117.54L517.76,109.87zM455.01,118.63L449.26,117.26L449.87,98.04L457.38,90.83L455.01,98.74L473.34,102.88L473.83,117.24L455.01,118.63z"/>
		<path id="MN-059" title="Dundgovi" class="land" d="M496.38,284.87L499.96,274.6L519.05,266.63L518.31,234.81L511.12,232.32L508.86,208.26L502.55,204.56L487.27,217.58L449.1,206.04L439.05,216.68L428.38,211.22L419.38,217.34L408.64,228.45L405.87,241.54L395.11,245.87L398.74,261.18L406.9,261.34L409.43,273.74L441.04,278.29L454.69,295.77L496.38,284.87z"/>
		<path id="MN-035" title="Orhon" class="land" d="M417.29,118.23L404.43,120.69L413.78,126.03L417.29,118.23z"/>
		<path id="MN-067" title="Bulgan" class="land" d="M413.07,73.51L394.52,78.87L370.16,68.57L357.35,86.11L374.26,95.9L347.99,113.37L346.21,122.23L358.05,129.38L363.95,147.31L396.41,187.24L408.06,185.51L408.28,177.2L423.27,172.16L421.86,161.7L411.56,154.32L417.51,136.32L413.78,126.03L404.43,120.69L417.29,118.23L422.6,96.11L413.07,73.51z"/>
		<path id="MN-046" title="Uvs" class="land" d="M193,88.11L171.33,83.27L162.26,62.09L134.16,60.78L130.61,53.77L122.87,57.83L115.71,50.21L57.08,83.89L90.56,133.5L102.36,123.02L111.93,137.09L133.42,134.93L142.88,144.87L159.6,129.66L176.05,134.03L194.11,127.57L198.28,108.49L193,88.11z"/>
		<path id="MN-041" title="Hövsgöl" class="land" d="M277.57,0L250.78,44.99L262.86,63.91L258.2,81.56L239.29,94.26L232.89,91.51L227.25,105.64L234.7,113.62L268.49,122.83L282.16,116.76L282.78,147.09L309.86,144.32L316.51,138.84L315.59,119.75L322.88,114.1L346.21,122.23L347.99,113.37L374.26,95.9L357.35,86.11L370.16,68.57L361.8,61.1L359.36,32.22L303.15,15.25L277.57,0z"/>
		<path id="MN-043" title="Hovd" class="land" d="M142.88,144.87L133.42,134.93L111.93,137.09L102.36,123.02L90.56,133.5L74.18,137.93L92.33,197.28L103.96,208.57L92.29,212.31L82.31,207.62L82.01,231.63L73.3,250.43L78.81,261.26L133.44,267.62L134.48,243.01L147.19,219.87L144.81,211.9L162.92,202.63L143.66,173.29L136.29,156.37L142.88,144.87z"/>
		<path id="MN-065" title="Govi-Altay" class="land" d="M246.62,210.69L230.44,210.52L226.68,200.26L215.52,200.49L210.43,186.99L192.84,175.4L159.99,167.86L143.66,173.29L162.92,202.63L144.81,211.9L147.19,219.87L134.48,243.01L133.44,267.62L148.63,271.62L174.24,290.97L191.03,292.88L189.08,301.99L214.85,346.1L251.86,346.15L254.17,289.72L260.97,282.86L267.47,251.91L264.94,238.26L247.93,220.71L246.62,210.69z"/>
		<path id="MN-057" title="Dzavhan" class="land" d="M232.89,91.51L201.7,83.25L193,88.11L198.28,108.49L194.11,127.57L176.05,134.03L159.6,129.66L142.88,144.87L136.29,156.37L143.66,173.29L159.99,167.86L192.84,175.4L210.43,186.99L215.52,200.49L226.68,200.26L230.44,210.52L246.62,210.69L252.09,190.02L259.4,187.67L265.28,172.58L259.86,170.87L260.22,157.63L282.78,147.09L282.16,116.76L268.49,122.83L234.7,113.62L227.25,105.64L232.89,91.51z"/>
		<path id="MN-069" title="Bayanhongor" class="land" d="M336.53,202.98L322.87,202.15L315.14,189.65L302,192.52L296.57,172.09L281.43,178.9L273.22,169.68L265.28,172.58L259.4,187.67L252.09,190.02L246.62,210.69L247.93,220.71L264.94,238.26L267.47,251.91L260.97,282.86L254.17,289.72L251.86,346.15L295.81,350.38L292.47,298.65L300.6,296.7L313.29,308.9L335.21,308.65L348.71,300.63L344.08,272.99L333.5,262.46L343.9,216.17L336.53,202.98z"/>
		<path id="MN-073" title="Arhangay" class="land" d="M346.21,122.23L322.88,114.1L315.59,119.75L316.51,138.84L309.86,144.32L282.78,147.09L260.22,157.63L259.86,170.87L265.28,172.58L273.22,169.68L281.43,178.9L296.57,172.09L302,192.52L315.14,189.65L322.87,202.15L336.53,202.98L361.49,194.39L367.47,197.35L371.08,180.6L384.39,188.87L396.41,187.24L363.95,147.31L358.05,129.38L346.21,122.23z"/>
		<path id="MN-039" title="Hentiy" class="land" d="M619.91,166.68L605.97,105.52L570.29,117.13L517.76,109.87L516.55,117.54L529.38,147.71L515.65,162.86L514.25,176.04L524.16,195.95L531.2,202.6L528.76,214.84L538.14,226.03L552.97,221.29L555.61,209.58L574.28,229.1L583.76,224.18L592.69,186.51L605.08,182.43L606.11,172.14L619.91,166.68z"/>
		<path id="MN-053" title="Ömnögovi" class="land" d="M428.56,384.19L473.06,360.83L504.85,355.71L496.38,284.87L454.69,295.77L441.04,278.29L409.43,273.74L406.9,261.34L398.74,261.18L385.32,274.67L379.6,297.26L348.71,300.63L335.21,308.65L313.29,308.9L300.6,296.7L292.47,298.65L295.81,350.38L343.01,352.4L355.64,364.25L396.75,378.44L416.83,374.73L416.93,381.85L428.56,384.19z"/>
		<path id="MN-063" title="Dornogovi" class="land" d="M583.76,224.18L574.28,229.1L555.61,209.58L552.97,221.29L538.14,226.03L528.76,214.84L531.2,202.6L524.16,195.95L515.52,204.35L502.55,204.56L508.86,208.26L511.12,232.32L518.31,234.81L519.05,266.63L499.96,274.6L496.38,284.87L504.85,355.71L535.38,356.07L554.72,349L577.37,326.04L601.18,313.01L587.88,289.18L602.45,264.74L593.39,228.94L583.76,224.18z"/>
		<path id="MN-071" title="Bayan-Ölgiy" class="land" d="M90.56,133.5L57.08,83.89L36.33,103.12L11.87,105.37L1.04,127.16L9.01,133.23L7.12,139.07L33.47,159.92L58.25,164.11L82.31,207.62L92.29,212.31L103.96,208.57L92.33,197.28L74.18,137.93L90.56,133.5z"/>
	</g>
</svg>
