<?xml version="1.0" encoding="utf-8"?>
<!-- (c) ammap.com | SVG map of Myanmar - Low -->
<svg xmlns="http://www.w3.org/2000/svg" xmlns:amcharts="http://amcharts.com/ammap" xmlns:xlink="http://www.w3.org/1999/xlink" version="1.1">
	<defs>
		<style type="text/css">
			.land
			{
				fill: #CCCCCC;
				fill-opacity: 1;
				stroke:white;
				stroke-opacity: 1;
				stroke-width:0.5;
			}
		</style>

		<amcharts:ammap projection="mercator" leftLongitude="92.171808" topLatitude="28.547835" rightLongitude="101.170272" bottomLatitude="9.599094"></amcharts:ammap>

		<!-- All areas are listed in the line below. You can use this list in your script. -->		<!--{id:"MM-01"},{id:"MM-11"},{id:"MM-05"},{id:"MM-17"},{id:"MM-03"},{id:"MM-07"},{id:"MM-14"},{id:"MM-16"},{id:"MM-15"},{id:"MM-06"},{id:"MM-02"},{id:"MM-04"},{id:"MM-13"},{id:"MM-12"}-->

	</defs>
	<g>
		<path id="MM-01" title="Sagaing" class="land" d="M432.68,140.39L403.05,112.98L352.96,123.33L262.16,187.83L264.69,243.63L216.33,308.39L225.28,344.68L173.67,459.29L162.82,573.26L188.89,628.61L202.56,659.96L261.12,654.49L281.7,676.03L319.97,674.38L343.93,645.87L332.19,505.44L347.57,481.13L357.45,493.68L368.81,493.05L390.11,459.8L374.93,442.28L400.24,431.23L398.69,404.34L361.19,400.28L326.05,350.66L346.34,348.6L337.46,296.46L356.45,281.05L340.89,207.12L361.54,153.18L426.2,149.95L434.53,139.88L432.68,140.39z"/>
		<path id="MM-11" title="Kachin" class="land" d="M483.93,0L458.1,26.76L458.99,59.38L417.02,89.04L434.53,139.88L426.2,149.95L361.54,153.18L340.89,207.12L356.45,281.05L337.46,296.46L346.34,348.6L326.05,350.66L361.19,400.28L398.69,404.34L400.24,431.23L431.04,479.44L486.93,457.87L477.03,372.24L530.8,287L579.3,263.12L566.9,238.11L585.6,186.49L578.36,90.37L544.57,95.34L528.9,34.51L483.93,0z"/>
		<path id="MM-05" title="Tanintharyi" class="land" d="M523.45,1770.71L519.7,1768.04L519.96,1770.89L523.45,1770.71zM540.98,1746.68L529.68,1755.96L530.21,1766.31L540.98,1746.68zM535.72,1745.98L539.74,1736.77L534.26,1734.91L535.72,1745.98zM510.2,1709.52L510.33,1715.99L513.3,1712.2L510.2,1709.52zM536.79,1708.61L539.13,1704.45L535.22,1705.7L536.79,1708.61zM567.59,1676.96L562.28,1671.68L562.7,1680.51L567.59,1676.96zM510.24,1674.75L514.04,1669.14L509.1,1669.67L510.24,1674.75zM538.1,1668.45L525.22,1671.95L540.65,1689.62L538.1,1668.45zM557.53,1664.92L558.52,1661.62L556.87,1662.38L557.53,1664.92zM566.54,1662.89L565.04,1653.94L560.8,1664.19L566.54,1662.89zM542.83,1639.29L537.92,1637.38L540.35,1642.34L542.83,1639.29zM566.74,1589.23L551.34,1590.12L565.99,1613.75L566.74,1589.23zM543.57,1615.56L543.11,1589.16L533.05,1620.63L543.57,1615.56zM471.76,1590.21L468.86,1589.12L472,1591.14L471.76,1590.21zM523,1593.74L519.57,1583.23L526.31,1604.39L523,1593.74zM488.65,1583.37L489.12,1585.71L488.45,1579.5L488.65,1583.37zM543.63,1583.18L541.96,1579.27L540.96,1583.85L543.63,1583.18zM541.62,1577.66L540.78,1573.24L538.55,1575.14L541.62,1577.66zM564.62,1570.3L557.43,1560.75L560.89,1580.87L576.93,1576.96L564.62,1570.3zM527.07,1552.8L530.57,1558.31L524.79,1544.57L527.07,1552.8zM526.92,1537.67L525.09,1532.01L513.48,1542.7L526.92,1537.67zM563.61,1533.57L562.83,1524.19L560.56,1532.23L563.61,1533.57zM543.52,1525.04L541.2,1518.62L538.83,1523.84L543.52,1525.04zM506.03,1519.93L502.55,1517.41L504.97,1521.99L506.03,1519.93zM554.05,1518.85L546.43,1508.29L545.22,1540.16L554.05,1518.85zM506.18,1501.04L504.25,1497.48L503.81,1500.53L506.18,1501.04zM544.65,1472.01L540.35,1460.09L545.22,1487.67L544.65,1472.01zM511.66,1408.03L512.27,1401.09L510.7,1403.92L511.66,1408.03zM528.92,1296.85L509.63,1288.99L500.07,1307.26L520.79,1328.68L508.14,1325.32L531.18,1430.61L535.44,1382.25L569.83,1462.67L581.24,1539.26L566.33,1548.93L582.56,1571.14L582.45,1574.19L577.45,1578.19L567.21,1581.99L597.71,1598.81L581.76,1668.66L559.22,1687.6L566.69,1753.49L586.59,1690.02L663.46,1587.71L615.66,1476.24L615.38,1400.1L535.35,1296.84L528.92,1296.85z"/>
		<path id="MM-17" title="Shan" class="land" d="M590.43,496.21L576.99,448.85L595.41,430.86L486.93,457.87L431.04,479.44L400.24,431.23L374.93,442.28L390.11,459.8L368.81,493.05L358.41,536.26L404.14,548.55L358.39,567.3L419.38,661.57L370.56,682.84L359,728.54L392.57,748.48L373.64,827.64L400.21,876.97L415.04,896.54L444.24,830.34L454.3,839.61L506.68,869.91L522.39,847.49L598.4,853.07L613.9,819.68L652.8,814.69L646.53,793.02L705.24,799.13L716.13,761.88L754.46,745.98L760.98,704.46L799.78,683.13L792.8,660.9L713.06,693.35L691.27,634.15L622.18,625.83L654.96,547.05L594.81,524.79L590.43,496.21z"/>
		<path id="MM-03" title="Magway" class="land" d="M188.89,628.61L162.82,573.26L174.51,763.47L153.7,762.61L233.84,939.05L236.68,984.1L264.88,973.43L268,933.05L324.4,908.06L322.48,880.01L306.41,759.75L260.94,778.78L258.5,750.44L234.73,738.7L235.15,714.72L281.7,676.03L261.12,654.49L202.56,659.96L188.89,628.61z"/>
		<path id="MM-07" title="Ayeyarwady" class="land" d="M108.31,1381.17L107.91,1374.07L106.54,1382.25L108.31,1381.17zM135.88,1308.1L137.66,1304.16L133.33,1309.19L135.88,1308.1zM233.75,1222.65L235.49,1208.84L226.73,1220.6L233.75,1222.65zM198.71,1218.7L219.43,1181.07L196.89,1203.74L198.71,1218.7zM268.78,977.12L264.88,973.43L236.68,984.1L240.81,1042.87L229.36,1076.33L212.74,1067.82L183.52,1206.02L227.39,1155.17L212.64,1209.8L232.86,1188.81L226.41,1217.09L250.56,1180.58L237.59,1223.21L263.32,1190.07L270.17,1223.58L283.42,1190.07L286.53,1230.07L341.8,1168.76L325.33,1159.39L317.71,1067.88L268.78,977.12z"/>
		<path id="MM-14" title="Chin" class="land" d="M115.44,449.21L100.74,438.83L111.66,479.39L80.24,564.12L88.21,614.79L70.32,639.75L45.01,623.7L35.4,640.68L41.2,704.76L109.92,762.69L132.95,762.96L134.52,744.52L153.7,762.61L174.51,763.47L162.82,573.26L173.67,459.29L115.44,449.21z"/>
		<path id="MM-15" title="Rakhine" class="land" d="M134.03,936.06L116.27,935.49L134.87,954.41L134.03,936.06zM144.66,877.76L130.3,877.32L143.11,896.71L149.46,897.44L159.59,884.41L144.66,877.76zM119.31,851.81L117.57,839.97L109.03,833.72L119.31,851.81zM75.38,845.57L69.83,824.9L65.76,820.84L75.38,845.57zM17.27,694.19L0.22,719.15L49.23,804.69L40.67,762.99L68.08,798.8L52.88,810.17L64.12,816.41L79.69,776.63L85.14,844.98L84.6,820.3L139.53,837.17L126.71,855.91L145,853.33L139.01,865.47L161.4,880.61L157.76,893.49L144.11,901.56L122.4,883.13L116.19,890.67L156,937.03L168.15,887.05L165.59,936.98L187.06,948.33L212.74,1067.82L229.36,1076.33L240.81,1042.87L236.68,984.1L233.84,939.05L153.7,762.61L134.52,744.52L132.95,762.96L109.92,762.69L41.2,704.76L17.27,694.19z"/>
		<path id="MM-06" title="Mon" class="land" d="M488.87,1248.47L487.25,1241.55L488.45,1249.7L488.87,1248.47zM480.17,1183.18L483.28,1158.98L474.18,1156.71L480.17,1183.18zM499.01,1155.56L495.2,1151.95L479.94,1198.04L500.07,1307.26L509.63,1288.99L528.92,1296.85L535.35,1296.84L536.82,1276L503.67,1213.35L502.61,1191.42L530.34,1185.94L499.01,1155.56zM466.8,1045.17L450.13,1060.1L418.87,1068.35L452.53,1100.97L462.26,1158.98L491.93,1150.62L466.8,1045.17z"/>
		<path id="MM-06" title="Yangon" class="land" d="M379.84,1112.34L345.65,1040.3L317.71,1067.88L325.33,1159.39L341.8,1168.76L370.22,1163.08L355.5,1132.22L384.57,1158.92L413.91,1121.17L379.84,1112.34z"/>
		<path id="MM-02" title="Bago" class="land" d="M365.59,879.23L322.48,880.01L324.4,908.06L268,933.05L264.88,973.43L268.78,977.12L317.71,1067.88L345.65,1040.3L379.84,1112.34L413.91,1121.17L418.87,1068.35L450.13,1060.1L447.41,1003.31L424.83,957.72L399.19,956.34L375.78,879.4L365.59,879.23z"/>
		<path id="MM-04" title="Mandalay" class="land" d="M357.45,493.68L347.57,481.13L332.19,505.44L343.93,645.87L319.97,674.38L281.7,676.03L235.15,714.72L234.73,738.7L258.5,750.44L260.94,778.78L306.41,759.75L322.48,880.01L365.59,879.23L375.78,879.4L400.21,876.97L373.64,827.64L392.57,748.48L359,728.54L370.56,682.84L419.38,661.57L358.39,567.3L404.14,548.55L358.41,536.26L368.81,493.05L357.45,493.68z"/>
		<path id="MM-13" title="Kayin" class="land" d="M415.04,896.54L400.21,876.97L375.78,879.4L399.19,956.34L424.83,957.72L447.41,1003.31L450.13,1060.1L466.8,1045.17L491.93,1150.62L495.2,1151.95L499.01,1155.56L530.34,1185.94L502.61,1191.42L503.67,1213.35L536.82,1276L568.18,1263.44L567.03,1199.42L598.68,1168.44L577.38,1177.25L563.69,1120.95L496.9,1046.47L462.5,966.17L415.04,896.54z"/>
		<path id="MM-12" title="Kayah" class="land" d="M454.3,839.61L444.24,830.34L415.04,896.54L462.5,966.17L496.23,962.99L506.68,869.91L454.3,839.61z"/>
	</g>
</svg>
