<?xml version="1.0" encoding="utf-8"?>
<!-- (c) ammap.com | SVG map of Niger - High -->
<svg xmlns="http://www.w3.org/2000/svg" xmlns:amcharts="http://amcharts.com/ammap" xmlns:xlink="http://www.w3.org/1999/xlink" version="1.1">
	<defs>
		<style type="text/css">
			.land
			{
				fill: #CCCCCC;
				fill-opacity: 1;
				stroke:white;
				stroke-opacity: 1;
				stroke-width:0.5;
			}
		</style>

		<amcharts:ammap projection="mercator" leftLongitude="0.1617178" topLatitude="23.4999998" rightLongitude="15.9990339" bottomLatitude="11.694295"></amcharts:ammap>

		<!-- All areas are listed in the line below. You can use this list in your script. -->
		<!--{id:"NE-5"},{id:"NE-8"},{id:"NE-3"},{id:"NE-7"},{id:"NE-4"},{id:"NE-1"},{id:"NE-2"},{id:"NE-6"}-->

	</defs>
	<g>
		<path id="NE-5" title="Tahoua" class="land" d="M329.91,433.7L326.91,403.67L328.02,395.19L327.99,394.34L327.77,393.6L326.92,393.14L319.11,391.07L318.76,390.94L318.07,390.52L314.62,387.87L314.33,387.56L314.02,387.16L313.16,385.64L313.02,385.1L301.98,358.35L301.74,357.98L297.29,352.95L285.96,344.29L258.96,327.24L257.93,326.42L256.81,325.35L250.14,316.16L241.35,308.8L240.66,308.08L240.31,307.32L239.2,301.97L238.86,301.28L238.19,300.99L232.82,300.58L231.94,300.37L231.17,299.99L230.65,299.05L230.39,298.43L230.24,297.93L230.2,297.61L230.2,296.98L230.49,296.35L231.99,293.93L232.11,293.28L231.57,286.94L231.63,286.63L232.02,285.55L232.09,285.25L232.11,284.93L232.08,284.61L231.94,284.04L231.65,283.24L231.44,282.03L231.41,281.37L231.43,281.04L231.5,280.72L231.89,279.41L238.5,265.53L233.73,264.09L207.28,263.77L206.53,263.77L206.55,270.23L206.57,276.82L206.59,283.39L206.61,289.97L206.63,296.54L206.64,299.41L206.65,303.1L206.67,309.66L206.68,316.22L206.71,322.77L206.73,329.31L206.75,335.85L206.77,342.39L206.78,345.72L206.8,351.27L206.13,351.76L205.59,351.78L205.19,351.96L204.89,352.88L204.83,353.84L205.1,359.02L204.88,359.57L204.22,360.63L204.09,361.1L204.11,364.43L204.14,371.48L204.16,376.02L204.19,381.84L203.78,383.07L203.07,383.73L200.87,384.87L199.69,385.8L198.72,386.83L197.96,388.03L193.44,399.19L193.23,400.64L193.43,402.09L194.05,403.64L194.09,403.71L194.12,403.78L194.13,403.85L194.12,403.93L194.13,404.25L194.1,404.4L194.05,404.56L191.12,407.52L190.35,408.72L190.03,409.68L189.57,414.81L189.17,416.83L188.53,418.37L188.94,419.11L200.21,451.44L200,458.7L200.16,460.97L200.55,462.01L207.71,473.99L211.11,476.18L212.23,477.5L216.08,485.37L216.55,487.47L218.59,505.04L218.8,505.7L223.55,513.6L226.5,522.66L226.5,522.68L236.55,520.2L238.17,520.03L239.33,520.55L240.47,521.64L241.62,522.16L244.55,522.34L249.66,521.41L256.89,521.73L258.63,521.4L259.21,521.15L260.76,520.04L261.46,519.2L262.3,517.29L262.88,516.52L264.29,515.81L271.74,514.5L273.39,514.86L287.68,520.57L301.97,526.27L302.43,526.53L302.75,526.81L303.08,526.95L303.61,526.81L306.53,525.16L307.5,524.96L310.25,525.56L310.25,525.55L310.17,524.71L310.17,521.77L310.26,520.88L310.51,520.02L311.16,519.21L312.78,517.58L313.39,516.73L313.39,515.78L312.74,513.07L312.73,512.27L313.18,511.67L313.93,511.02L317.16,508.7L317.64,508.27L318.24,507.63L318.46,507.5L318.7,507.39L318.96,507.3L320.66,506.92L321.09,506.74L321.83,506.3L322.01,506.13L322.24,505.21L322.68,499.65L322.61,497.07L322.41,496.55L322.05,495.17L321.85,493.97L321.71,493.42L320.13,489.59L319.85,488.27L319.72,486.67L322.71,462.11L322.67,461.12L322.78,460.1L329.91,433.7z"/>
		<path id="NE-8" title="Niamey" class="land" d="M99.97,528.23L97.54,527.68L95.57,527.68L93.77,528.41L92.72,529.73L92.52,530.91L92.61,532.76L93.5,534.7L94.67,536.36L96.2,537.84L97.9,538.48L99.79,538.76L101.4,538.94L102.94,538.79L103.27,539.48L103.56,540.41L103.93,541.24L104.99,540.42L105.8,539.77L106.79,537.74L107.42,535.53L107.87,533.4L107.96,531.83L107.87,530.45L107.06,529.99L105.8,530.27L105.35,529.71L105.44,528.14L104.99,527.96L102.66,528.14L99.97,528.23z"/>
		<path id="NE-3" title="Dosso" class="land" d="M174.52,627.63L177.11,626.07L177.72,625.45L178.08,624.33L177.83,623.31L177.21,622.37L176.03,621.09L175.81,620.96L175.64,620.79L175.36,620.24L175.19,619.74L174.9,616.81L175.13,615.96L175.69,615.22L176.55,614.33L177.41,612.61L177.17,610.85L175.91,607.07L175.94,604.82L177.3,598.04L176.8,585.16L177.01,584.62L188.05,576.28L191.32,573.14L199.38,560.4L200.98,549.29L201.15,548.1L201.25,535.67L204.52,535.57L206.04,535.28L207.45,534.57L215.39,526.93L217.75,525.24L220.49,524.16L226.5,522.68L226.5,522.66L223.55,513.6L218.8,505.7L218.59,505.04L216.55,487.47L216.08,485.37L212.23,477.5L211.11,476.18L207.71,473.99L206.78,480.21L205.26,481.87L203.92,482.3L203.44,482.52L203.04,482.93L202.48,484.58L201.81,485.22L200.99,485.76L197.09,487.62L196.7,487.67L195.34,487.62L194.63,487.67L194.12,487.82L193.35,488.12L192.65,488.48L185.74,494.48L184.25,496.6L184.01,497.09L183.76,497.86L181.95,505.78L181.57,506.84L180.64,508.08L171.29,516.82L169.67,517.78L161.24,521.44L160.65,521.5L159.89,521.29L154.67,519.06L153.86,518.8L153.2,518.79L152.68,519.35L151.78,520.95L151.14,522.34L150.29,526.7L150.05,527.52L149.67,528.24L148.95,528.49L148.13,528.59L144.63,528.58L144.29,528.67L143.8,528.9L143.44,529.56L142.39,531.99L141.93,532.55L141.2,532.83L139.72,533.13L138.69,533.43L138.49,533.71L138.36,533.98L138.24,535.03L137.98,536.23L137.62,537.33L137.55,537.93L137.6,538.22L137.68,538.48L138.13,539.45L138.18,539.73L138.2,540.04L137.69,542.42L136.9,544.55L135.99,546.02L135.64,546.33L135.3,546.52L134.99,546.52L134.69,546.48L134.15,546.29L133.51,545.9L133.32,545.8L133.17,545.76L132.11,545.63L131.45,545.64L129.74,546.04L125.32,549.49L125.08,549.63L124.57,549.83L124.03,550L123.73,550.05L123.11,550.09L122.5,549.99L121.35,549.69L121.05,549.66L120.68,549.71L120.28,549.84L119.61,550.19L119.13,550.6L118.5,551.32L118.17,551.83L117.96,552.22L117.89,552.53L117.88,552.81L117.94,553.13L121.04,560.15L121.17,560.23L121.42,560.28L129.11,561.06L129.9,561.29L130.47,561.66L130.72,562.55L130.66,562.96L130.49,563.24L129.62,563.8L127.87,565.26L127.66,565.4L126.48,565.99L125.74,566.53L125.02,567.17L124.69,567.56L124.49,567.92L124.42,568.21L124.33,568.84L124.34,569.5L124.44,570.11L125.31,573.45L125.39,574.06L125.4,574.71L125.29,575.7L125.03,576.9L124.99,578.24L125.28,581.78L125.43,582.75L125.63,583.37L125.63,584.77L125.8,585.29L127.84,585.29L127.88,585.41L128.14,585.56L128.45,585.52L128.59,585.1L128.66,584.8L128.82,584.42L129.03,584.07L129.25,583.85L129.73,583.7L130.19,583.87L130.53,584.34L130.66,585.1L130.68,586.41L130.86,587.86L131.41,589.04L132.54,589.53L133.62,589.76L135.43,590.87L136.54,591.31L138.96,593.49L139.99,594.04L140.5,594.59L140.89,595.23L141.21,596.39L141.62,596.82L142.18,597.12L142.78,597.34L144.45,597.53L144.88,597.66L145.06,597.93L145.56,598.89L147.61,601.93L156.29,609.89L156.45,610.17L157.13,610.69L157.29,610.96L157.41,612.07L157.66,613.24L158.03,614.18L159.19,616.13L159.91,616.97L160.33,617.37L160.96,617.8L161.66,617.98L162.33,617.66L163.04,617.23L163.64,617.35L164.18,617.67L164.74,617.85L167.01,619.26L168.86,619.92L169.42,620.32L169.83,620.71L171.52,623.14L171.86,623.44L172.14,623.61L172.36,623.82L172.55,624.22L172.81,625.04L173,625.43L173.1,625.89L173.27,626.28L173.7,626.52L174.17,627.33L174.52,627.63z"/>
		<path id="NE-7" title="Zinder" class="land" d="M592.85,488.71L593.55,488.61L594.21,488.28L597.62,485.85L597.95,485.37L597.68,484.98L595.65,484.27L595.06,483.95L594.71,483.48L594.43,482.93L594.14,482.13L594.01,481.41L594.16,480.17L594.34,479.51L594.6,478.88L595.09,478.41L596.45,477.51L597.9,476.81L598.79,476.7L598.88,476.57L598.75,324.59L581.61,330.85L560.97,345.14L546.11,349.63L463.58,403.71L445.81,410.5L425.12,422.08L415.85,425.36L412.85,425.67L403.65,425.45L402.69,425.51L401.69,425.71L397.72,427.83L389.1,427.93L368.85,424.83L366.87,427.02L362.78,438.62L366.04,440.52L366.73,442.29L366.99,449.59L367.19,450.62L369.21,454.13L369.8,455.81L371.4,464.37L371.7,465.09L372.16,465.74L373.07,466.78L373.57,467.5L374.66,470.8L375.39,471.59L376.22,472.21L380.56,474.64L381.27,475.14L381.71,475.62L381.87,476.37L382.14,482.84L382.24,483.52L382.52,484.24L383.17,484.76L385.69,485.95L386.49,486.18L387.14,486.15L387.96,485.6L392.6,481.45L393.37,480.98L394.24,480.81L397.04,480.9L397.49,480.99L397.68,481.15L399.35,483.8L400.14,484.76L400.58,485.05L402.57,485.99L403.15,486.16L404.1,486.62L405.76,487.95L406.03,488.06L406.35,488.13L407.38,488.18L407.94,488.45L408.67,488.97L411.28,491.39L411.52,491.55L413.51,492.5L414.16,492.91L414.72,493.4L414.91,493.7L415.1,494.13L415.27,494.65L415.6,496.45L415.74,496.83L416.07,497.36L422.34,501.77L423.1,502.52L423.34,503.36L423.46,504.25L423.44,505.89L423.52,506.55L423.65,507.2L424.01,508.2L424.21,510.08L424.22,511.87L424.14,512.7L423.9,513.43L423.29,513.92L408.88,521.26L408.62,521.49L408.44,521.7L408.3,521.91L408.12,522.25L407.85,522.94L407.76,523.22L407.68,523.83L407.76,524.51L407.94,525L408.37,525.86L409.08,526.41L409.91,526.89L411.66,527.66L412.41,528.1L412.94,528.61L412.94,529.35L411.76,533.37L411.76,534.17L412.96,541.48L412.96,542.35L412.65,543.22L409.59,548.93L409.35,549.25L409.35,549.25L410.01,549.57L410.68,550.16L411.93,551.67L416.98,556.3L417.35,556.54L417.85,556.73L418.05,556.75L418.25,556.61L418.83,556.32L419.41,556.13L420.66,555.98L421.26,555.98L422.62,556.27L423.83,556.86L426.04,558.53L427.02,559.62L428.47,562.03L429.34,563.09L431.19,564.17L444.5,568.13L446.27,568.33L460.99,570.06L462.86,570.06L465.55,569.3L466.47,569.23L477.19,570.5L478.26,570.42L478.61,570.27L479.16,569.91L479.74,569.4L480.09,568.99L488.76,558.7L490.45,557.08L491.42,556.45L491.96,556.26L492.21,556.3L492.42,556.26L492.82,555.84L493.05,555.32L493.25,554.05L493.46,553.51L494.35,552.64L503.93,547.24L506.04,546.35L530.6,541.05L530.59,541.03L530.44,540.77L528.81,534.83L528.99,533.97L529.36,532.73L538.1,523.59L538.47,523.02L538.66,522.64L538.77,522.23L538.84,521.61L538.85,520.22L538.77,519.19L538.8,518.74L539.06,518.33L559.56,499.31L560.57,498.62L561.23,498.54L561.94,498.75L563.97,499.92L564.58,500.19L565.02,500.21L565.63,500.08L574.84,497.18L587.53,488.91L588.18,488.59L588.68,488.49L592.85,488.71z"/>
		<path id="NE-4" title="Maradi" class="land" d="M362.78,438.62L352.66,433.13L349.98,432.92L329.91,433.7L322.78,460.1L322.67,461.12L322.71,462.11L319.72,486.67L319.85,488.27L320.13,489.59L321.71,493.42L321.85,493.97L322.05,495.17L322.41,496.55L322.61,497.07L322.68,499.65L322.24,505.21L322.01,506.13L321.83,506.3L321.09,506.74L320.66,506.92L318.96,507.3L318.7,507.39L318.46,507.5L318.24,507.63L317.64,508.27L317.16,508.7L313.93,511.02L313.18,511.67L312.73,512.27L312.74,513.07L313.39,515.78L313.39,516.73L312.78,517.58L311.16,519.21L310.51,520.02L310.26,520.88L310.17,521.77L310.17,524.71L310.25,525.55L310.25,525.56L311.15,525.76L314.52,527.71L321.61,534.47L329.86,543.55L333.96,551.14L335.22,553.46L338.21,556.92L340.04,558.63L341.68,559.85L343.22,560.45L344.9,560.63L348.66,560.61L349.57,560.46L349.86,560.41L350.94,559.88L353.33,557.76L356.4,554.12L357.53,553.91L362.79,554.88L364.6,554.89L366.18,554.38L384.55,543.24L386.27,542.47L388,542.3L400.8,544.13L402.2,544.67L402.78,545.12L403.96,546.25L405.35,547.12L407.06,548.47L407.8,548.82L409.29,549.23L409.35,549.25L409.35,549.25L409.59,548.93L412.65,543.22L412.96,542.35L412.96,541.48L411.76,534.17L411.76,533.37L412.94,529.35L412.94,528.61L412.41,528.1L411.66,527.66L409.91,526.89L409.08,526.41L408.37,525.86L407.94,525L407.76,524.51L407.68,523.83L407.76,523.22L407.85,522.94L408.12,522.25L408.3,521.91L408.44,521.7L408.62,521.49L408.88,521.26L423.29,513.92L423.9,513.43L424.14,512.7L424.22,511.87L424.21,510.08L424.01,508.2L423.65,507.2L423.52,506.55L423.44,505.89L423.46,504.25L423.34,503.36L423.1,502.52L422.34,501.77L416.07,497.36L415.74,496.83L415.6,496.45L415.27,494.65L415.1,494.13L414.91,493.7L414.72,493.4L414.16,492.91L413.51,492.5L411.52,491.55L411.28,491.39L408.67,488.97L407.94,488.45L407.38,488.18L406.35,488.13L406.03,488.06L405.76,487.95L404.1,486.62L403.15,486.16L402.57,485.99L400.58,485.05L400.14,484.76L399.35,483.8L397.68,481.15L397.49,480.99L397.04,480.9L394.24,480.81L393.37,480.98L392.6,481.45L387.96,485.6L387.14,486.15L386.49,486.18L385.69,485.95L383.17,484.76L382.52,484.24L382.24,483.52L382.14,482.84L381.87,476.37L381.71,475.62L381.27,475.14L380.56,474.64L376.22,472.21L375.39,471.59L374.66,470.8L373.57,467.5L373.07,466.78L372.16,465.74L371.7,465.09L371.4,464.37L369.8,455.81L369.21,454.13L367.19,450.62L366.99,449.59L366.73,442.29L366.04,440.52L362.78,438.62z"/>
		<path id="NE-1" title="Agadez" class="land" d="M597.3,0L593.87,2.21L590.43,4.42L587,6.63L583.56,8.83L580.12,11.04L576.68,13.25L573.25,15.45L569.81,17.65L566.37,19.86L562.95,22.06L559.51,24.26L556.07,26.47L552.64,28.67L549.2,30.87L545.76,33.07L542.32,35.27L538.89,37.46L535.45,39.66L532.01,41.86L528.57,44.06L525.14,46.25L521.7,48.45L518.27,50.64L514.83,52.83L511.39,55.03L507.96,57.22L504.52,59.41L501.09,61.6L497.65,63.8L494.22,65.99L490.78,68.17L487.34,70.36L483.91,72.55L480.47,74.74L477.04,76.92L473.6,79.11L470.16,81.3L466.73,83.49L463.29,85.67L459.86,87.85L456.42,90.03L452.98,92.22L449.55,94.4L446.11,96.58L442.67,98.76L439.24,100.94L435.8,103.12L432.36,105.3L428.93,107.48L425.49,109.66L422.05,111.84L418.61,114.01L415.18,116.19L411.75,118.36L408.31,120.54L404.87,122.71L401.44,124.89L398,127.06L394.56,129.23L391.13,131.4L387.69,133.58L384.25,135.75L380.82,137.92L377.38,140.09L370.77,144.26L365.76,148.63L362.16,151.77L358.55,154.92L354.95,158.06L351.34,161.2L347.43,164.61L345.52,166.33L342.61,169L339.43,171.93L336.24,174.85L333.07,177.76L329.88,180.68L326.7,183.6L323.51,186.51L320.32,189.43L317.15,192.35L313.96,195.26L310.78,198.17L307.59,201.08L304.41,203.99L301.23,206.9L298.04,209.81L294.85,212.72L291.67,215.63L287.69,219.25L285.51,220.8L283.24,221.66L276.73,222.98L271.7,224L260.64,226.25L249.58,228.49L244.55,229.51L235.02,231.45L225.49,233.38L215.97,235.32L206.44,237.25L206.47,243.86L206.49,250.46L206.51,257.06L206.53,263.65L206.53,263.77L207.28,263.77L233.73,264.09L238.5,265.53L231.89,279.41L231.5,280.72L231.43,281.04L231.41,281.37L231.44,282.03L231.65,283.24L231.94,284.04L232.08,284.61L232.11,284.93L232.09,285.25L232.02,285.55L231.63,286.63L231.57,286.94L232.11,293.28L231.99,293.93L230.49,296.35L230.2,296.98L230.2,297.61L230.24,297.93L230.39,298.43L230.65,299.05L231.17,299.99L231.94,300.37L232.82,300.58L238.19,300.99L238.86,301.28L239.2,301.97L240.31,307.32L240.66,308.08L241.35,308.8L250.14,316.16L256.81,325.35L257.93,326.42L258.96,327.24L285.96,344.29L297.29,352.95L301.74,357.98L301.98,358.35L313.02,385.1L313.16,385.64L314.02,387.16L314.33,387.56L314.62,387.87L318.07,390.52L318.76,390.94L319.11,391.07L326.92,393.14L327.77,393.6L327.99,394.34L328.02,395.19L326.91,403.67L329.91,433.7L349.98,432.92L352.66,433.13L362.78,438.62L366.87,427.02L368.85,424.83L389.1,427.93L397.72,427.83L401.69,425.71L402.69,425.51L403.65,425.45L412.85,425.67L415.85,425.36L425.12,422.08L445.81,410.5L463.58,403.71L546.11,349.63L560.97,345.14L581.61,330.85L598.75,324.59L599.79,324.04L600.59,323.28L610.85,316.27L649.38,298.12L778.59,298.1L779.01,298.1L779.03,298.1L779.2,296.13L779.4,293.71L779.6,291.29L779.81,288.86L780.02,286.44L780.22,284.01L780.42,281.59L780.62,279.16L780.83,276.73L781.03,274.3L781.23,271.87L781.44,269.45L781.65,267.01L781.85,264.58L782.05,262.15L782.26,259.72L782.46,257.29L782.66,254.85L782.86,252.42L783.06,249.98L783.27,247.55L783.48,245.11L783.68,242.68L783.88,240.24L784.09,237.8L784.29,235.36L784.49,232.92L784.7,230.49L784.9,228.04L785.11,225.6L785.31,223.16L785.51,220.72L785.72,218.27L785.92,215.83L786.12,213.39L786.33,210.94L786.53,208.5L786.73,206.04L786.94,203.6L787.15,201.15L787.35,198.7L787.53,196.46L789.11,192.25L789.87,190.85L791.89,187.14L793.91,183.43L795.93,179.72L797.96,176.01L798.99,174.11L799.36,173.19L799.25,172.3L798.54,171.13L797.34,169.79L794.4,166.51L791.46,163.23L788.52,159.95L785.58,156.66L784.17,155.1L780.06,151.81L779.16,150.78L778.45,149.6L777.85,148.23L777.43,145.8L777.85,143.3L779.1,141.21L781.13,140.04L780.3,138.73L779.46,137.4L778.61,136.08L777.76,134.76L776.92,133.43L776.07,132.11L775.22,130.78L774.38,129.45L773.53,128.13L772.68,126.8L771.84,125.47L770.99,124.15L770.15,122.82L769.3,121.49L768.46,120.16L767.61,118.84L766.77,117.51L765.57,115.63L763.83,113.5L762.86,112.81L760.48,111.55L759.68,110.76L759.47,109.88L759.46,108.46L759.44,107.39L759.4,104.56L759.33,100.56L759.26,95.97L759.18,91.37L759.11,87.36L759.07,84.53L759.05,83.45L758.67,81.26L758.26,78.94L757.85,76.63L757.24,73.21L756.63,69.8L756.03,66.38L755.41,62.96L754.81,59.53L754.2,56.11L753.6,52.69L752.99,49.26L752.38,45.83L751.78,42.4L751.17,38.97L750.57,35.54L749.96,32.1L749.35,28.67L749.32,28.69L749.31,28.69L740.67,33.43L732.04,38.16L723.4,42.89L714.76,47.62L711.57,49.36L710.79,49.46L710.05,49.08L707.75,47.02L701.43,41.39L695.12,35.75L688.8,30.1L682.49,24.45L679.65,21.9L673.72,18.57L668.59,17.32L664.14,16.24L659.68,15.16L655.22,14.08L650.77,13L646.31,11.91L641.86,10.83L637.41,9.75L632.94,8.67L628.49,7.58L624.04,6.5L619.58,5.42L615.13,4.33L610.67,3.25L606.21,2.17L601.75,1.09L597.3,0z"/>
		<path id="NE-2" title="Diffa" class="land" d="M779.03,298.1L779.01,298.1L778.59,298.1L649.38,298.12L610.85,316.27L600.59,323.28L599.79,324.04L598.75,324.59L598.88,476.57L598.79,476.7L597.9,476.81L596.45,477.51L595.09,478.41L594.6,478.88L594.34,479.51L594.16,480.17L594.01,481.41L594.14,482.13L594.43,482.93L594.71,483.48L595.06,483.95L595.65,484.27L597.68,484.98L597.95,485.37L597.62,485.85L594.21,488.28L593.55,488.61L592.85,488.71L588.68,488.49L588.18,488.59L587.53,488.91L574.84,497.18L565.63,500.08L565.02,500.21L564.58,500.19L563.97,499.92L561.94,498.75L561.23,498.54L560.57,498.62L559.56,499.31L539.06,518.33L538.8,518.74L538.77,519.19L538.85,520.22L538.84,521.61L538.77,522.23L538.66,522.64L538.47,523.02L538.1,523.59L529.36,532.73L528.99,533.97L528.81,534.83L530.44,540.77L530.59,541.03L530.6,541.05L531.97,540.75L536.83,540.36L546.01,541.44L570.6,541.31L585.86,545.2L591.44,547.49L598.47,551.81L600.79,553.66L601.79,554.16L604.76,554.88L606.43,554.74L607.15,554.61L608.21,553.88L609.05,553.71L611.59,554.61L612.17,554.93L612.36,555.28L612.38,555.56L612.47,555.76L612.87,555.83L613.06,555.71L613.28,555.44L613.6,555.19L614.08,555.12L614.58,555.41L614.95,555.86L615.32,556.12L615.8,555.83L616.63,556.07L618.4,556.14L619.8,556.19L620.96,556.37L621.92,556.71L622.75,556.88L623.45,556.54L623.68,555.93L624.11,553.16L624.34,552.97L625.49,552.76L625.87,552.64L626.27,552.18L626.54,551.63L626.86,550.49L626.06,550.18L626.4,549.41L627.06,548.46L627.21,547.62L629.05,545.87L629.31,545.69L629.48,545.99L629.84,545.87L630.19,545.62L630.53,545.26L630.63,544.95L630.69,544.11L631.23,544.53L631.66,544.98L632.16,545.35L632.93,545.5L633.37,545.23L633.72,544.03L634.31,543.76L635.45,543.5L636.28,542.85L637.58,541.24L637.92,540.38L637.99,540.36L638.13,540.15L638.43,540.38L638.72,540.74L638.82,540.92L639.53,540.86L639.51,540.66L639.2,540.28L639,539.67L639.14,539.48L639.81,539.24L640.03,539.12L640.16,539.08L640.6,539.15L640.75,539.12L640.79,538.98L640.71,538.56L640.75,538.41L642.15,536.83L642.82,536.28L642.5,535.87L642.18,535.55L641.83,535.34L641.41,535.22L641.41,534.83L642.19,535.05L642.84,535.37L643.3,535.32L643.51,534.48L644.92,534.79L646.31,534.53L650.85,532.24L652.14,531.76L653.54,531.64L653.54,531.96L653.26,532.47L653.83,532.68L654.78,532.63L655.61,532.35L655.62,532.53L655.61,533.09L655.98,532.72L656.36,531.85L656.64,531.64L657.13,531.74L657.24,532.15L657.13,532.68L656.96,533.09L658.31,532.48L659.67,532.22L660.89,531.77L661.81,530.58L661.1,530.48L661,530.23L661.46,529.51L661.68,529.43L662.04,529.45L662.36,529.38L662.5,528.96L662.43,528.67L662.17,528.3L662.19,528.09L662.46,527.57L662.81,527.1L664.83,525.2L665.59,524.65L665.57,523.76L666.03,523.39L667.5,523.14L667.55,523.13L680.04,523.67L679.68,522.01L679.31,520.35L678.95,518.69L678.59,517.04L678.23,515.38L677.87,513.73L677.51,512.07L677.14,510.41L676.78,508.75L676.42,507.09L676.06,505.44L675.7,503.78L675.34,502.12L674.97,500.46L674.61,498.8L674.25,497.14L673.72,494.75L673.02,492.1L672.05,488.48L672.07,485.41L673.72,483.08L675.01,482.44L676.83,481.68L678.88,481.51L680.08,481.27L680.9,481.11L682.59,479.68L682.98,478.74L683.04,477.77L682.72,475.77L682.55,475.46L682.01,474.97L681.93,474.7L682.11,474.43L683.11,473.73L684.72,471.91L685.22,471.52L686.24,471.29L687.2,471.2L687.97,470.79L688.42,469.57L688.36,468.51L687.65,466.28L687.44,465.21L687.51,464.1L687.78,463.1L688.53,461.48L690.18,457.92L691.48,455.09L692.95,453.03L694.46,450.9L695.96,448.77L697.47,446.64L698.98,444.51L700.48,442.38L701.99,440.24L703.5,438.11L705,435.98L706.51,433.85L708.02,431.71L709.52,429.58L711.04,427.45L712.54,425.31L714.04,423.17L715.56,421.04L717.06,418.9L718.5,416.86L721.26,413.88L724.22,410.69L726.17,408.57L729,405.51L731.84,402.44L734.67,399.38L737.51,396.31L740.34,393.24L743.17,390.17L746,387.11L748.83,384.04L751.67,380.97L754.5,377.9L757.33,374.82L760.16,371.75L763,368.67L765.83,365.6L768.67,362.52L771.49,359.45L773.21,357.58L773.87,356.61L774.02,356.07L774.2,355.44L774.31,354.11L774.52,351.7L774.72,349.29L774.92,346.88L775.12,344.47L775.33,342.06L775.53,339.65L775.73,337.24L775.94,334.82L776.14,332.41L776.35,330L776.55,327.58L776.76,325.16L776.96,322.75L777.16,320.33L777.37,317.92L777.56,315.5L777.77,313.08L777.98,310.66L778.18,308.24L778.38,305.82L778.59,303.4L778.79,300.98L778.99,298.56L779.03,298.1z"/>
		<path id="NE-6" title="Tillabéri" class="land" d="M207.71,473.99L200.55,462.01L200.16,460.97L200,458.7L200.21,451.44L188.94,419.11L188.53,418.37L188.4,418.69L187.13,420.23L185.22,421.27L181.21,422.04L179.36,423.06L175.41,427.45L170.99,430.16L170.49,431.56L170.01,437.6L169.09,437.41L168.81,437.32L163.61,436.43L154.11,434.79L148.09,433.76L146.1,433.8L145.29,433.99L144.92,434.26L144.8,434.79L144.7,435.75L144.69,437.68L144.41,438.37L141.91,438.46L137.04,438.63L132.16,438.8L127.28,438.97L122.4,439.14L117.52,439.3L112.64,439.47L107.77,439.64L102.89,439.8L98.01,439.97L93.13,440.14L88.26,440.31L83.38,440.48L78.5,440.65L73.63,440.81L68.75,440.98L63.87,441.15L60.15,441.28L58.45,441.69L57.09,442.52L53.67,445.72L49.62,449.51L46.32,452.61L42.08,456.57L40.85,457.19L39.48,457.48L31.75,457.73L30.28,458.3L28.84,458.86L27.44,459.21L26.75,459.27L18.91,456.45L17.33,456.53L14.06,457.69L12.46,458.04L10.75,458.03L4.09,456.33L3.68,456.88L3.66,458.17L3.95,460.77L4.07,461.96L3.61,462.66L2.91,463.24L2.29,464.05L2.21,465.55L3.67,468.57L4.01,470.16L0.64,479.79L0.93,482.43L2.44,484.95L3.13,485.59L10.4,492.26L12.55,495.17L12.69,495.47L12.64,495.9L12.16,496.53L11.97,497L11.71,498.61L11.47,499.23L10.26,501.12L10.04,501.73L10.26,502.32L10.9,503.29L11.22,503.65L11.53,503.9L11.81,504.17L12.02,504.61L11.97,504.95L11.55,505.79L11.55,506.24L12.02,506.78L12.68,507.1L13.21,507.56L13.31,508.48L13.71,509.4L14.54,509.97L15.43,510.43L15.97,511.04L15.95,511.5L15.54,512.43L15.57,512.98L15.88,513.36L16.93,514.05L17.33,514.5L17.76,515.47L18.16,516.03L18.37,516.32L19.14,517.04L20.84,518.16L21.35,518.85L21.92,519.46L22.89,519.82L23.24,520.31L22.93,521.29L22.44,522.37L22.22,523.16L22.92,524.46L24.25,524.92L30.96,524.71L31.47,524.81L31.61,525.17L31.6,525.6L31.64,525.91L31.61,526.1L31.44,526.32L31.48,526.66L32.08,527.24L33.07,527.73L33.97,527.77L35.87,527.59L38.21,528.3L40.93,529.95L42.98,532.13L43.24,534.47L44.18,536.05L45.85,537.28L51.35,539.84L52.25,540.14L54.39,540.41L55.24,540.63L56.01,541.17L56.98,542.26L55.61,542.81L54.62,542.34L53.8,541.6L52.89,541.32L52.62,541.61L52.38,542.18L51.87,543.96L51.52,544.07L50.4,543.59L47.69,542.91L43.65,541.29L42.58,541.1L41.92,543.18L41.94,547.58L41.96,552.46L41.98,555.76L41.98,556.72L42.13,557.7L42.58,558.53L44.03,559.33L47.64,559.64L49.17,560.4L52.04,562.84L55.06,565.4L58.8,568.58L60.1,569.68L64.22,573.17L67,575.52L70.47,578.46L71.88,579.26L73.56,579.7L78.73,580.15L85.12,580.71L86.02,580.61L86.87,580.04L87.48,579.15L88.01,578.13L88.87,576.86L89.21,576.17L89.43,575.92L89.85,575.83L90.2,576.01L90.6,576.08L91.16,575.7L92.01,574.76L92.48,574.49L97.39,574.9L99.41,575.46L100.73,577.01L101.03,578.02L101.22,578.3L101.76,578.85L102.29,579.28L103.21,579.86L103.67,580.43L104.01,581.13L104.17,581.79L104.55,584.9L104.8,585.56L105.21,586.36L105.5,586.76L106.14,587.47L106.34,587.86L106.34,588.08L106.18,588.62L106.18,588.88L106.28,590.02L105.92,590.57L105.18,590.76L102.18,591.02L101.92,590.97L101.38,590.71L101.23,590.66L100.91,590.84L100.55,591.34L100.32,591.52L97.4,592.13L96.64,592.77L96.52,594.27L97.49,596.08L99.65,599.12L103.43,604.42L106.98,609.41L110.98,615.02L113.61,617.27L113.51,616.74L112.92,615.85L112.85,615.29L113.14,614.62L113.57,614.51L114.04,614.58L114.48,614.45L114.82,614.06L115.22,613.32L115.57,612.95L116.07,612.9L116.6,613.09L116.97,613.01L117,612.13L116.9,611.48L116.57,611.24L116.09,611.13L115.55,610.88L115.03,610.45L114.67,610.03L114.39,609.52L112.69,604.68L112.19,601.8L112.15,600.63L112.59,599.73L113.81,599.16L114.51,599.08L115.67,599.12L116.31,599.06L116.43,598.93L116.85,598.35L117.11,598.15L117.49,598.24L117.77,598.54L118.03,598.63L118.32,598.09L118.55,597.45L118.91,597.3L119.38,597.38L119.98,597.4L120.12,597.51L120.2,597.8L120.35,598.03L120.73,598L121.02,597.83L121.48,597.39L121.71,597.24L123.5,596.74L123.7,596.78L124.14,597.04L124.39,597.07L124.69,596.91L125.3,596.46L125.65,596.39L127.43,596.87L127.89,596.61L128.59,595.48L128.76,595.08L128.86,594.68L129.01,594.31L129.28,594L129.82,593.79L130.36,594.15L130.88,594.02L131.35,593.64L132.16,592.67L132.72,592.3L133.2,592.2L134.22,592.24L134.74,592.13L135.94,592.09L136.54,591.31L135.43,590.87L133.62,589.76L132.54,589.53L131.41,589.04L130.86,587.86L130.68,586.41L130.66,585.1L130.53,584.34L130.19,583.87L129.73,583.7L129.25,583.85L129.03,584.07L128.82,584.42L128.66,584.8L128.59,585.1L128.45,585.52L128.14,585.56L127.88,585.41L127.84,585.29L125.8,585.29L125.63,584.77L125.63,583.37L125.43,582.75L125.28,581.78L124.99,578.24L125.03,576.9L125.29,575.7L125.4,574.71L125.39,574.06L125.31,573.45L124.44,570.11L124.34,569.5L124.33,568.84L124.42,568.21L124.49,567.92L124.69,567.56L125.02,567.17L125.74,566.53L126.48,565.99L127.66,565.4L127.87,565.26L129.62,563.8L130.49,563.24L130.66,562.96L130.72,562.55L130.47,561.66L129.9,561.29L129.11,561.06L121.42,560.28L121.17,560.23L121.04,560.15L117.94,553.13L117.88,552.81L117.89,552.53L117.96,552.22L118.17,551.83L118.5,551.32L119.13,550.6L119.61,550.19L120.28,549.84L120.68,549.71L121.05,549.66L121.35,549.69L122.5,549.99L123.11,550.09L123.73,550.05L124.03,550L124.57,549.83L125.08,549.63L125.32,549.49L129.74,546.04L131.45,545.64L132.11,545.63L133.17,545.76L133.32,545.8L133.51,545.9L134.15,546.29L134.69,546.48L134.99,546.52L135.3,546.52L135.64,546.33L135.99,546.02L136.9,544.55L137.69,542.42L138.2,540.04L138.18,539.73L138.13,539.45L137.68,538.48L137.6,538.22L137.55,537.93L137.62,537.33L137.98,536.23L138.24,535.03L138.36,533.98L138.49,533.71L138.69,533.43L139.72,533.13L141.2,532.83L141.93,532.55L142.39,531.99L143.44,529.56L143.8,528.9L144.29,528.67L144.63,528.58L148.13,528.59L148.95,528.49L149.67,528.24L150.05,527.52L150.29,526.7L151.14,522.34L151.78,520.95L152.68,519.35L153.2,518.79L153.86,518.8L154.67,519.06L159.89,521.29L160.65,521.5L161.24,521.44L169.67,517.78L171.29,516.82L180.64,508.08L181.57,506.84L181.95,505.78L183.76,497.86L184.01,497.09L184.25,496.6L185.74,494.48L192.65,488.48L193.35,488.12L194.12,487.82L194.63,487.67L195.34,487.62L196.7,487.67L197.09,487.62L200.99,485.76L201.81,485.22L202.48,484.58L203.04,482.93L203.44,482.52L203.92,482.3L205.26,481.87L206.78,480.21L207.71,473.99zM101.4,538.94L99.79,538.76L97.9,538.48L96.2,537.84L94.67,536.36L93.5,534.7L92.61,532.76L92.52,530.91L92.72,529.73L93.77,528.41L95.57,527.68L97.54,527.68L99.97,528.23L102.66,528.14L104.99,527.96L105.44,528.14L105.35,529.71L105.8,530.27L107.06,529.99L107.87,530.45L107.96,531.83L107.87,533.4L107.42,535.53L106.79,537.74L105.8,539.77L104.99,540.42L103.93,541.24L103.56,540.41L103.27,539.48L102.94,538.79L101.4,538.94z"/>
	</g>
</svg>
