<?xml version="1.0" encoding="utf-8"?>
<!-- (c) ammap.com | SVG map of North Korea - Low -->
<svg xmlns="http://www.w3.org/2000/svg" xmlns:amcharts="http://amcharts.com/ammap" xmlns:xlink="http://www.w3.org/1999/xlink" version="1.1">
	<defs>
		<style type="text/css">
			.land
			{
				fill: #CCCCCC;
				fill-opacity: 1;
				stroke:white;
				stroke-opacity: 1;
				stroke-width:0.5;
			}
		</style>

		<amcharts:ammap projection="mercator" leftLongitude="124.2164294" topLatitude="43.01159" rightLongitude="130.6988006" bottomLatitude="37.6733322"></amcharts:ammap>

		<!-- All areas are listed in the line below. You can use this list in your script. -->
		<!--{id:"KP-13"},{id:"KP-10"},{id:"KP-02"},{id:"KP-03"},{id:"KP-08"},{id:"KP-04"},{id:"KP-07"},{id:"KP-09"},{id:"KP-01"},{id:"KP-05"},{id:"KP-06"}-->

	</defs>
	<g>
		<path id="KP-13" title="Rasŏn" class="land" d="M749.28,134.68L747.57,131.27L746.05,133.86L749.28,134.68zM777.84,62.67L769.54,69.2L746.08,91.24L738.74,131.91L764.03,106.77L799.53,112.7L777.84,62.67z"/>
		<path id="KP-10" title="Ryanggang" class="land" d="M576.19,155.69L471.62,161.77L504.69,229.59L485.36,263.65L360.72,239.7L344.08,201.77L322.03,250.22L335.39,251.93L352.07,301.57L387.94,296.56L392.4,313.63L427.26,308.15L407.88,351.27L439.2,393.64L435.43,422.54L463.98,395.75L492.2,394.92L510.92,362.86L511.56,326.52L552.05,298.54L581.14,310.85L569.45,256.43L579.94,235.91L563.56,223.33L554.23,174.16L576.19,155.69z"/>
		<path id="KP-02" title="P'yŏngan-namdo" class="land" d="M345.14,515.28L366.05,463.51L333.27,433.36L288.21,481.59L265.26,484.53L264.37,505.26L222.79,510.04L153.25,555.9L139.87,578.09L154.25,585.82L148.29,613.1L114.57,678.16L175.31,700.99L168.53,681.8L174.31,608.9L204.19,621.61L226.48,609.94L249.23,622.08L268.61,658.06L302.17,649.3L289.64,626.22L299.19,625.52L341.87,636.09L347.23,614.59L308.27,597.93L303.8,562.8L317.28,513.07L345.14,515.28z"/>
		<path id="KP-03" title="P'yŏngan-bukto" class="land" d="M49.18,578.97L49.91,574.33L47.49,575.98L49.18,578.97zM61.29,566.09L59.9,561.88L58.24,566.25L61.29,566.09zM59.61,556.36L47.86,561.43L57.68,561.33L59.61,556.36zM83.26,563.1L88.63,550.74L75.3,568.21L83.26,563.1zM2.45,520.33L2.77,516.07L0.47,519.55L2.45,520.33zM148.82,381.84L84.78,409.26L20.02,471.52L35.99,483.72L14.05,501.38L43.94,517.18L52.98,553.02L66.37,522.2L112.07,556.96L153.25,555.9L222.79,510.04L264.37,505.26L265.26,484.53L178.64,438.7L170.48,395.15L148.82,381.84z"/>
		<path id="KP-08" title="Hamgyŏng-namdo" class="land" d="M552.05,298.54L511.56,326.52L510.92,362.86L492.2,394.92L463.98,395.75L435.43,422.54L439.2,393.64L407.88,351.27L427.26,308.15L392.4,313.63L380.95,340.7L390.02,359.65L343.17,398.83L333.27,433.36L366.05,463.51L345.14,515.28L317.28,513.07L303.8,562.8L308.27,597.93L347.23,614.59L359.07,583.95L378.68,581.45L398.11,582.62L412.45,598.43L405.9,534.34L420.99,514.51L468.2,480.08L507.74,482.8L610.38,396.14L581.28,355.37L581.14,310.85L552.05,298.54z"/>
		<path id="KP-04" title="Chagang-do" class="land" d="M337.48,199.43L304.62,204.42L285.23,267.65L221.86,341.7L191.43,343.93L148.82,381.84L170.48,395.15L178.64,438.7L265.26,484.53L288.21,481.59L333.27,433.36L343.17,398.83L390.02,359.65L380.95,340.7L392.4,313.63L387.94,296.56L352.07,301.57L335.39,251.93L322.03,250.22L344.08,201.77L337.48,199.43z"/>
		<path id="KP-07" title="Kangwŏn-do" class="land" d="M378.68,581.45L359.07,583.95L347.23,614.59L341.87,636.09L344.15,657.32L304.43,707.52L336.74,777.25L363.53,756.37L480.72,753.82L512.32,706.46L437.69,628.48L392.6,615.02L398.11,582.62L378.68,581.45z"/>
		<path id="KP-09" title="Hamgyŏng-bukto" class="land" d="M695.55,0L677.26,87.12L656.54,99.27L632.5,86.6L616.61,124.2L576.19,155.69L554.23,174.16L563.56,223.33L579.94,235.91L569.45,256.43L581.14,310.85L581.28,355.37L610.38,396.14L619.36,373.22L679.96,350.1L689.93,263.7L670.54,235.19L738.74,131.91L746.08,91.24L769.54,69.2L746.19,42.57L743.27,10.04L714.83,0.23L695.55,0z"/>
		<path id="KP-01" title="P'yŏngyang" class="land" d="M204.19,621.61L174.31,608.9L168.53,681.8L196.42,672.64L233.15,693.03L247.9,681.35L237.47,651.17L268.61,658.06L249.23,622.08L226.48,609.94L204.19,621.61z"/>
		<path id="KP-05" title="Hwanghae-namdo" class="land" d="M136.2,844.89L139.28,840.63L124.84,850.75L136.2,844.89zM116.91,837.83L120.89,832.78L115.08,835.83L116.91,837.83zM103.16,831.91L101.41,830.11L97.38,834.44L103.16,831.91zM83.3,721.56L71.82,723.32L85.83,726.94L83.3,721.56zM140.48,855.14L188.82,816.2L171.22,799.48L227.76,824.74L234.49,844.96L270.38,821.86L270.89,774.77L211.97,776.87L184.41,748.06L177.42,705.8L160.15,696.7L95.68,711.57L81.59,760.31L96.8,768.97L56.65,784.84L130.3,792.32L95.13,816.2L129.7,815.04L135.66,834.33L160.52,821.04L140.48,855.14z"/>
		<path id="KP-06" title="Hwanghae-bukto" class="land" d="M299.19,625.52L289.64,626.22L302.17,649.3L268.61,658.06L237.47,651.17L247.9,681.35L233.15,693.03L196.42,672.64L168.53,681.8L175.31,700.99L177.42,705.8L184.41,748.06L211.97,776.87L270.89,774.77L270.38,821.86L301.19,835.87L302.94,814.27L336.74,777.25L304.43,707.52L344.15,657.32L341.87,636.09L299.19,625.52z"/>
	</g>
</svg>
