<?xml version="1.0" encoding="utf-8"?>
<!-- (c) ammap.com | SVG map of Tokelau - Low -->
<svg xmlns="http://www.w3.org/2000/svg" xmlns:amcharts="http://amcharts.com/ammap" xmlns:xlink="http://www.w3.org/1999/xlink" version="1.1">
	<defs>
		<style type="text/css">
			.land
			{
				fill: #CCCCCC;
				fill-opacity: 1;
				stroke:white;
				stroke-opacity: 1;
				stroke-width:0.5;
			}
		</style>

		<amcharts:ammap projection="mercator" leftLongitude="-172.5217437744" topLatitude="-8.5307749243" rightLongitude="-171.1786651611" bottomLatitude="-9.4477071661"></amcharts:ammap>
		
		<!-- All areas are listed in the line below. You can use this list in your script. -->
		<!--{id:"TK"}-->

	</defs>
	<g>
		<path id="TK" title="Tokelau" class="land" d="M784.32,550.46L785.61,550.34L787.51,547.55L786.72,546.06L784.03,547.99L784.32,550.46zM790.43,543.54L789.02,543.83L789.56,544.65L788.67,544.32L789.07,545.99L787.96,544.43L787.76,545.8L788.56,547.02L790.33,544.97L790.43,543.54zM783.77,543.61L784.8,542.56L784.44,541.99L783.12,542.43L783.77,543.61zM781.05,535.63L779.51,536.41L780.43,537.66L781.52,535.94L780.28,536.1L781.05,535.63zM779.33,534.96L778.11,534.85L778.31,535.97L779.48,535.66L779.33,534.96zM789.68,531.76L788.73,532.21L790.09,532.87L790.95,534.89L791.52,539.43L790.43,540.5L791.6,541.23L792.31,539.59L791.95,534.84L791.02,532.13L789.68,531.76zM790.32,531.42L790.75,530.64L789.35,530.93L790.32,531.42zM790.82,528.93L790.57,528.29L789.85,528.61L789.75,530.23L790.83,530.18L790.82,528.93zM773.93,527.52L772.38,527.83L773,529L773.78,528.77L773.93,527.52zM789.55,528.43L790.81,528.09L790.74,527.26L789.71,527.45L789,528.27L789.55,528.43zM790.57,525.33L789.89,524.92L789.46,525.71L790.57,525.33zM789.18,524.12L789.96,523.89L789.95,522.88L788.86,523.28L789.18,524.12zM790.85,521.61L788.53,522.07L790.7,522.39L790.85,521.61zM790.64,519.33L789.09,519.25L788.47,520.26L790.64,520.73L790.64,519.33zM790.82,518.51L788.31,518.72L790.85,519.13L790.82,518.51zM790.78,512.84L789.43,512.75L789.81,513.82L791.91,514.77L792.44,512.96L790.78,512.84zM793.21,510.75L793.38,509.32L790.58,509.31L792.78,511.21L793.21,510.75zM749.8,508.33L746.26,508.1L745.35,510.26L746.6,510.85L752.26,508.9L749.8,508.33zM795.01,505.86L792.69,504.61L794.7,506.33L795.01,505.86zM793.62,504.14L793.93,505L795.48,505.08L795.63,503.99L793.62,504.14zM796.88,504L796.26,503.84L796.73,502.75L794.56,502.12L796.26,503.22L796.26,504.31L796.88,504zM790.38,486.36L789.34,484.7L788.29,485.37L794.3,492.93L795.01,492.83L795.27,494.63L797.62,497.32L797.74,498.66L796.51,500.73L795.23,500L794.38,500.65L796.51,501.65L799.21,499.65L799.27,497.97L794.92,491.3L790.38,486.36zM788.34,485.15L788.08,484.32L787.68,485.02L788.34,485.15zM784.43,480.1L781.35,478.87L780.22,480.19L780.92,480.77L782.83,480.21L787.39,484.69L788.03,483.65L784.43,480.1zM428.09,420.5L428.6,419.65L427.96,419.58L428.09,420.5zM425.29,419.77L425.65,419.01L424.82,418.79L425.29,419.77zM421.38,417.38L420.55,416.95L419.82,418.05L420.87,418.44L421.38,417.38zM412.23,414.56L409.71,412.53L410.09,414.27L412.23,414.56zM407.95,410.22L405.86,409.28L406.66,410.78L408.26,410.76L407.95,410.22zM404.99,406.55L403.4,404.46L402.49,404.6L403.57,406.36L404.99,406.55zM395.14,396.41L394.65,395.32L393.59,396.45L401.35,403.95L402.84,403.89L400.79,401.48L397.83,399.82L395.14,396.41zM391.25,391.9L391.24,386.05L389.89,389.53L390.71,391.1L390.03,391.58L390.92,391.96L390.42,392.57L391.35,393.59L391.97,393.35L391.25,391.9zM449.43,411.82L450.73,410.6L450.65,408.2L445.57,396.52L438.72,376.81L438.13,377.12L440.77,387.15L449.48,408.24L449.4,410.11L448.26,411.79L449.43,411.82zM438.09,368.98L437.26,368.8L437.84,369.25L438.14,376.67L439.08,376.25L438.66,369.23L438.09,368.98zM437.62,363.94L436.68,364.14L437.16,368.42L438.37,368.03L437.62,363.94zM393.48,383.18L396.19,376.18L396.49,369.43L394,358.11L395.06,375.06L394.32,379.34L392.3,383.69L393.48,383.18zM396.35,353.28L395.62,352.42L394.16,352.92L393.33,354.92L393.79,355.84L396.35,353.28zM440.77,350.98L439.28,350.99L440.36,351.49L440.77,350.98zM442.34,345.31L441.52,344.18L438.11,345.87L437.87,348.18L439.69,347.73L439.48,346.95L440.87,345.83L441.26,346.31L439.88,347.36L439.19,349.76L440.85,348.77L442.34,345.31zM12.23,30.95L12.91,30.53L12.34,29.61L12.23,30.95zM11.04,31.43L11.94,30.98L12.25,28.98L10.13,31.45L8.87,31.37L8.89,30.82L9.95,30.98L9.43,29.57L8.04,31.08L9.27,32.25L11.04,31.43zM13.14,30.38L14.04,29.88L12.67,28.63L13.14,30.38zM8.67,28.18L6.92,27.64L7.58,29.57L8.67,28.18zM15.05,29.41L15.47,29.08L14.13,27.4L15.05,29.41zM16.52,27.91L16.37,26.75L15.45,26.37L16.59,28.71L17.04,28.62L16.52,27.91zM15.14,26.92L14.74,26.36L16.27,28.95L15.14,26.92zM17.42,26.32L16.58,26.26L17.4,28.41L17.1,26.5L18.1,28.04L17.42,26.32zM19.28,27.8L20.16,27.34L19.28,25.74L18.75,26.04L19.28,27.8zM21.57,26.49L21.32,25.46L21.2,27.21L21.57,26.49zM23.87,26.83L23.43,24.76L23.16,26.77L23.87,26.83zM25.3,26.03L24.76,24.47L24.66,25.86L25.3,26.03zM26.77,24.11L26.17,24.15L26.46,26.15L26.77,24.11zM8.36,24.98L8.18,23.87L7.31,24.04L8.36,24.98zM28.74,25.89L28.86,23.05L28.29,22.69L28.04,25.72L28.74,25.89zM7.99,22.09L7.75,21.26L5.93,20.66L6.28,22.39L7.99,22.09zM6.48,19.11L5.93,17.28L5.71,18.66L6.48,19.11zM5.71,14.32L4.92,13.53L5.17,14.63L5.71,14.32zM11.4,2.32L11.69,0.85L10.78,0.81L10.88,2.7L11.4,2.32zM16.83,0.98L14.82,0.58L11.62,3.03L11.42,4.05L16.07,1.54L16.97,3.67L17.87,3.49L17.72,4.57L19.3,5.08L19.4,7.25L20.39,6.36L20.6,8.18L21.29,8.8L21.42,8.09L23.58,10.99L24.79,11.12L24.71,11.85L23.98,11.49L28.34,15.03L30.24,14.94L29.6,15.32L29.86,16.31L31.62,15.63L32.3,16.95L31.54,17.05L31.05,18.36L31.68,18.7L31.1,21.27L32.63,23.91L30.78,24.83L31.52,25.52L30.39,25.53L30.19,24.12L29.13,24.32L29.24,25.57L30.31,26.17L33.41,25.91L33.78,24.75L32.36,19.46L33.15,15.15L24.03,9.36L20.54,6.24L16.83,0.98zM4.51,0L0.73,0.99L1.07,3.73L3.07,6.59L4.03,9.71L4.04,5.96L2.69,2.73L2.1,3.11L2.21,2.06L3.22,1.16L7.41,2.41L7.71,1.22L7.77,2.68L8.57,1.03L4.51,0z"/>
	</g>
</svg>