<?xml version="1.0" encoding="utf-8"?>
<!-- (c) ammap.com | SVG map of Zambia - Low -->
<svg xmlns="http://www.w3.org/2000/svg" xmlns:amcharts="http://amcharts.com/ammap" xmlns:xlink="http://www.w3.org/1999/xlink" version="1.1">
	<defs>
		<style type="text/css">
			.land
			{
				fill: #CCCCCC;
				fill-opacity: 1;
				stroke:white;
				stroke-opacity: 1;
				stroke-width:0.5;
			}
		</style>

		<amcharts:ammap projection="mercator" leftLongitude="21.999371" topLatitude="-8.223838" rightLongitude="33.706042" bottomLatitude="-18.080477"></amcharts:ammap>

		<!-- All areas are listed in the line below. You can use this list in your script. -->
		<!--{id:"ZM-01"},{id:"ZM-02"},{id:"ZM-03"},{id:"ZM-04"},{id:"ZM-05"},{id:"ZM-06"},{id:"ZM-07"},{id:"ZM-08"},{id:"ZM-09"},{id:"ZM-10"}-->

	</defs>
	<g>
		<path id="ZM-01" title="Western" class="land" d="M0.064,329.825L0.962,330.248L3.515,332.736L6.508,334.055L9.798,332.672L10.506,331.573L11.997,330.529L12.999,328.947L14.158,328.854L16.913,330.228L19.357,332.651L21.053,333.68L24.897,337.444L29.349,339.908L31.113,342.287L32.645,343.024L34.882,343.366L36.829,344.656L38.045,346.413L39.576,346.772L41.49,347.875L42.299,347.732L43.268,346.972L43.497,344.783L44.313,342.711L47.487,342.31L49.445,340.475L51.391,340.512L57.073,344.009L57.871,344.835L58.808,347.114L59.5,347.832L60.939,347.938L63.094,346.733L64.016,346.775L65.417,347.649L65.671,350.428L66.707,351.793L69.502,352.724L72.215,353.012L72.118,353.996L70.521,355.647L70.363,357.003L71.058,357.642L72.245,357.519L72.581,358.673L73.133,358.96L75.592,358.208L77.547,357.067L80.717,356.809L84.566,353.639L86.568,352.928L89.161,352.765L91.552,351.999L95.68,349.518L97.927,349.179L99.38,347.632L102.695,349.2L105.657,347.55L107.455,347.108L108.285,346.02L109.016,346.18L109.37,347.598L109.884,347.951L112.028,348.089L113.449,348.592L115.935,347.875L118.458,348.594L121.336,346.78L122.964,346.544L124.327,344.946L125.471,345.755L126.233,345.805L128.271,344.032L129.936,343.676L132.098,342.673L133.844,343.293L135.154,344.46L135.94,344.479L136.323,344.095L136.426,342.677L137.331,341.903L138.204,342.563L138.397,344.11L138.827,344.871L141.516,345.861L144.079,345.841L145.983,345.186L146.943,343.964L148.019,343.467L148.756,343.874L150.206,345.652L152.414,347.237L153.77,347.223L154.747,346.063L156.173,346.635L157.921,346.027L158.777,346.069L159.688,347.631L161.746,349.708L162.002,353.467L162.75,355.026L163.679,355.956L169.286,357.56L171.22,357.801L173.955,359.59L176.092,360.522L177.588,361.744L179.695,361.787L181.843,361.115L182.451,361.283L183.232,362.129L183.931,364.104L183.964,365.327L183.163,367.684L182.017,369.214L181.805,370.971L181.292,372.16L181.099,374.597L180.2,375.533L177.257,376.495L176.375,377.672L176.419,383.429L179.279,386.549L181.062,387.319L182.905,386.713L188.849,386.643L192.613,384.759L194.798,384.5L197.946,383.231L199.253,383.284L200.708,383.872L202.65,383.462L204.145,385.024L204.915,385.317L206.853,385.277L208.218,384.617L208.218,384.617L208.91,385.309L208.846,386.03L206.867,390.113L206.716,396.562L204.938,397.966L204.518,399.748L203.346,401.85L203.441,403.676L205.314,407.258L205.31,411.132L204.495,412.812L202.723,414.202L203.261,416.357L202.956,417.401L202.335,417.786L200.117,417.977L197.248,420.799L197.145,421.553L197.737,423.424L197.563,427.723L197.563,427.723L198.928,429.823L198.984,430.74L197.154,432.757L196.943,436.111L196.191,437.622L193.881,438.098L193.01,438.838L192.964,439.763L194.168,441.25L194.225,442.879L193.337,444.08L191.669,445.097L191.493,445.72L192.268,446.888L194.024,447.887L194.816,448.722L194.795,450.17L193.62,451.474L193.369,452.382L193.688,453.783L195.116,455.308L196.049,456.005L197.348,455.954L199.771,453.578L200.869,453.996L201.722,454.988L201.813,457.302L201.172,459.457L201.006,462.775L200.226,465.42L199.13,466.302L199.49,468.836L198.43,470.23L198.288,471.741L198.504,472.578L201.43,475.894L203.326,475.63L204.123,476.799L202.467,476.938L202.208,478.09L199.768,480.016L198.783,482.31L197.111,484.797L196.58,488.002L193.143,489.498L191.143,491.367L189.479,491.79L186.801,493.775L181.461,501.16L180.024,502.525L178.502,502.854L178.034,503.539L178.386,504.783L182.711,508.418L183.125,510.359L183.88,511.604L187.095,512.463L190.829,512.604L192.506,513.389L193.207,514.099L193.365,515.218L192.708,516.854L192.701,519.592L194.662,525.601L194.755,526.896L194.004,529.123L193.05,530.26L187.313,532.984L187.151,533.819L187.777,535.864L187.501,537.3L186.296,538.844L183.816,540.015L183.11,541.086L182.927,543.174L183.539,544.507L183.685,546.02L181.314,550.109L178.852,552.752L178.783,553.897L179.207,554.958L178.943,556.198L179.377,557.299L179.394,558.771L176.766,561.877L176.281,566.809L174.971,567.011L174.971,567.011L173.656,567.632L172.497,567.127L171.633,566.021L169.765,566.077L168.863,565.612L167.142,566.266L166.185,566.044L165.379,565.052L164.07,565.359L163.566,564.679L161.693,563.963L158.254,565.212L156.857,565.269L155.059,566.611L152.549,566.648L151.576,566.258L149.86,566.965L149.299,566.042L149.342,564.794L147.962,563.295L146.591,562.745L142.433,562L139.872,563.06L140.167,563.431L139.448,563.923L136.434,563.219L135.035,563.213L133.32,562.6L85.129,572.612L84.882,570.944L82.952,569.08L81.324,568.884L79.738,567.347L78.284,567.806L76.57,566.768L73.961,567.057L73.161,566.387L73.06,565.646L71.361,564.094L70.561,562.712L68.065,561.973L68.393,561.501L67.337,560.591L67.293,559.536L65.854,559.266L64.67,558.383L63.199,554.324L62.004,553.911L60.252,551.903L60.167,550.836L59.497,550.579L58.671,549.497L54.956,547.218L53.833,545.88L48.127,543.697L47.872,543.085L48.257,542.231L47.106,540.467L43.952,537.987L43.911,537.319L43.2,536.962L42.946,535.853L41.312,535.396L41.07,535.025L41.328,534.286L37.042,530.44L36.789,529.615L34.777,527.21L30.779,524.117L29.647,522.836L29.636,521.686L27.865,520.559L22.944,515.22L21.202,514.348L21.106,513.383L20.258,512.67L18.848,510.438L16.908,509.706L16.118,508.738L15.727,507.376L15.02,506.934L13.489,506.784L12.8,505.661L11.386,504.918L10.681,504.148L9.231,502.044L7.546,501.879L8.359,500.892L7.717,498.99L7.959,498.709L7.785,496.683L6.505,492.357L5.743,491.802L4.171,489.388L4.506,487.663L3.447,487.232L2.788,486.295L0.76,484.643L0.018,483.394z"/>
		<path id="ZM-02" title="Central" class="land" d="M465.341,236.81L466.711,235.57L467.577,233.92L467.728,230.667L468.045,229.953L474.28,227.254L476.333,227.163L477.319,227.676L478.587,229.087L479.406,231.026L479.634,232.966L481.91,236.256L483.288,237.262L485.094,237.661L486.07,239.299L495.196,242.784L497.01,242.989L498.124,243.502L501.166,243.655L502.817,245.534L506.421,245.872L507.17,246.938L507.185,249.94L505.941,253.812L507.049,255.695L510.5,257.587L510.637,259.096L509.994,261.055L510.114,261.906L512.446,264.476L513.441,264.844L515.144,264.707L516.726,262.973L517.916,262.889L519.26,265.727L521.503,267.05L522.27,267.872L522.209,268.776L520.419,271.3L519.765,273.184L520.91,276.89L520.864,278.073L520.438,278.934L520.883,279.751L526.556,283.199L531.39,283.405L535.304,284.618L537.952,284.848L539.464,286.289L540.69,288.385L543.075,290.207L544.764,290.201L545.696,289.649L546.51,288.364L546.72,285.746L548.207,284.793L552.459,284.407L555.411,285.596L556.709,286.856L557.033,290.928L557.648,292.614L557.686,301.938L559.745,305.603L561.662,307.726L561.832,313.754L561.832,313.754L560.19,315.463L555.858,316.478L553.258,318.857L551.681,318.929L549.779,321.986L548.856,322.896L545.583,323.591L542.455,326.991L542.705,329.433L542.224,331.19L539.803,333.097L539.385,334.74L537.13,335.108L536.146,336.062L533.742,337.387L533.498,337.88L533.913,338.969L533.733,339.539L532.183,340.031L531.7,340.932L528.881,343.81L485.905,343.882L483.829,344.336L483.864,345.122L485.378,345.776L487.084,351.254L492.326,353.028L494.178,354.327L495.085,355.857L495.147,358.278L493.487,361.053L489.232,364.026L488.525,365.503L486.288,367.551L484.275,370.492L483.024,371.364L480.894,371.634L480.312,374.033L478.035,375.566L477.658,378.189L475.738,385.143L476.022,385.947L477.609,387.054L477.623,388.76L477.623,388.76L474.504,388.889L467.294,392.104L461.176,393.78L458.286,395.583L451.461,398.62L448.585,400.45L447.012,401.148L444.528,401.399L441.46,403.23L430.685,403.349L424.428,404.863L420.812,407.007L418.759,408.743L414.596,410.807L412.78,411.054L411.121,411.841L408.201,416.551L407.628,417.038L405.406,417.781L402.561,417.956L400.889,418.529L397.019,418.639L392.931,419.854L390.223,420.03L388.799,420.482L384.607,419.376L381.758,419.178L380.098,418.584L378.652,418.692L377.314,419.997L375.866,423.828L375.872,425.1L376.48,426.941L376.402,430.158L375.061,431.135L374.21,432.503L373.481,433.037L372.722,433.135L370.349,431.277L366.183,429.187L362.707,428.125L360.35,426.994L355.319,425.571L348.674,425.544L343.244,426.891L342.902,427.849L344.218,430.539L346.759,431.595L348.715,431.896L350.537,432.844L352.128,435.263L352.934,437.897L352.869,442.474L352.046,444.085L350.778,444.821L349.74,444.969L347.398,444.915L345.793,444.317L344.916,444.38L344.591,444.896L344.422,446.958L343.546,448.609L343.546,448.609L341.337,449.694L340.008,449.346L338.702,449.869L337.813,449.608L336.362,447.248L336.958,444.876L336.724,443.463L335.196,442.04L334.526,440.943L331.934,439.988L331.097,438.826L329.993,438.702L329.46,439.039L327.123,442.709L324.751,444.563L324.073,444.731L323.177,444.302L322.202,444.304L321.216,445.134L316.181,454.269L315.163,454.626L313.663,452.868L312.597,446.564L311.493,443.488L311.239,440.995L310.43,438.924L309.458,438.65L303.822,438.665L301.366,438.005L295.935,437.975L295.576,437.376L296.424,436.113L296.157,435.395L293.939,434.281L290.662,432L289.084,431.511L285.994,429.719L260.38,429.648L258.107,429.01L253.937,428.938L251.873,428.315L247.702,428.243L245.627,427.619L241.512,427.549L238.588,426.874L228.53,426.896L223.138,427.578L197.563,427.723L197.563,427.723L197.737,423.424L197.145,421.553L197.248,420.799L200.117,417.977L202.335,417.786L202.956,417.401L203.261,416.357L202.723,414.202L204.495,412.812L205.31,411.132L205.314,407.258L203.441,403.676L203.346,401.85L204.518,399.748L204.938,397.966L206.716,396.562L206.867,390.113L208.846,386.03L208.91,385.309L208.218,384.617L208.218,384.617L208.965,384.154L209.951,384.271L211.436,383.824L213.401,381.964L214.65,381.822L217.342,382.518L222.662,382.567L224.952,383.21L229.789,383.282L231.701,383.882L236.015,383.974L237.75,384.543L245.721,385.36L248.405,386.004L249.712,388.523L252.213,388.924L253.589,389.996L255.387,390.425L257.027,392.132L258,392.248L258.611,392.068L259.977,390.656L260.321,388.427L261.814,385.938L264.448,382.821L268.283,380.267L269.326,377.346L270.226,376.421L272.084,375.656L274.847,376.252L276.948,375.667L282.25,375.62L284.11,374.399L286.338,373.648L292.642,373.552L294.504,372.765L294.896,371.676L294.91,363.805L296.227,361.183L296.123,358.033L293.359,353.722L289.804,351.223L289.357,350.485L289.657,350.062L292.066,348.898L292.237,342.966L294.756,338.499L294.894,337.566L294.626,337.047L291.797,335.088L291.279,333.745L289.714,331.467L289.714,331.467L314.38,331.466L318.002,332.225L318.492,332.845L318.606,335.799L319.768,337.221L320.467,339.302L320.692,341.493L321.464,342.983L322.559,343.212L325.639,341.471L326.637,340.261L326.776,338.938L326.293,337.396L327.011,335.815L328.43,335.683L329.926,337.073L330.795,336.775L331.804,333.872L332.913,332.508L333.248,330.476L334.41,329.741L334.721,328.112L335.58,326.988L336.209,326.767L339.788,328.64L345.219,328.696L346.153,329.039L350.628,340.532L351.988,342.968L353.656,343.671L354.351,343.654L355.965,342.675L359.799,341.889L365.825,341.746L368.303,339.814L372.461,341.095L375.174,341.102L376.655,340.488L378.298,340.425L381.999,341.728L385.037,341.768L391.681,339.821L396.444,339.796L397.265,339.521L397.546,337.748L396.861,335.638L396.823,333.512L397.087,332.388L397.66,331.654L406.301,325.058L408.217,322.337L409.479,321.309L413.764,319.371L419.014,312.629L419.014,312.629L422.312,310.662L424.347,310.193L425.618,310.886L426.661,312.113L427.993,314.652L431.888,311.604L434.935,310.528L435.549,309.678L435.938,307.894L437.887,308.88L438.87,307.561L440.062,307.638L443.433,306.793L445.46,304.392L446.352,304.193L447.093,302.683L448.569,301.551L450.5,301.543L451.451,300.784L452.204,300.7L454.947,302.2L455.424,302.275L457.046,301.476L457.491,302.082L457.253,302.786L457.762,303.798L456.055,305.258L456.625,306.576L455.972,309.009L453.132,309.805L453.699,310.955L453.334,311.662L453.491,312.568L455.624,314.306L457.604,313.904L459.552,315.421L463.395,314.283L465.307,315.389z"/>
		<path id="ZM-03" title="Eastern" class="land" d="M671.215,233.319L670.779,234.482L671.005,235.681L672.111,236.631L673.865,237.135L673.863,241.921L674.959,242.604L675.293,244.162L676.836,245.899L677.243,248.175L678.942,247.633L680.655,247.728L682.489,246.603L683.768,246.598L684.194,247.229L685.446,247.398L685.927,247.802L686.759,247.201L687.446,247.232L688.098,248.735L687.966,249.443L685.734,250.963L685.277,251.817L683.81,252.138L683.389,253.218L683.837,254.592L681.262,255.984L680.206,257.47L680.116,258.348L678.973,259.017L677.183,260.844L676.293,260.141L675.612,260.09L674.234,258.936L671.568,259.602L671.05,259.905L671.102,260.547L669.271,262.99L667.759,263.648L667.28,264.12L666.937,265.429L666.221,265.968L665.805,265.588L666.066,264.125L665.484,263.507L664.524,263.151L663.603,263.242L661.781,264.163L660.561,263.051L658.779,264.126L656.988,266.568L656.33,266.925L655.807,269.628L653.071,272.901L652.812,277.604L653.099,278.388L656.363,280.858L656.98,282.288L656.466,283.792L656.162,287.003L654.662,289.353L655.208,291.048L654.22,292.312L654.251,293.667L653.91,294.406L654.279,297.246L655.818,298.979L656.422,300.535L654.357,301.596L653.63,303.38L652.762,303.499L652.182,304.305L650.842,309.176L650.826,311.079L650.395,312.503L648.439,315.425L646.196,315.546L645.932,317.906L646.195,318.931L644.652,320.352L643.858,320.432L642.453,321.226L641.515,321.175L640.393,322.93L638.979,322.812L637.893,322.053L636.827,322.294L636.991,322.633L636.415,322.81L636.846,323.914L635.862,325.202L639.184,326.658L640.835,326.938L641.219,326.445L643.186,327.242L643.491,328.037L643.228,328.727L644.514,329.341L645.69,330.457L646.216,331.459L645.776,331.973L644.467,331.648L643.179,333.165L642.382,333.001L641.756,335.099L643.036,335.145L643.841,336.39L644.395,335.193L645.571,335.315L646.379,335.994L647.18,335.848L647.214,336.743L647.764,336.44L648.809,337.221L649.674,339.47L651.654,340.874L653.28,344.792L653.896,344.635L655.447,345.446L655.649,346.528L655.137,347.437L655.043,349.074L655.521,350.094L656.413,350.247L657.304,351.46L657.884,351.608L659.186,350.117L659.166,348.347L660.12,347.131L661.628,346.182L663.271,346.054L663.939,344.755L664.474,344.618L666.358,345.824L666.725,347.305L667.886,348.816L632.237,361.688L622.732,365.863L610.29,368.318L601.661,371.201L599.203,372.34L592.737,373.81L584.58,377.814L576.982,379.532L564.421,386.493L552.166,388.854L540.944,392.445L524.266,396.506L507.467,402.913L498.409,407.288L489.643,409.58L489.643,409.58L488.992,408.677L488.807,407.651L488.839,400.326L488.565,399.09L486.566,396.574L484.324,395.252L482.351,392.347L480.21,391.07L479.358,389.157L477.623,388.76L477.623,388.76L477.609,387.054L476.022,385.947L475.738,385.143L477.658,378.189L478.035,375.566L480.312,374.033L480.894,371.634L483.024,371.364L484.275,370.492L486.288,367.551L488.525,365.503L489.232,364.026L493.487,361.053L495.147,358.278L495.085,355.857L494.178,354.327L492.326,353.028L487.084,351.254L485.378,345.776L483.864,345.122L483.829,344.336L485.905,343.882L528.881,343.81L531.7,340.932L532.183,340.031L533.733,339.539L533.913,338.969L533.498,337.88L533.742,337.387L536.146,336.062L537.13,335.108L539.385,334.74L539.803,333.097L542.224,331.19L542.705,329.433L542.455,326.991L545.583,323.591L548.856,322.896L549.779,321.986L551.681,318.929L553.258,318.857L555.858,316.478L560.19,315.463L561.832,313.754L561.832,313.754L568.627,313.428L570.4,311.62L574.195,309.239L574.822,308.438L575.558,306.228L575.791,302.232L577.302,299.414L578.678,298.807L579.481,298.032L580.977,294.318L584.084,293.211L585.33,291.872L589.447,289.965L590.244,288.692L590.156,286.247L590.496,283.95L591.828,282.842L595.607,281.106L596.911,279.835L597.33,277.514L598.061,275.892L599.704,274.494L600.564,272.125L600.784,270.118L601.291,269.033L601.381,266.686L603.367,260.227L603.546,257.929L604.131,256.453L604.232,253.817L604.978,251.616L606.22,250.677L607.232,248.31L608.587,246.524L610.966,244.768L613.405,241.104L617.083,242.223L619.054,242.147L621.984,241.433L623.99,239.714L625.199,235.96L625.895,234.615L626.622,234.072L629.248,233.323L635.87,233.218L639.803,231.36L645.511,229.963L648.009,229.838L649.679,229.287L651.983,229.05L662.736,225.097L665.021,221.075L666.079,217.638L669.197,211.5L670.22,208.748L674.153,206.323L674.153,206.323L674.074,210.375L674.689,212.25L674.379,212.964L675.143,214.288L675.316,215.43L673.507,218.99L674.408,220.02L674.674,222.132L673.913,223.949L673.65,227.337L671.642,230.889z"/>
		<path id="ZM-04" title="Luapula" class="land" d="M451.293,9.231L451.421,10.383L450.905,10.861L450.765,11.88L449.348,14.745L447.092,16.82L444.992,17.087L442.215,18.431L440.683,20.522L438.972,24.069L437.799,25.354L436.467,27.835L435.034,32.756L434.75,35.162L432.604,40.75L431.24,42.499L428.297,43.462L427.456,44.213L426.474,48.938L424.653,49.813L423.784,52.837L424.136,53.348L427.75,55.039L429.07,56.168L430.089,56.533L430.919,56.278L432.02,56.489L433.594,58.603L435.169,59.138L435.786,59.983L437.505,60.015L438.108,61.907L437.617,62.665L437.676,65.127L438.832,68.292L437.01,70.712L436.887,73.362L438.707,78.618L440.498,79.791L442.061,79.288L443.633,79.456L444.45,80.246L445.473,82.589L446.085,83.182L448.295,84.186L449.679,85.956L451.847,86.565L453.075,86.269L455.508,86.912L457.312,87.969L459.396,88.254L461.601,89.386L465.359,89.714L466.833,91.995L468.464,93.484L469.003,95.492L469.757,96.142L471.154,96.394L472.123,97.223L473.491,100.421L471.559,104.88L471.473,107.042L472.3,109.523L473.196,110.531L472.711,111.577L470.884,113.572L470.173,115.531L469.928,118.364L469.197,119.866L468.485,120.545L466.103,120.758L463.482,120.064L458.762,120.126L457.078,120.918L453.911,123.932L449.605,126.025L447.79,126.368L446.778,126.946L445.449,128.473L443.225,129.756L442.862,132.664L440.949,135.627L441.655,139.135L439.032,142.696L438.682,144.863L437.978,145.226L435.697,145.377L434.063,147.033L428.297,150.191L427.346,151.082L426.998,152.31L426.881,159.215L425.05,161.252L423.116,162.685L422.269,164.143L422.875,164.903L427.374,166.464L428.485,167.22L430.177,169.34L431.407,170.174L432.229,171.403L433.386,172.302L436.447,172.581L438.812,173.694L440.137,173.847L440.238,172.236L440.826,171.031L440.815,169.679L438.9,166.718L438.666,164.535L436.877,161.697L436.996,160.675L440.249,159.292L446.462,155.554L449.269,154.524L454.102,151.466L455.976,150.889L459.512,153.19L461.342,153.537L463.597,154.902L464.241,155.63L465.449,158.394L468.413,161.074L469.875,163.406L470.033,165.934L470.62,168.322L469.966,170.522L469.874,174.589L469.299,175.846L468.451,182.307L467.143,187.391L467.313,189.459L467.855,189.534L469.672,188.642L470.865,186.221L473.19,184.583L474.42,181.488L484.05,181.404L488.139,184.53L489.53,185.104L499.043,191.817L500.215,193.324L503.625,195.896L504.222,197.045L504.222,197.045L503.201,199.479L502.812,203.449L501.542,205.063L499.39,206.931L493.991,214.527L491.562,216.553L487.431,217.484L484.802,217.635L483.279,218.169L480.12,218.289L478.077,218.9L474.567,218.97L468.715,220.217L466.074,220.349L463.815,221.207L462.899,223.968L463.541,225.87L463.601,229.938L466.175,233.01L465.301,236.74L465.301,236.74L464.88,236.494L462.517,236.776L460.196,238.591L456.857,239.616L454.85,239.584L452.632,238.762L451.377,238.744L449.243,240.163L447.69,240.568L446.258,241.515L444.973,243.614L444.286,247.266L446.641,250.931L448.938,251.418L449.127,252.656L448.496,253.951L446.865,255.529L445.402,255.626L438.921,252.075L436.946,252.417L435.085,252.074L434.719,251.843L434.739,250.658L433.011,249.126L430.986,249.761L428.485,249.512L424.815,251.011L424.271,250.937L423.502,250.043L421.058,250.643L419.896,250.369L419.259,249.808L417.393,246.605L417.036,244.478L413.95,239.902L408.498,235.434L407.125,233.186L403.904,230.423L402.77,226.487L402.137,226.107L400.486,226.508L399.227,226.097L395.66,224.174L394.148,221.789L391.877,221.67L391.131,221.097L389.512,220.815L387.547,219.773L387.417,218.522L386.234,216.605L383.663,216.824L383.544,215.406L384.165,213.116L383.446,211.54L382.221,210.487L383.422,208.912L382.415,207.577L383.231,206.355L383.207,205.647L380.248,201.991L380.725,198.412L381.275,197.07L381,195.309L382.503,193.578L382.519,192.772L383.1,191.582L382.95,189.89L384.25,189.551L384.841,189.056L384.735,187.558L384.23,186.287L384.675,184.378L385.515,183.879L386.534,181.393L386.221,179.954L387.117,177.65L387.089,175.735L385.882,173.019L386.809,171.853L387.03,169.893L387.772,168.522L387.806,165.151L388.279,164.298L389.567,163.225L389.969,158.614L390.507,156.555L393.484,152.656L393.875,150.127L395.085,149.5L396.974,149.72L397.312,148.246L398.559,147.381L399.042,146.321L398.464,144.82L397.2,143.703L397.52,140.18L395.454,138.259L395.306,137.638L395.826,132.756L394.565,129.052L395.442,124.859L394.094,123.579L391.914,120.319L392.215,119.194L394.572,115.895L394.729,110.832L395.192,109.469L394.974,108.74L395.443,107.779L394.761,103.878L396.489,100.259L396.647,98.917L397.515,96.9L397.523,95.698L397.712,95.377L398.885,95.249L399.057,94.804L398.474,93.75L397.664,93.113L397.339,91.806L395.83,91.567L394.705,90.231L395.02,86.43L394.023,84.471L394.173,82.536L393.386,81.624L392.414,81.21L394.487,80.475L394.627,79.741L394.28,79.581L392.882,80.237L391.924,79.852L391.478,75.885L390.82,75.26L389.644,75.043L389.425,74.232L388.248,73.05L388.631,71.002L389.339,69.406L388.933,68.088L387.713,67.651L385.164,70.612L383.562,71.45L382.364,71.619L381.269,71.234L380.448,70.764L379.058,69.004L378.994,66.482L379.457,64.146L380.999,61.132L384.115,58.372L389.708,54.5L396.085,50.725L398.972,48.491L402.064,45.468L410.943,34.148L413.717,29.59L414.326,28.122L414.956,24.659L414.023,20.604L411.077,15.332L411.264,14.972z"/>
		<path id="ZM-05" title="Northern" class="land" d="M523.52,1.698L524.795,5.162L529.02,11.025L536.897,21.07L539.238,22.81L542.257,24.257L545.186,24.355L547.006,23.103L547.443,22.326L548.869,21.728L551.319,22.533L552.656,24.367L553.785,24.273L555.33,23.002L555.832,23.531L556.248,23.221L557.103,23.438L557.909,22.882L557.973,21.837L558.598,21.696L559.992,24.357L560.88,24.769L563.602,24.891L564.511,25.798L565.437,27.514L567.654,27.323L569.398,28.084L570.26,29.036L570.948,31.19L570.765,33.665L570.225,35.005L571.11,36.778L572.639,37.909L575.511,39.242L576.78,41.118L578.496,41.485L579.477,41.32L580.048,41.837L580.926,41.349L581.932,40.164L584.181,39.807L585.707,39.949L589.562,41.221L592.698,42.648L591.762,45.378L592.196,46.8L592.078,47.514L594.298,50.329L595.64,50.992L596.742,50.511L596.801,50.172L599.481,49.515L601.3,49.521L604.599,50.26L605.468,50.132L606.017,50.926L608.185,52.588L610.96,54.168L610.96,54.168L610.958,58.74L613.463,64.445L615.584,70.708L615.566,75.453L616.298,76.999L616.437,79.574L616.968,81.073L617.119,83.646L618.334,89.218L618.468,91.793L619.479,93.63L616.696,93.61L614.986,94.361L612.218,96.233L608.309,100.122L607.394,102.6L607.225,105.42L606.288,108.061L605.159,109.082L602.059,110.271L598.407,114.004L598.173,116.288L597.581,118.051L597.506,123.774L596.857,125.114L595.408,126.05L593.444,126.325L591.623,127.25L590.202,128.691L587.191,133.605L582.911,135.921L581.498,137.599L579.104,138.368L576.085,138.569L573.603,140.817L569.204,142.314L568.203,142.183L567.408,141.3L566.215,141.309L565.115,142.009L563.926,143.739L561.938,144.456L559.449,144.71L557.245,146.114L555.591,149.197L549.896,150.086L548.093,150.95L547.577,151.929L547.648,154.303L548.069,154.698L549.474,154.968L550.078,156.288L549.364,157.068L548.195,157.133L547.783,157.46L547.475,159.994L546.76,161.537L544.792,163.629L543.953,165.044L543.098,165.326L541.42,163.834L540.046,163.111L538.6,163.059L534.996,167.121L532.015,168.792L531.281,171.003L528.353,171.205L527.036,171.887L523.411,177.321L520.369,183.353L518.112,186.32L516.429,187.281L513.777,187.966L506.729,195.584L504.222,197.045L504.222,197.045L503.625,195.896L500.215,193.324L499.043,191.817L489.53,185.104L488.139,184.53L484.05,181.404L474.42,181.488L473.19,184.583L470.865,186.221L469.672,188.642L467.855,189.534L467.313,189.459L467.143,187.391L468.451,182.307L469.299,175.846L469.874,174.589L469.966,170.522L470.62,168.322L470.033,165.934L469.875,163.406L468.413,161.074L465.449,158.394L464.241,155.63L463.597,154.902L461.342,153.537L459.512,153.19L455.976,150.889L454.102,151.466L449.269,154.524L446.462,155.554L440.249,159.292L436.996,160.675L436.877,161.697L438.666,164.535L438.9,166.718L440.815,169.679L440.826,171.031L440.238,172.236L440.137,173.847L438.812,173.694L436.447,172.581L433.386,172.302L432.229,171.403L431.407,170.174L430.177,169.34L428.485,167.22L427.374,166.464L422.875,164.903L422.269,164.143L423.116,162.685L425.05,161.252L426.881,159.215L426.998,152.31L427.346,151.082L428.297,150.191L434.063,147.033L435.697,145.377L437.978,145.226L438.682,144.863L439.032,142.696L441.655,139.135L440.949,135.627L442.862,132.664L443.225,129.756L445.449,128.473L446.778,126.946L447.79,126.368L449.605,126.025L453.911,123.932L457.078,120.918L458.762,120.126L463.482,120.064L466.103,120.758L468.485,120.545L469.197,119.866L469.928,118.364L470.173,115.531L470.884,113.572L472.711,111.577L473.196,110.531L472.3,109.523L471.473,107.042L471.559,104.88L473.491,100.421L472.123,97.223L471.154,96.394L469.757,96.142L469.003,95.492L468.464,93.484L466.833,91.995L465.359,89.714L461.601,89.386L459.396,88.254L457.312,87.969L455.508,86.912L453.075,86.269L451.847,86.565L449.679,85.956L448.295,84.186L446.085,83.182L445.473,82.589L444.45,80.246L443.633,79.456L442.061,79.288L440.498,79.791L438.707,78.618L436.887,73.362L437.01,70.712L438.832,68.292L437.676,65.127L437.617,62.665L438.108,61.907L437.505,60.015L435.786,59.983L435.169,59.138L433.594,58.603L432.02,56.489L430.919,56.278L430.089,56.533L429.07,56.168L427.75,55.039L424.136,53.348L423.784,52.837L424.653,49.813L426.474,48.938L427.456,44.213L428.297,43.462L431.24,42.499L432.604,40.75L434.75,35.162L435.034,32.756L436.467,27.835L437.799,25.354L438.972,24.069L440.683,20.522L442.215,18.431L444.992,17.087L447.092,16.82L449.348,14.745L450.765,11.88L450.905,10.861L451.421,10.383L451.293,9.231L451.293,9.231L468.392,6.964L476.688,5.494L484.035,5.247L522.819,0z"/>
		<path id="ZM-06" title="North-Western" class="land" d="M123.668,160.219L124.836,160.959L126.195,160.906L126.943,161.752L126.442,163.333L127.8,164.791L127.702,166.344L127.006,168.091L127.63,168.854L128.989,169.369L130.335,168.413L134.331,169.387L136.065,169.222L138.285,169.833L142.018,172.234L142.517,173.498L142.239,177.258L143.086,178.396L142.627,183.908L141.613,185.338L141.016,187.144L140.029,188.768L136.82,189.253L136.486,189.447L136.403,190.142L137.208,190.906L138.208,191.254L139.75,191.407L141.446,191.116L142.001,191.353L145.155,193.589L145.239,194.881L145.739,195.368L147.295,194.464L150.353,194.547L151.353,193.699L152.006,193.602L153.966,194.198L154.466,193.726L154.868,191.919L156.993,191.029L158.88,188.263L160.143,187.595L160.851,186.789L161.572,186.455L162.851,186.495L162.863,185.481L163.182,185.12L165.279,184.729L166.751,185.019L170.028,184.333L171.247,182.471L173.178,182.94L174.635,182.118L176.385,182.309L177.925,181.765L181.938,181.742L182.98,182.031L185.159,181.734L186.962,181.008L192.237,180.383L196.881,178.203L199.742,178.472L199.703,179.068L198.582,180.28L197.838,182.101L198.76,183.736L197.93,184.531L196.556,184.854L196.391,185.313L197.38,186.407L197.329,187.685L195.47,188.427L195.36,188.997L196.8,191.757L196.539,192.48L196.986,193.423L196.908,195.007L198.248,196.782L196.332,197.441L196.027,197.845L197.268,198.842L196.955,200.816L197.095,201.247L198.209,201.966L198.844,204.508L200.53,205.531L201.587,205.764L204.25,207.479L207.229,208.177L208.236,209.675L208.299,211.566L207.61,213.293L208.42,214.069L210.505,213.561L212.31,212.58L213.187,212.646L214.154,211.125L216.616,211.198L217.253,210.653L217.812,210.929L219.146,213.857L220.374,214.45L221.604,215.919L227.856,216.667L230.186,215.098L231.243,214.995L231.817,215.757L232.302,217.827L233.535,219.477L234.414,219.834L235.958,219.658L237.593,220.901L237.82,221.61L237.077,223.006L237.748,223.476L242.481,223.615L248.506,223.146L249.789,223.375L250.328,222.759L250.995,222.685L253.34,223.644L255.486,223.895L256.968,224.845L258.028,225.019L262.713,222.229L264.841,221.936L267.353,222.78L268.713,224.051L271.678,225.81L273.141,225.882L274.208,225.345L276.248,226.205L279.565,226.596L280.528,227.613L281.158,227.602L283.329,225.479L284.521,224.856L285.916,225.067L287.684,226.667L289.375,225.9L291.007,226.136L291.795,225.544L292.48,224.341L295.176,222.187L296.226,219.812L298.393,217.804L298.443,217.018L297.867,215.982L298.432,212.996L299.851,210.303L300.542,209.852L300.839,208.833L300.62,207.737L299.421,206.01L299.634,203.561L300.589,203.052L303.26,203.221L305.062,202.591L307.303,202.875L310.204,200.97L311.425,206.254L311.528,213.625L311.771,214.165L312.628,215.019L315.264,215.562L318.867,218.154L321.597,219.585L322.18,220.734L323.842,221.301L325.542,222.702L326.079,224.631L325.615,228.047L325.795,229.159L326.183,230.227L327.571,231.117L328.622,236.593L331.584,239.778L334.031,240.414L334.031,240.414L332.967,242.084L328.187,244.688L325.582,243.94L324.423,242.259L322.725,242.125L321.568,242.45L318.978,244.487L318.333,245.435L316.239,246.372L314.851,247.682L309.779,247.628L307.364,246.986L304.942,247.607L302.075,247.656L301.38,248.341L301.965,252.118L300.75,254.588L302.016,257.402L302.042,258.308L298.508,259.557L294.631,264.446L291.277,265.608L289.684,267.169L289.416,270.04L288.578,271.359L288.537,271.978L289.685,274.042L292.003,275.845L292.319,276.725L292.139,277.659L290.438,280.391L290.487,281.076L296.349,284.458L298.323,284.934L300.269,287.285L302.691,287.447L303.134,287.654L303.349,288.283L302.071,292.049L301.882,294.53L301.09,296.189L296.212,299.482L295.21,301.091L295.11,302.358L296.399,305.403L296.135,308.298L294.9,309.851L293.355,310.55L292.6,312.361L291.362,313.395L288.748,313.313L288.7,316.372L287.958,318.586L286.214,319.972L285.367,322.057L285.456,328.534L286.822,329.937L289.714,331.467L289.714,331.467L291.279,333.745L291.797,335.088L294.626,337.047L294.894,337.566L294.756,338.499L292.237,342.966L292.066,348.898L289.657,350.062L289.357,350.485L289.804,351.223L293.359,353.722L296.123,358.033L296.227,361.183L294.91,363.805L294.896,371.676L294.504,372.765L292.642,373.552L286.338,373.648L284.11,374.399L282.25,375.62L276.948,375.667L274.847,376.252L272.084,375.656L270.226,376.421L269.326,377.346L268.283,380.267L264.448,382.821L261.814,385.938L260.321,388.427L259.977,390.656L258.611,392.068L258,392.248L257.027,392.132L255.387,390.425L253.589,389.996L252.213,388.924L249.712,388.523L248.405,386.004L245.721,385.36L237.75,384.543L236.015,383.974L231.701,383.882L229.789,383.282L224.952,383.21L222.662,382.567L217.342,382.518L214.65,381.822L213.401,381.964L211.436,383.824L209.951,384.271L208.965,384.154L208.218,384.617L208.218,384.617L206.853,385.277L204.915,385.317L204.145,385.024L202.65,383.462L200.708,383.872L199.253,383.284L197.946,383.231L194.798,384.5L192.613,384.759L188.849,386.643L182.905,386.713L181.062,387.319L179.279,386.549L176.419,383.429L176.375,377.672L177.257,376.495L180.2,375.533L181.099,374.597L181.292,372.16L181.805,370.971L182.017,369.214L183.163,367.684L183.964,365.327L183.931,364.104L183.232,362.129L182.451,361.283L181.843,361.115L179.695,361.787L177.588,361.744L176.092,360.522L173.955,359.59L171.22,357.801L169.286,357.56L163.679,355.956L162.75,355.026L162.002,353.467L161.746,349.708L159.688,347.631L158.777,346.069L157.921,346.027L156.173,346.635L154.747,346.063L153.77,347.223L152.414,347.237L150.206,345.652L148.756,343.874L148.019,343.467L146.943,343.964L145.983,345.186L144.079,345.841L141.516,345.861L138.827,344.871L138.397,344.11L138.204,342.563L137.331,341.903L136.426,342.677L136.323,344.095L135.94,344.479L135.154,344.46L133.844,343.293L132.098,342.673L129.936,343.676L128.271,344.032L126.233,345.805L125.471,345.755L124.327,344.946L122.964,346.544L121.336,346.78L118.458,348.594L115.935,347.875L113.449,348.592L112.028,348.089L109.884,347.951L109.37,347.598L109.016,346.18L108.285,346.02L107.455,347.108L105.657,347.55L102.695,349.2L99.38,347.632L97.927,349.179L95.68,349.518L91.552,351.999L89.161,352.765L86.568,352.928L84.566,353.639L80.717,356.809L77.547,357.067L75.592,358.208L73.133,358.96L72.581,358.673L72.245,357.519L71.058,357.642L70.363,357.003L70.521,355.647L72.118,353.996L72.215,353.012L69.502,352.724L66.707,351.793L65.671,350.428L65.417,347.649L64.016,346.775L63.094,346.733L60.939,347.938L59.5,347.832L58.808,347.114L57.871,344.835L57.073,344.009L51.391,340.512L49.445,340.475L47.487,342.31L44.313,342.711L43.497,344.783L43.268,346.972L42.299,347.732L41.49,347.875L39.576,346.772L38.045,346.413L36.829,344.656L34.882,343.366L32.645,343.024L31.113,342.287L29.349,339.908L24.897,337.444L21.053,333.68L19.357,332.651L16.913,330.228L14.158,328.854L12.999,328.947L11.997,330.529L10.506,331.573L9.798,332.672L6.508,334.055L3.515,332.736L0.962,330.248L0.064,329.825L0.064,329.825L0.032,287.995L121.601,287.135L121.126,286.435L120.71,284.464L117.851,281.526L116.775,281.246L115.087,280.111L114.781,279.286L113.54,278.32L113.457,277.608L114.024,272.736L115.217,269.737L115.054,267.126L116.832,263.99L116.946,262.19L116.559,260.139L117.257,259.331L117.497,258.243L118.683,257.771L118.95,256.725L119.941,256.183L120.767,254.302L123.363,252.451L123.727,251.531L123.772,248.38L123.62,247.864L122.38,246.901L123.567,245.453L123.025,243.78L123.291,243.139L121.607,241.242L120.438,240.668L118.354,236.402L118.6,221.156L119.356,217.832L120.401,217.055L120.667,216.331L119.726,212.921L119.087,211.821L118.924,209.582L117.482,206.242L118.652,205.104L119.408,201.908L121.374,198.283L120.78,195.003L121.046,193.502L121.965,192.462L123.425,191.908L124.093,190.659L122.793,185.587L121.408,183.281L121.293,175.687L121.086,174.993L119.533,173.978L120.313,172.424L119.886,169.649L120.726,164.81L120.102,164.281L120.409,163.505L120.132,162.978L118.664,161.866L118.401,160.854L119.18,159.801z"/>
		<path id="ZM-07" title="Southern" class="land" d="M197.563,427.723L223.138,427.578L228.53,426.896L238.588,426.874L241.512,427.549L245.627,427.619L247.702,428.243L251.873,428.315L253.937,428.938L258.107,429.01L260.38,429.648L285.994,429.719L289.084,431.511L290.662,432L293.939,434.281L296.157,435.395L296.424,436.113L295.576,437.376L295.935,437.975L301.366,438.005L303.822,438.665L309.458,438.65L310.43,438.924L311.239,440.995L311.493,443.488L312.597,446.564L313.663,452.868L315.163,454.626L316.181,454.269L321.216,445.134L322.202,444.304L323.177,444.302L324.073,444.731L324.751,444.563L327.123,442.709L329.46,439.039L329.993,438.702L331.097,438.826L331.934,439.988L334.526,440.943L335.196,442.04L336.724,443.463L336.958,444.876L336.362,447.248L337.813,449.608L338.702,449.869L340.008,449.346L341.337,449.694L343.546,448.609L343.546,448.609L346.459,449.325L347.576,450.956L348.191,451.211L349.623,451.141L353.293,449.862L354.914,449.974L358.078,451.912L359.486,454.529L362.235,454.822L366.125,456.581L367.749,456.943L368.612,458.491L370.655,460.206L372.058,460.016L373.106,458.303L374.133,457.525L375.117,457.514L376.508,458.051L377.619,457.557L379.234,457.509L380.394,458.038L382.587,458.325L384.655,460.694L386.788,460.98L391.899,464.32L397.581,464.549L399.079,465.349L402.005,467.865L404.218,467.875L410.301,466.541L411.407,466.862L411.865,467.924L411.865,467.924L410.277,471.198L407.818,474.712L408.68,475.576L408.005,477.066L408.949,478.791L407.669,481.277L407.272,484.925L407.541,485.822L408.602,486.256L408.688,486.734L406.909,489.195L406.484,491.021L406.754,491.494L407.775,492L407.592,493.408L408.108,494.511L407.512,496.738L406.332,498.475L406.36,500.77L405.315,502.275L402.08,504.413L401.359,505.393L395.792,506.432L373.596,515.492L365.621,522.085L347.373,530.638L335.547,548.197L334.724,553.974L334.191,554.828L330.336,559.266L316.473,570.14L310.942,577.759L306.709,582.706L306.51,583.339L306.853,585.631L303.114,588.795L300.195,592.854L298.619,592.163L296.639,593.097L295.59,592.906L291.547,594.345L290.642,594.18L289.762,594.657L287.968,594.255L287.49,595.854L285.792,596.722L284.497,596.379L282.818,596.816L279.491,600L277.139,598.857L275.32,598.868L274.231,598.336L273.903,596.814L272.732,596.22L272.451,595.139L271.835,594.451L269.603,594.412L267.271,593.688L266.845,593.196L265.595,593.09L264.537,592.278L263.662,592.121L262.561,591.268L260.977,591.465L259.15,590.822L256.911,591.187L255.606,590.034L253.393,590.24L251.7,588.965L251.816,588.106L248.365,589.678L247.014,589.796L244.558,590.742L244,591.538L244.642,592.198L243.805,594.102L241.076,593.479L240.521,593.975L239.215,593.693L238.064,594.209L237.761,595.015L236.837,595.428L234.769,594.826L233.37,595.06L233.018,594.421L231.383,594.1L231.019,593.604L230.331,593.498L230.05,592.844L230.198,592.128L229.409,591.923L229.29,591.582L230.037,590.729L228.963,588.47L226.455,587.974L226.271,587.444L224.545,585.943L223.442,585.818L221.627,584.962L220.886,585.074L220.548,583.579L218.793,583.75L217.131,585.215L215.047,585.453L214.238,585.935L213.647,585.513L211.659,585.307L210.304,586.836L209.463,587.017L207.348,585.768L206.074,585.553L205.135,585.948L204.331,585.571L201.449,585.986L200.636,585.104L199.24,585.252L196.879,584.157L194.889,582.536L194.792,581.929L194.308,582.05L192.319,580.776L190.297,580.938L189.694,580.557L188.237,578.914L188.181,577.473L187.462,576.922L186.436,577.117L186.671,576.358L186.384,576.118L184.663,576.818L184.993,573.79L184.676,573.406L183.881,573.87L182.318,571.382L181.422,571.563L181.389,570.08L180.898,569.616L179.872,569.656L179.035,570.108L177.064,567.535L176.314,568.296L175.787,568.329L174.971,567.011L174.971,567.011L176.281,566.809L176.766,561.877L179.394,558.771L179.377,557.299L178.943,556.198L179.207,554.958L178.783,553.897L178.852,552.752L181.314,550.109L183.685,546.02L183.539,544.507L182.927,543.174L183.11,541.086L183.816,540.015L186.296,538.844L187.501,537.3L187.777,535.864L187.151,533.819L187.313,532.984L193.05,530.26L194.004,529.123L194.755,526.896L194.662,525.601L192.701,519.592L192.708,516.854L193.365,515.218L193.207,514.099L192.506,513.389L190.829,512.604L187.095,512.463L183.88,511.604L183.125,510.359L182.711,508.418L178.386,504.783L178.034,503.539L178.502,502.854L180.024,502.525L181.461,501.16L186.801,493.775L189.479,491.79L191.143,491.367L193.143,489.498L196.58,488.002L197.111,484.797L198.783,482.31L199.768,480.016L202.208,478.09L202.467,476.938L204.123,476.799L203.326,475.63L201.43,475.894L198.504,472.578L198.288,471.741L198.43,470.23L199.49,468.836L199.13,466.302L200.226,465.42L201.006,462.775L201.172,459.457L201.813,457.302L201.722,454.988L200.869,453.996L199.771,453.578L197.348,455.954L196.049,456.005L195.116,455.308L193.688,453.783L193.369,452.382L193.62,451.474L194.795,450.17L194.816,448.722L194.024,447.887L192.268,446.888L191.493,445.72L191.669,445.097L193.337,444.08L194.225,442.879L194.168,441.25L192.964,439.763L193.01,438.838L193.881,438.098L196.191,437.622L196.943,436.111L197.154,432.757L198.984,430.74L198.928,429.823z"/>
		<path id="ZM-08" title="Copperbelt" class="land" d="M336.515,244.306L339.374,244.384L340.346,244.107L343.112,244.59L344.146,243.657L346.645,242.791L346.416,241.232L346.706,240.992L349.518,241.849L352.623,241.629L354.743,246.09L354.457,247.668L354.858,248.5L356.896,247.582L358.271,248.247L362.038,248.435L362.684,248.802L364.527,253.114L364.936,253.443L366.213,252.994L366.293,251.696L367.905,250.252L368.324,250.26L368.785,251.369L370.24,251.684L371.537,252.67L372.965,252.079L374.241,252.549L376.29,252.451L376.992,252.803L381.577,257.41L383.837,258.34L384.31,259.184L384.061,261.196L386.711,263.013L388.654,265.106L387.849,268.23L385.165,268.926L384.579,269.912L386.114,272.723L389.02,275.612L389.611,276.86L389.94,278.979L391.332,280.268L391.638,281.214L392.079,281.204L392.806,280.262L393.556,278.142L394.849,276.795L396.776,276.822L397.914,278.089L399.11,278.657L400.796,280.209L402.56,283.968L404.607,284.425L404.653,285.542L406.809,288.373L407.202,289.331L407.259,291.146L408.071,292.084L407.926,292.632L407.02,292.8L407.964,294.127L407.988,296.532L408.587,297.221L409.337,296.859L409.684,297.595L410.966,297.309L411.361,297.554L413.625,304.244L413.867,306.213L415.222,308.556L415.274,310.01L415.675,310.577L416.675,310.099L417.057,310.302L417.056,311.114L416.573,311.542L417.325,312.999L418.307,313.108L419.014,312.629L419.014,312.629L413.764,319.371L409.479,321.309L408.217,322.337L406.301,325.058L397.66,331.654L397.087,332.388L396.823,333.512L396.861,335.638L397.546,337.748L397.265,339.521L396.444,339.796L391.681,339.821L385.037,341.768L381.999,341.728L378.298,340.425L376.655,340.488L375.174,341.102L372.461,341.095L368.303,339.814L365.825,341.746L359.799,341.889L355.965,342.675L354.351,343.654L353.656,343.671L351.988,342.968L350.628,340.532L346.153,329.039L345.219,328.696L339.788,328.64L336.209,326.767L335.58,326.988L334.721,328.112L334.41,329.741L333.248,330.476L332.913,332.508L331.804,333.872L330.795,336.775L329.926,337.073L328.43,335.683L327.011,335.815L326.293,337.396L326.776,338.938L326.637,340.261L325.639,341.471L322.559,343.212L321.464,342.983L320.692,341.493L320.467,339.302L319.768,337.221L318.606,335.799L318.492,332.845L318.002,332.225L314.38,331.466L289.714,331.467L289.714,331.467L286.822,329.937L285.456,328.534L285.367,322.057L286.214,319.972L287.958,318.586L288.7,316.372L288.748,313.313L291.362,313.395L292.6,312.361L293.355,310.55L294.9,309.851L296.135,308.298L296.399,305.403L295.11,302.358L295.21,301.091L296.212,299.482L301.09,296.189L301.882,294.53L302.071,292.049L303.349,288.283L303.134,287.654L302.691,287.447L300.269,287.285L298.323,284.934L296.349,284.458L290.487,281.076L290.438,280.391L292.139,277.659L292.319,276.725L292.003,275.845L289.685,274.042L288.537,271.978L288.578,271.359L289.416,270.04L289.684,267.169L291.277,265.608L294.631,264.446L298.508,259.557L302.042,258.308L302.016,257.402L300.75,254.588L301.965,252.118L301.38,248.341L302.075,247.656L304.942,247.607L307.364,246.986L309.779,247.628L314.851,247.682L316.239,246.372L318.333,245.435L318.978,244.487L321.568,242.45L322.725,242.125L324.423,242.259L325.582,243.94L328.187,244.688L332.967,242.084L334.031,240.414L334.031,240.414L334.848,241.162L335.333,243.399z"/>
		<path id="ZM-09" title="Lusaka" class="land" d="M477.623,388.76L479.358,389.157L480.21,391.07L482.351,392.347L484.324,395.252L486.566,396.574L488.565,399.09L488.839,400.326L488.807,407.651L488.992,408.677L489.643,409.58L489.643,409.58L490.648,412.093L489.833,413.585L489.881,415.67L490.554,416.682L490.358,418.129L491.311,419.259L492.016,420.835L491.938,422.891L493.35,425.156L495.646,426.859L499.075,430.768L499.669,433.146L499.43,435.609L500.603,438.76L498.937,442.089L498.485,443.717L499.93,445.082L501.609,447.663L501.292,447.971L498.086,449.65L493.771,449.391L492.182,448.177L489.588,450.374L489.138,450.296L487.688,448.463L486.626,447.837L484.156,447.806L474.728,449.198L472.798,448.009L470.835,447.949L469.369,447.329L467.248,447.159L463.317,447.518L459.749,449.168L454.592,450.366L453.462,450.331L451.491,449.154L450.602,449.114L449.576,449.402L447.722,451.412L446.925,451.822L442.976,452.05L442.176,452.305L440.926,453.471L438.692,453.341L432.97,456.323L430.646,456.646L429.834,457.084L428.768,458.316L420.979,463.803L419.163,466.687L418.034,467.609L413.253,467.461L411.865,467.924L411.865,467.924L411.407,466.862L410.301,466.541L404.218,467.875L402.005,467.865L399.079,465.349L397.581,464.549L391.899,464.32L386.788,460.98L384.655,460.694L382.587,458.325L380.394,458.038L379.234,457.509L377.619,457.557L376.508,458.051L375.117,457.514L374.133,457.525L373.106,458.303L372.058,460.016L370.655,460.206L368.612,458.491L367.749,456.943L366.125,456.581L362.235,454.822L359.486,454.529L358.078,451.912L354.914,449.974L353.293,449.862L349.623,451.141L348.191,451.211L347.576,450.956L346.459,449.325L343.546,448.609L343.546,448.609L344.422,446.958L344.591,444.896L344.916,444.38L345.793,444.317L347.398,444.915L349.74,444.969L350.778,444.821L352.046,444.085L352.869,442.474L352.934,437.897L352.128,435.263L350.537,432.844L348.715,431.896L346.759,431.595L344.218,430.539L342.902,427.849L343.244,426.891L348.674,425.544L355.319,425.571L360.35,426.994L362.707,428.125L366.183,429.187L370.349,431.277L372.722,433.135L373.481,433.037L374.21,432.503L375.061,431.135L376.402,430.158L376.48,426.941L375.872,425.1L375.866,423.828L377.314,419.997L378.652,418.692L380.098,418.584L381.758,419.178L384.607,419.376L388.799,420.482L390.223,420.03L392.931,419.854L397.019,418.639L400.889,418.529L402.561,417.956L405.406,417.781L407.628,417.038L408.201,416.551L411.121,411.841L412.78,411.054L414.596,410.807L418.759,408.743L420.812,407.007L424.428,404.863L430.685,403.349L441.46,403.23L444.528,401.399L447.012,401.148L448.585,400.45L451.461,398.62L458.286,395.583L461.176,393.78L467.294,392.104L474.504,388.889z"/>
		<path id="ZM-10" title="Muchinga" class="land" d="M621.6,53.562L622.515,54.35L623.311,54.45L625.256,55.612L624.852,56.771L627.757,60.803L628.075,61.689L630.677,61.203L634.385,62.768L638.066,62.773L640.282,63.289L641.185,64.207L641.627,65.498L642.95,65.752L645.182,67.688L647.531,68.852L649.024,68.368L649.233,69.776L649.702,69.863L650.136,69.149L650.968,70.246L652.662,70.505L651.859,71.538L652.319,75.621L652.676,75.858L653.964,75.303L655.089,76.099L656.214,75.959L657.108,76.374L657.132,77.908L656.095,79.886L655.748,82.234L656.919,84.795L657.674,84.885L658.258,83.92L659.218,84.183L660.979,87.61L661.478,87.559L662.06,85.3L662.502,85.207L661.804,83.754L662.684,82.079L664.625,83.242L665.243,82.91L665.495,82.301L666.872,82.235L668.35,83.545L668.326,84.542L669.074,85.933L668.797,87.502L668.948,89.501L671.544,92.329L672.604,92.793L672.676,93.865L673.511,95.518L676.21,96.309L677.311,98.527L677.271,99.384L677.979,101.249L676.469,102.351L674.873,108.572L674.052,110.002L676.096,111.841L675.979,112.786L676.279,112.913L676.576,112.328L676.924,112.638L678.133,112.402L679.438,113.088L682.418,116.574L684.997,117.054L685.791,117.492L686.317,118.924L687.356,119.362L687.537,120.604L687.978,120.271L688.934,120.524L688.234,122.477L688.086,124.135L687.473,124.865L687.774,125.996L687.445,126.499L688.191,127.498L688.087,128.798L689.485,131.644L689.45,132.686L690.248,132.601L691.439,133.521L691.311,133.097L692.298,133.445L693.009,135.262L692.422,136.103L692.669,136.506L693.183,136.384L693.965,137.746L695.264,138.348L695.88,139.694L696.038,141.149L697.44,140.714L697.228,141.668L696.223,142.937L693.93,144.365L692.575,146.144L691.315,145.97L691.009,146.218L688.185,150.565L687.145,150.711L687.087,152.189L686.57,152.304L686.053,152.972L685.393,153.003L684.893,153.847L683.28,154.407L682.768,155.641L681.804,155.848L678.59,155.356L677.113,156.358L675.366,156.319L673.963,158.791L672.477,159.183L672.369,158.668L671.773,158.567L670.169,159.984L670.384,161.067L671.051,160.794L671.604,160.993L671.927,160.565L673.896,162.811L673.776,166.125L674.519,169.333L675.057,169.878L675.189,170.725L677.231,172.667L677.849,173.823L677.608,174.446L677.991,175.419L678.798,175.286L679.586,175.777L678.194,180.57L676.447,181.862L675.499,185.013L674.933,185.375L674.676,186.225L673.78,186.645L674.394,188.431L674.058,188.832L672.551,189.081L672.428,189.857L672.827,190.466L672.668,192.024L673.157,192.73L671.699,192.837L670.301,191.625L669.911,190.61L669.365,190.895L668.818,192.269L670.106,194.417L669.545,196.142L670.396,197.003L670.468,197.574L670.254,198.558L668.786,199.655L668.436,202.17L671.244,201.335L671.828,201.784L672.601,201.477L674.147,203.066L674.433,204.726L674.153,206.323L674.153,206.323L670.22,208.748L669.197,211.5L666.079,217.638L665.021,221.075L662.736,225.097L651.983,229.05L649.679,229.287L648.009,229.838L645.511,229.963L639.803,231.36L635.87,233.218L629.248,233.323L626.622,234.072L625.895,234.615L625.199,235.96L623.99,239.714L621.984,241.433L619.054,242.147L617.083,242.223L613.405,241.104L610.966,244.768L608.587,246.524L607.232,248.31L606.22,250.677L604.978,251.616L604.232,253.817L604.131,256.453L603.546,257.929L603.367,260.227L601.381,266.686L601.291,269.033L600.784,270.118L600.564,272.125L599.704,274.494L598.061,275.892L597.33,277.514L596.911,279.835L595.607,281.106L591.828,282.842L590.496,283.95L590.156,286.247L590.244,288.692L589.447,289.965L585.33,291.872L584.084,293.211L580.977,294.318L579.481,298.032L578.678,298.807L577.302,299.414L575.791,302.232L575.558,306.228L574.822,308.438L574.195,309.239L570.4,311.62L568.627,313.428L561.832,313.754L561.832,313.754L561.662,307.726L559.745,305.603L557.686,301.938L557.648,292.614L557.033,290.928L556.709,286.856L555.411,285.596L552.459,284.407L548.207,284.793L546.72,285.746L546.51,288.364L545.696,289.649L544.764,290.201L543.075,290.207L540.69,288.385L539.464,286.289L537.952,284.848L535.304,284.618L531.39,283.405L526.556,283.199L520.883,279.751L520.438,278.934L520.864,278.073L520.91,276.89L519.765,273.184L520.419,271.3L522.209,268.776L522.27,267.872L521.503,267.05L519.26,265.727L517.916,262.889L516.726,262.973L515.144,264.707L513.441,264.844L512.446,264.476L510.114,261.906L509.994,261.055L510.637,259.096L510.5,257.587L507.049,255.695L505.941,253.812L507.185,249.94L507.17,246.938L506.421,245.872L502.817,245.534L501.166,243.655L498.124,243.502L497.01,242.989L495.196,242.784L486.07,239.299L485.094,237.661L483.288,237.262L481.91,236.256L479.634,232.966L479.406,231.026L478.587,229.087L477.319,227.676L476.333,227.163L474.28,227.254L468.045,229.953L467.728,230.667L467.577,233.92L466.711,235.57L465.341,236.81L465.341,236.81L465.301,236.74L465.301,236.74L466.175,233.01L463.601,229.938L463.541,225.87L462.899,223.968L463.815,221.207L466.074,220.349L468.715,220.217L474.567,218.97L478.077,218.9L480.12,218.289L483.279,218.169L484.802,217.635L487.431,217.484L491.562,216.553L493.991,214.527L499.39,206.931L501.542,205.063L502.812,203.449L503.201,199.479L504.222,197.045L504.222,197.045L506.729,195.584L513.777,187.966L516.429,187.281L518.112,186.32L520.369,183.353L523.411,177.321L527.036,171.887L528.353,171.205L531.281,171.003L532.015,168.792L534.996,167.121L538.6,163.059L540.046,163.111L541.42,163.834L543.098,165.326L543.953,165.044L544.792,163.629L546.76,161.537L547.475,159.994L547.783,157.46L548.195,157.133L549.364,157.068L550.078,156.288L549.474,154.968L548.069,154.698L547.648,154.303L547.577,151.929L548.093,150.95L549.896,150.086L555.591,149.197L557.245,146.114L559.449,144.71L561.938,144.456L563.926,143.739L565.115,142.009L566.215,141.309L567.408,141.3L568.203,142.183L569.204,142.314L573.603,140.817L576.085,138.569L579.104,138.368L581.498,137.599L582.911,135.921L587.191,133.605L590.202,128.691L591.623,127.25L593.444,126.325L595.408,126.05L596.857,125.114L597.506,123.774L597.581,118.051L598.173,116.288L598.407,114.004L602.059,110.271L605.159,109.082L606.288,108.061L607.225,105.42L607.394,102.6L608.309,100.122L612.218,96.233L614.986,94.361L616.696,93.61L619.479,93.63L618.468,91.793L618.334,89.218L617.119,83.646L616.968,81.073L616.437,79.574L616.298,76.999L615.566,75.453L615.584,70.708L613.463,64.445L610.958,58.74L610.96,54.168L610.96,54.168L611.744,54.438L615.332,54.353z"/>
	</g>
</svg>