<?xml version="1.0" encoding="utf-8"?>
<!-- (c) ammap.com | SVG map of Zimbabwe -High -->
<svg xmlns="http://www.w3.org/2000/svg" xmlns:amcharts="http://amcharts.com/ammap" xmlns:xlink="http://www.w3.org/1999/xlink" version="1.1">
	<defs>
		<style type="text/css">
			.land
			{
				fill: #CCCCCC;
				fill-opacity: 1;
				stroke:white;
				stroke-opacity: 1;
				stroke-width:0.5;
			}
		</style>

		<amcharts:ammap projection="mercator" leftLongitude="25.236468" topLatitude="-15.608473" rightLongitude="33.056935" bottomLatitude="-22.420971"></amcharts:ammap>

		<!-- All areas are listed in the line below. You can use this list in your script. -->
		<!--{id:"ZW-BU"},{id:"ZW-HA"},{id:"ZW-MA"},{id:"ZW-MC"},{id:"ZW-ME"},{id:"ZW-MI"},{id:"ZW-MN"},{id:"ZW-MS"},{id:"ZW-MV"},{id:"ZW-MW"}-->

	</defs>
	<g>
		<path id="ZW-BU" title="Bulawayo" class="land" d="M282.643,404.8L281.918,403.872L279.76,403.923L277.547,403.515L276.53,406.89L273.083,404.795L273.083,404.795L273.292,403.82L274.521,401.47L274.121,400.979L273.034,400.4L272.834,400.032L272.924,398.731L272.644,398.403L269.564,399.64L269.08,399.635L267.914,398.975L264.962,399.274L263.957,398.696L263.88,398.208L264.209,397.397L266.115,396.479L266.562,396.116L266.728,395.548L266.128,394.689L266.132,394.12L266.953,392.379L267.081,391.444L266.17,389.12L265.897,387.654L265.945,386.761L266.351,386.479L267.319,386.487L269.85,388.135L273.109,389.625L273.633,389.629L274.161,389.309L275.218,388.098L275.624,387.938L277.077,387.908L279.827,387.035L280.147,387.485L279.614,388.66L279.688,389.758L279.483,390.285L279.923,390.938L281.375,391.071L282.499,392.137L283.869,392.595L284.719,392.315L285.653,391.306L286.259,391.31L286.497,391.922L286.489,393.386L286.769,393.713L288.302,394.008L288.502,394.294L287.228,398.067L287.668,398.681L289.962,400.202L290.12,400.976L289.628,402.071L288.652,403.122L286.506,403.88z"/>
		<path id="ZW-HA" title="Harare" class="land" d="M489.891,178.68L492.159,178.907L492.654,181.307L493.412,181.542L494.206,181.417L494.885,181.774L495.801,181.848L497.747,181.475L498.982,181.827L499.438,184.108L498.746,187.157L498.91,187.798L499.753,188.794L499.608,190.558L499.856,191.879L501.114,194.837L500.842,195.681L499.375,196.492L499.194,198.859L498.803,199.664L498.049,199.91L496.851,199.557L494.792,201.174L495.215,204.46L494.637,207.032L492.104,207.048L492.028,207.434L492.41,208.71L493.903,209.646L491.522,211.506L489.729,211.598L488.698,212.406L487.545,212.655L484.974,209.941L482.369,207.869L475.649,204.094L474.328,203.018L474.328,203.018L477.43,201.999L478.023,201.474L478.1,201.032L476.853,199.034L475.496,198.52L474.055,197.444L474.052,196.962L475.12,195.794L475.631,194.829L475.228,193.909L474.067,193.113L474.575,191.347L474.489,190.465L474.646,190.184L476.557,190.054L477.152,189.77L478.096,188.001L480.313,186.227L480.42,184.263L480.973,183.539L480.973,183.539L482.773,185.171L484.685,185.28L485.593,184.313L485.991,184.312L486.313,184.75L486.711,184.828L488.42,184.617L489.763,183.087L489.54,179.763z"/>
		<path id="ZW-MA" title="Manicaland" class="land" d="M647.911,168.686L648.366,169.65L649.086,169.996L650.689,170.167L652.785,172.144L653.541,173.19L653.449,175.214L653.184,176.035L652.114,177.03L651.419,179.111L650.922,181.815L651.116,182.839L651.614,183.404L650.971,183.681L650.199,183.336L650.086,183.81L650.063,184.976L650.499,185.612L652.137,186.697L652.154,187.119L651.067,187.693L651.222,188.717L650.77,190.5L649.12,190.811L647.354,190.538L646.582,191.897L646.682,195.169L645.986,197.152L646.051,199.723L646.242,200.05L647.617,200.298L648.016,200.621L647.976,201.138L647.523,202.022L647.331,203.789L646.783,204.608L645.86,204.361L645.536,204.62L645.129,205.602L645.08,206.887L645.65,208.839L645.659,210.688L646.453,212.442L646.522,214.131L647.75,217.336L647.418,219.063L647.571,220.311L648.107,221.42L648.872,221.565L649.721,222.638L649.598,224.668L650.108,226.845L650.626,227.874L650.66,228.9L649.716,231.731L650.096,234.542L651.002,235.726L652.551,236.299L653.271,237.088L653.166,237.934L654.469,239.19L654.527,239.553L653.832,241.1L652.763,241.455L651.912,242.115L651.285,245.636L651.823,246.768L651.837,247.936L651.691,248.641L651.122,249.362L648.168,250.753L647.766,250.73L646.904,249.737L646.602,249.735L645.282,250.835L644.151,251.149L643.219,251.828L641.889,251.617L641.48,252.199L640.855,252.255L640.251,253.622L641.1,255.411L641.183,256.741L640.368,258.605L641.451,259.658L642.322,262.327L646.08,268.365L646.157,269.051L644.332,273.115L643.876,275.05L642.308,276.856L640.914,277.688L639.674,277.766L636.189,276.044L634.327,276.374L632.949,277.097L632.296,277.711L631.27,277.999L629.737,279.266L627.652,279.612L625.802,280.971L625.147,281.915L625.2,283.006L626.359,284.773L626.814,286.029L627.378,289.044L627.295,289.387L625.004,289.975L624.839,290.377L625.608,295.765L626.102,297.221L626.704,297.792L628.139,298.168L629.576,298.159L633.288,297.097L635.975,297.049L636.968,297.792L637.469,301.314L638.029,302.37L639.134,302.84L639.656,304.223L639.668,305.538L639.194,306.688L637.265,316.188L637.582,320.158L637.35,321.474L633.938,325.135L631.202,327.443L631.135,328.253L631.977,329.679L631.952,330.367L631.354,331.62L631.522,333.607L631.205,335.247L631.221,335.937L631.701,336.751L632.63,337.509L633.455,337.677L636.934,337.603L636.542,341.352L636.638,342.144L637.462,343.326L637.156,349.351L637.594,350.612L636.042,354.641L636.118,355.332L636.4,355.658L637.374,355.991L639.266,355.842L639.569,356.048L640.688,355.994L642.927,355.482L645.72,354.183L646.803,353.337L647.31,353.36L648.113,354.909L648.31,356.027L648.185,356.615L646.344,358.39L646.198,358.815L646.459,359.386L649.293,361.537L651.586,362.324L653.167,363.269L654.34,364.475L654.635,366.122L653.892,368.048L653.946,369.145L652.9,373.957L651.986,380.724L650.837,385.559L649.937,386.244L648.346,386.62L647.364,387.203L643.754,387.79L643.264,388.111L642.566,389.475L643.101,390.408L643.208,394.099L642.368,394.542L641.063,394.143L640.5,392.998L639.93,392.994L638.885,393.78L637.839,397.723L637.855,398.131L639.108,399.871L639.144,400.686L639.02,400.97L637.098,401.648L636.748,402.094L636.434,403.335L636.532,403.702L637.263,404.38L638.422,404.796L638.746,405.165L638.256,408.198L638.534,409.342L633.767,413.974L633.207,415.193L633.235,416.824L627.651,423.675L623.422,431.498L622.183,433.141L621.319,433.726L617.703,433.531L613.676,433.658L612.854,434.079L609.046,437.107L607.395,438.787L606.77,442.274L606.858,443.767L607.614,446.104L607.876,455.592L609.613,462.85L609.471,465.119L606.478,472.092L605.416,473.802L603.857,476.06L599.857,480.525L598.679,481.538L596.902,484.942L597.185,485.437L599.69,487.308L600.177,487.906L600.213,488.44L599.274,489.947L599.633,491.181L601.544,493.004L602.305,495.124L604.516,497.956L606.053,500.535L606.388,502.036L605.426,501.657L604.102,500.495L603.056,500.342L601.55,500.72L601.55,500.72L600.651,499.277L596.028,495.139L594.353,494.593L592.386,493.561L591.443,490.713L590.362,489.217L590.158,486.685L588.446,481.479L586.757,479.952L583.373,478.94L582.429,478.26L582.126,477.12L582.534,474.745L582.117,474.057L580.935,473.625L579.655,472.296L579.539,470.011L578.39,466.557L578.447,465.127L578.758,464.224L580.771,460.767L584.453,452.798L584.734,450.143L585.439,448.664L585.482,446.258L585.751,445.316L586.624,444.244L587.868,443.573L588.222,442.957L588.411,439.653L588.857,437.162L589.507,434.83L590.451,433.146L590.294,425.982L590.892,420.439L591.234,419.092L591.529,414.857L592.268,410.536L593.08,408.37L593.762,400.558L595.079,394.689L595.221,385.918L594.987,383.974L594.569,383.048L594.039,382.609L591.693,382.115L590.316,381.567L586.209,379.193L585.315,378.638L582.613,375.756L576.814,375.876L574.868,375.05L571.688,372.253L568.184,372.258L566.724,371.507L564.473,368.899L563.471,366.277L560.052,363.441L557.776,358.728L555.87,357.616L552.647,354.13L552.033,353.286L550.863,349.816L547.579,347.627L545.478,346.759L544.746,346.12L543.753,343.742L541.639,341.782L540.187,341.312L539.9,340.869L539.348,338.325L538.605,336.634L537.957,336.195L536.107,336.053L533.084,335.153L531.441,335.655L530.877,335.458L528.999,332.726L526.895,331.33L525.915,329.844L524.904,329.246L521.117,328.148L517.503,328.182L516.657,327.906L515.93,327.387L514.341,325.217L513.734,324.737L510.708,323.146L509.369,321.702L507.069,320.468L503.756,318.068L500.489,316.355L500.489,316.355L503.414,315.808L506.223,315.786L506.863,315.618L507.301,315.211L507.625,311.168L508.298,310.152L509.095,309.621L509.606,308.566L509.687,304.164L510.082,303.595L510.883,303.468L514.053,303.724L515.992,305.241L517.075,305.272L518.676,304.895L520.242,305.163L520.811,305.885L521.269,307.456L521.795,308.017L522.602,308.373L524.529,308.678L526.144,309.632L527.067,309.785L527.547,309.539L528.972,307.788L532.153,301.702L532.385,300.771L531.969,299.362L531.828,297.508L532.383,296.938L533.346,297.049L536.175,299.2L537.904,299.708L541.304,299.067L541.976,298.294L543.492,297.672L545.059,298.019L548.487,299.92L551.692,303.154L555.325,305.172L558.909,306.463L559.791,306.452L560.904,305.673L561.663,305.461L564.838,306.15L563.801,303.418L563.623,302.129L564.312,299.539L564.236,296.836L564.604,294.371L564.471,293.324L564.261,292.6L563.122,291.162L561.875,287.628L561.59,287.229L559.939,286.522L559.327,285.562L558.615,283.071L558.959,278.513L558.744,277.307L557.76,275.344L556.742,273.985L554.893,273.241L552.974,273.222L551.846,272.629L552.144,270.773L551.36,268.769L549.137,266.779L548.361,265.378L545.768,262.305L545.937,259.606L546.679,258.109L546.673,257.627L545.823,256.709L544.924,254.868L542.901,252.716L543.296,252.229L544.648,251.733L545.439,250.961L546.324,247.975L546.994,247.165L550.335,246.044L552.526,245.579L553.556,244.885L552.976,243.082L552.842,241.837L553.03,240.87L554.288,239.25L554.48,238.564L554.631,234.424L554.239,231.616L553.989,223.867L554.17,222.22L554.867,220.487L555.693,219.595L557.444,219.255L558.244,219.528L558.849,220.083L559.728,220.314L561.56,220.134L564.035,220.508L566.306,220.402L566.297,219.681L564.374,215.649L564.284,214.767L565.379,213.07L568.347,211.432L569.8,209.771L571.614,208.387L574.517,204.865L578.41,201.091L577.726,197.412L578.471,196.602L578.688,194.957L579.55,193.905L583.378,191.536L584.212,191.406L585.509,190.188L586.536,189.736L588.576,187.628L589.507,185.855L590.53,185.122L591.548,183.948L593.684,183.121L594.857,181.785L598.007,179.583L603.357,178.554L605.834,176.72L607.821,174.013L609.049,173.757L611.634,174.002L613.328,173.099L614.479,172.963L614.668,172.361L617.01,169.609L619.587,169.373L619.969,168.369L620.033,167.408L619.688,165.613L619.714,164.614L620.021,163.97L622.384,162.698L625.231,162.097L626.059,161.726L626.763,161.037L627.265,160.11L627.511,158.069L627.889,156.945L628.512,156.177L629.394,154.207L629.531,152.848L630.578,151.315L632.421,149.97L634.317,149.543L636.163,148.478L637.63,145.98L639.193,144.56L641.799,143.922L645.16,143.472L649.394,141.929L649.394,141.929L649.704,147.476L649.981,147.958L650.602,148.122L653.71,150.823L651.591,153.471L650.537,155.505L650.076,156.788L649.652,159.344L649.765,160.081L648.544,160.317L647.693,161.713L646.766,162.548L646.498,163.688L646.587,165.531L646.801,166.535L647.715,167.863z"/>
		<path id="ZW-MC" title="Mashonaland Central" class="land" d="M434.373,3.363L434.105,26.652L434.307,33.824L475.99,33.824L478.283,35.236L478.896,37.172L479.656,38.098L480.981,38.93L482.341,38.749L484.179,37.681L484.901,36.239L485.039,35.455L486.972,34.954L487.549,34.521L487.864,33.824L488.341,34.434L488.54,35.229L491.122,33.824L491.004,33.438L494.241,32.294L495.155,32.833L497.403,32.996L498.379,34.188L500.512,34.479L502.962,33.824L503.159,33.946L503.149,34.558L504.896,34.67L506.213,35.546L508.21,36.175L510.426,38.019L510.856,38.422L511.094,39.756L511.674,40.758L512.95,41.712L516.348,45.699L517.686,45.284L518.192,45.527L518.529,46.072L518.298,46.882L518.529,47.363L519.846,47.106L520.659,47.179L521.488,47.589L522.783,47.41L524.277,48.605L528.118,49.777L531.71,50.388L534.237,50.287L535.66,50.903L540.389,51.29L541.317,51.72L543.858,53.605L545.938,54.35L547.012,54.325L548.263,56.031L549.275,56.164L549.72,57.224L550.806,57.855L550.979,58.255L550.706,59.365L551.583,59.317L551.955,59.759L552.024,60.536L552.458,60.899L552.802,60.467L553.516,60.635L553.806,61.355L557.309,62.973L558.013,63.937L558.29,65.67L558.762,66.154L558.436,68.278L558.957,69.598L569.343,72.157L590.088,71.481L600.695,74.517L614.393,80.341L625.571,85.834L625.849,86.096L625.663,89.441L625.357,90.295L625.099,92.764L625.573,93.266L629.385,94.813L629.385,94.813L625.169,97.492L623.989,97.905L621.84,96.899L620.492,96.639L615.966,98.052L614.101,97.479L610.116,95.221L607.225,94.859L604.142,94.817L599.021,96.194L594.226,98.479L590.393,98.644L588.428,99.622L586.116,101.4L585.523,101.447L583.811,100.549L582.385,100.326L580.729,100.862L576.994,102.735L575.532,102.91L574.121,104.001L573.251,104.089L571.941,103.705L570.399,103.84L568.807,106.367L566.836,107.064L566.448,107.826L567.25,112.241L567.022,113.082L566.162,114.007L564.979,114.497L562.84,114.439L561.22,118.283L560.358,119.249L558.983,120.18L557.966,121.346L557.854,121.866L558.66,123.254L558.431,124.054L554.545,127.403L552.915,130.691L552.571,131.892L552.858,132.847L553.579,133.479L553.666,134.197L553.076,134.682L552.363,134.688L547.863,136.567L545.576,137.866L544.031,138L543.56,138.523L543.328,139.084L544.775,141.028L545.026,142.264L545.181,145.738L544.6,147.103L539.803,151.461L537.357,153.162L535.984,154.852L535.798,156.014L534.968,156.381L534.223,157.426L533.432,159.691L531.714,160.767L528.582,161.393L526.842,162.288L524.975,164.793L523.915,167.912L522.377,169.246L521.875,170.93L521.347,171.835L520.396,169.901L519.801,170.026L514.748,174.067L513.44,174.637L511.13,174.054L510.296,174.22L509.622,174.506L507.768,176.12L505.979,176.332L505.319,173.415L505.351,172.293L506.135,170.927L506.712,168.522L508.156,165.43L508.693,163.065L505.946,162.245L499.824,161.965L495.843,160.711L494.604,160.587L493.27,161.927L492.095,164.495L491.948,166.176L492.154,167.215L491.204,167.702L489.217,167.633L489.225,168.794L489.669,169.833L490.228,170.229L490.784,170.226L491.814,169.739L492.015,169.898L491.717,172.702L491.09,174.107L490.559,177.595L489.891,178.68L489.891,178.68L489.54,179.763L489.763,183.087L488.42,184.617L486.711,184.828L486.313,184.75L485.991,184.312L485.593,184.313L484.685,185.28L482.773,185.171L480.973,183.539L480.973,183.539L480.365,181.979L480.313,180.216L479.872,179.498L479.272,179.06L478.595,178.864L477.045,179.032L476.015,179.798L475.78,180.48L475.069,181.245L473.071,179.853L472.114,179.498L469.041,177.629L463.181,175.373L463.02,174.933L463.212,173.771L464.075,171.685L464.42,169.241L463.348,169.445L459.252,169.262L457.107,169.671L453.408,169.444L449.592,169.538L449.657,166.335L450.085,164.333L450.146,160.33L450.974,158.687L451.05,158.046L449.958,153.811L450.073,152.81L451.682,148.524L453.255,145.201L454.585,140.88L457.854,135.593L458.403,134.353L458.834,133.113L458.981,130.916L459.53,129.476L459.873,126.6L457.253,126.01L456.379,125.574L454.834,125.979L453.556,123.987L452.171,124.63L449.84,126.434L449.205,126.316L448.327,125.282L444.799,125.252L444.241,124.614L443.834,122.021L444.021,119.106L443.859,118.149L442.303,115.439L442.261,114.601L442.688,112.685L441.767,109.775L441.235,105.348L441.351,104.192L441.784,103.632L442.298,103.472L443.369,103.828L444.081,103.746L444.515,103.306L444.748,102.109L443.99,100.795L441.532,100.044L441.648,99.008L442.553,97.53L442.351,96.176L441.792,94.942L441.864,93.028L439.765,92.555L437.109,91.564L435.722,90.492L432.989,89.821L431.878,88.787L431.12,86.676L429.851,85.483L429.808,84.289L430.316,82.734L432.832,77.354L433.133,72.098L433.367,71.182L434.86,68.155L435.015,66.881L434.175,63.699L432.868,62.867L432.038,62.669L430.103,62.712L427.97,63.193L426.784,63.116L424.569,61.766L424.132,61.05L423.732,58.625L422.584,57.473L421.141,56.848L419.896,56.919L418.79,56.602L417.527,57.08L416.581,58.155L415.563,62.691L415.051,63.805L414.46,64.323L411.3,64.762L409.957,65.758L407.311,66.236L406.561,66.754L405.732,67.868L404.823,68.147L403.953,68.108L403.163,67.75L402.647,67.113L403.315,63.492L406.155,59.871L406.312,58.24L405.992,56.052L406.028,53.468L408.04,51.718L409.656,49.888L410.129,49.172L410.206,48.258L409.969,47.661L408.311,47.503L407.994,47.265L406.49,44.522L405.461,41.94L405.615,39.277L405.219,37.45L404.744,36.814L402.929,35.503L402.138,33.835L402.136,31.651L402.411,31.253L403.988,30.579L410.134,26.488L413.442,23.747L414.583,22.515L416.197,21.602L417.259,19.895L421.038,17.708L422.255,15.961L425.088,13.697L425.715,12.705L425.633,11.157L424.842,9.85L422.791,8.503L422.396,7.988L422.158,6.918L422.391,5.371L422.194,2.88L422.194,2.88L422.761,3.181L425.361,3.128L428.825,3.546L431.384,2.44L433.776,0.754L434.353,1.679z"/>
		<path id="ZW-ME" title="Mashonaland East" class="land" d="M638.927,95.263L640.396,96.211L640.994,96.274L643.499,94.639L643.857,94.86L647.521,94.925L648.125,95.148L647.132,100.823L642.571,111.403L641.128,112.191L636.925,113.278L636.163,113.711L636.396,114.691L637.325,116.095L644.737,126.584L648.792,136.211L649.394,141.929L649.394,141.929L645.16,143.472L641.799,143.922L639.193,144.56L637.63,145.98L636.163,148.478L634.317,149.543L632.421,149.97L630.578,151.315L629.531,152.848L629.394,154.207L628.512,156.177L627.889,156.945L627.511,158.069L627.265,160.11L626.763,161.037L626.059,161.726L625.231,162.097L622.384,162.698L620.021,163.97L619.714,164.614L619.688,165.613L620.033,167.408L619.969,168.369L619.587,169.373L617.01,169.609L614.668,172.361L614.479,172.963L613.328,173.099L611.634,174.002L609.049,173.757L607.821,174.013L605.834,176.72L603.357,178.554L598.007,179.583L594.857,181.785L593.684,183.121L591.548,183.948L590.53,185.122L589.507,185.855L588.576,187.628L586.536,189.736L585.509,190.188L584.212,191.406L583.378,191.536L579.55,193.905L578.688,194.957L578.471,196.602L577.726,197.412L578.41,201.091L574.517,204.865L571.614,208.387L569.8,209.771L568.347,211.432L565.379,213.07L564.284,214.767L564.374,215.649L566.297,219.681L566.306,220.402L564.035,220.508L561.56,220.134L559.728,220.314L558.849,220.083L558.244,219.528L557.444,219.255L555.693,219.595L554.867,220.487L554.17,222.22L553.989,223.867L554.239,231.616L554.631,234.424L554.48,238.564L554.288,239.25L553.03,240.87L552.842,241.837L552.976,243.082L553.556,244.885L552.526,245.579L550.335,246.044L546.994,247.165L546.324,247.975L545.439,250.961L544.648,251.733L543.296,252.229L542.901,252.716L544.924,254.868L545.823,256.709L546.673,257.627L546.679,258.109L545.937,259.606L545.768,262.305L548.361,265.378L549.137,266.779L551.36,268.769L552.144,270.773L551.846,272.629L552.974,273.222L554.893,273.241L556.742,273.985L557.76,275.344L558.744,277.307L558.959,278.513L558.615,283.071L559.327,285.562L559.939,286.522L561.59,287.229L561.875,287.628L563.122,291.162L564.261,292.6L564.471,293.324L564.604,294.371L564.236,296.836L564.312,299.539L563.623,302.129L563.801,303.418L564.838,306.15L561.663,305.461L560.904,305.673L559.791,306.452L558.909,306.463L555.325,305.172L551.692,303.154L548.487,299.92L545.059,298.019L543.492,297.672L541.976,298.294L541.304,299.067L537.904,299.708L536.175,299.2L533.346,297.049L532.383,296.938L531.828,297.508L531.969,299.362L532.385,300.771L532.153,301.702L528.972,307.788L527.547,309.539L527.067,309.785L526.144,309.632L524.529,308.678L522.602,308.373L521.795,308.017L521.269,307.456L520.811,305.885L520.242,305.163L518.676,304.895L517.075,305.272L515.992,305.241L514.053,303.724L510.883,303.468L510.082,303.595L509.687,304.164L509.606,308.566L509.095,309.621L508.298,310.152L507.625,311.168L507.301,315.211L506.863,315.618L506.223,315.786L503.414,315.808L500.489,316.355L500.489,316.355L497.72,316.377L493.711,316.932L490.74,316.993L482.641,318.22L482.075,317.658L481.949,317.012L482.177,309.817L479.769,309.67L475.226,308.324L474.714,309.862L474.772,312.448L474.293,312.693L473.489,312.536L473.411,312.981L474.563,316.976L474.404,317.22L472.281,318.04L471.403,318.691L471.047,319.381L471.047,319.381L470.035,318.215L466.569,316.212L463.827,314.246L462.979,313.32L461.559,310.903L460.794,310.584L459.591,310.59L458.905,310.067L458.777,308.734L459.046,306.511L460.289,306.506L460.078,304.931L459.428,303.479L456.842,300.1L455.14,296.796L455.376,295.988L457.524,293.112L456.076,292.11L456.016,288.519L455.534,288.359L453.412,288.651L451.611,289.184L450.129,289.311L449.17,289.758L448.648,289.72L446.397,288.316L440.614,285.554L440.614,285.554L442.405,282.884L442.964,282.479L445.048,282.794L445.475,279.929L446.75,278.634L449.065,277.053L449.498,275.479L449.146,269.031L449.666,269.149L450.591,270.113L451.032,270.272L451.393,270.15L452.147,269.221L452.348,269.301L453.196,270.788L456.089,265.538L457.204,264.605L457.878,263.475L458.151,262.225L460.26,260.242L461.926,257.779L462.356,256.286L462.21,251.658L462.873,248.837L462.888,244.372L463.084,243.848L464.714,242.512L464.868,241.547L463.458,239.261L461.248,237.06L458.232,233.213L457.337,229.961L457.445,227.871L457.682,227.267L461.021,224.922L462.25,223.59L462.443,222.425L461.797,220.82L462.578,218.087L463.327,216.437L464.836,215.346L465.192,214.822L465.269,214.139L463.848,209.69L463.803,208.846L466.379,206.306L466.654,205.583L466.399,202.976L467.108,201.569L467.983,201.203L470.612,201.191L472.728,201.903L474.328,203.018L474.328,203.018L475.649,204.094L482.369,207.869L484.974,209.941L487.545,212.655L488.698,212.406L489.729,211.598L491.522,211.506L493.903,209.646L492.41,208.71L492.028,207.434L492.104,207.048L494.637,207.032L495.215,204.46L494.792,201.174L496.851,199.557L498.049,199.91L498.803,199.664L499.194,198.859L499.375,196.492L500.842,195.681L501.114,194.837L499.856,191.879L499.608,190.558L499.753,188.794L498.91,187.798L498.746,187.157L499.438,184.108L498.982,181.827L497.747,181.475L495.801,181.848L494.885,181.774L494.206,181.417L493.412,181.542L492.654,181.307L492.159,178.907L489.891,178.68L489.891,178.68L490.559,177.595L491.09,174.107L491.717,172.702L492.015,169.898L491.814,169.739L490.784,170.226L490.228,170.229L489.669,169.833L489.225,168.794L489.217,167.633L491.204,167.702L492.154,167.215L491.948,166.176L492.095,164.495L493.27,161.927L494.604,160.587L495.843,160.711L499.824,161.965L505.946,162.245L508.693,163.065L508.156,165.43L506.712,168.522L506.135,170.927L505.351,172.293L505.319,173.415L505.979,176.332L507.768,176.12L509.622,174.506L510.296,174.22L511.13,174.054L513.44,174.637L514.748,174.067L519.801,170.026L520.396,169.901L521.347,171.835L521.875,170.93L522.377,169.246L523.915,167.912L524.975,164.793L526.842,162.288L528.582,161.393L531.714,160.767L533.432,159.691L534.223,157.426L534.968,156.381L535.798,156.014L535.984,154.852L537.357,153.162L539.803,151.461L544.6,147.103L545.181,145.738L545.026,142.264L544.775,141.028L543.328,139.084L543.56,138.523L544.031,138L545.576,137.866L547.863,136.567L552.363,134.688L553.076,134.682L553.666,134.197L553.579,133.479L552.858,132.847L552.571,131.892L552.915,130.691L554.545,127.403L558.431,124.054L558.66,123.254L557.854,121.866L557.966,121.346L558.983,120.18L560.358,119.249L561.22,118.283L562.84,114.439L564.979,114.497L566.162,114.007L567.022,113.082L567.25,112.241L566.448,107.826L566.836,107.064L568.807,106.367L570.399,103.84L571.941,103.705L573.251,104.089L574.121,104.001L575.532,102.91L576.994,102.735L580.729,100.862L582.385,100.326L583.811,100.549L585.523,101.447L586.116,101.4L588.428,99.622L590.393,98.644L594.226,98.479L599.021,96.194L604.142,94.817L607.225,94.859L610.116,95.221L614.101,97.479L615.966,98.052L620.492,96.639L621.84,96.899L623.989,97.905L625.169,97.492L629.385,94.813L629.385,94.813L630.645,95.34L631.584,95.128L633.5,95.203L633.92,94.987L635.314,95.316L635.918,94.563L636.757,94.43L637.649,95.214z"/>
		<path id="ZW-MI" title="Midlands" class="land" d="M252.632,155.293L255.377,154.877L257.319,155.614L257.954,155.581L259.668,154.915L260.749,153.883L262.576,153.938L265.043,153.559L269.978,152.358L270.612,152.644L271.479,153.57L274.766,155.356L275.912,156.366L276.549,156.29L278.042,152.62L279.638,151.551L282.401,147.771L284.073,147.264L284.516,146.346L284.847,143.989L287.494,139.369L288.134,138.614L290.794,138.512L294.306,135.137L295.974,134.708L297.805,133.68L299.672,133.452L305.069,133.483L305.983,133.289L307.417,132.098L308.013,131.901L309.165,131.788L309.717,132.47L311.057,134.835L312.077,137.719L313.538,139.365L315.48,140.254L316.431,140.979L318.533,141.509L319.286,142.033L320.594,142.479L321.225,143.881L321.66,144.163L324.161,144.494L326.699,145.625L327.731,145.709L328.682,146.474L330.031,146.8L331.778,147.006L334.718,146.778L335.313,147.061L335.548,148.421L336.897,148.947L337.333,149.628L337.641,153.47L337.957,153.912L340.338,155.12L341.568,156.085L342.677,157.809L343.511,158.252L344.897,160.218L346.605,161.064L348.234,161.31L348.75,161.871L347.712,164.35L345.88,165.786L343.645,169.383L341.971,170.66L341.812,171.059L341.81,171.981L343.239,173.387L343.634,174.431L343.273,175.872L343.627,177.676L343.107,178.916L343.142,181.201L340.525,183.813L340.425,185.361L342.015,186.609L342.093,187.291L339.657,190.13L339.377,190.73L339.293,192.615L338.373,194.176L337.335,194.935L337.13,197.421L335.01,200.303L333.286,203.748L333.324,204.792L332.923,205.393L332.998,206.958L332.197,208.44L332.194,209.283L332.829,210.531L332.944,211.776L334.091,215.476L335.444,216.967L336.117,219.019L337.785,221.758L338.5,223.648L338.937,224.092L340.971,224.983L342.006,225.952L344.121,226.602L345.672,229.742L346.708,230.831L348.863,231.119L350.101,231.605L352.255,233.219L354.849,234.313L357.841,236.732L360.557,237.583L361.834,238.832L362.553,239.156L363.312,240.123L362.589,243.743L362.508,245.433L361.188,246.879L361.027,247.523L361.423,251.791L360.46,254.487L360.46,255.171L361.138,257.59L362.337,258.357L363.457,258.36L365.138,257.959L365.658,258.203L367.656,260.865L368.936,261.471L369.617,261.552L370.816,261.191L372.337,261.354L375.738,261.197L376.258,261.641L377.579,264.02L378.579,263.899L379.62,263.094L380.139,263.014L380.42,263.78L381.78,264.547L383.262,266.683L384.504,267.168L386.064,266.845L387.025,267.894L388.106,268.136L389.309,268.942L391.79,269.225L393.15,268.458L395.311,268.217L399.315,268.617L400.357,269.584L400.998,269.786L403.078,269.018L403.839,269.542L404.44,269.541L405.163,270.508L405.843,270.668L410.606,270.461L412.25,271.306L414.492,271.584L416.176,272.307L417.186,275.37L417.507,275.611L419.63,276.01L420.513,276.613L421.598,277.821L422.64,277.858L423.799,277.413L425.08,277.249L426.768,278.938L428.012,279.5L429.459,281.149L434.395,283.193L435.842,284.318L437.287,285.081L440.614,285.554L440.614,285.554L446.397,288.316L448.648,289.72L449.17,289.758L450.129,289.311L451.611,289.184L453.412,288.651L455.534,288.359L456.016,288.519L456.076,292.11L457.524,293.112L455.376,295.988L455.14,296.796L456.842,300.1L459.428,303.479L460.078,304.931L460.289,306.506L459.046,306.511L458.777,308.734L458.905,310.067L459.591,310.59L460.794,310.584L461.559,310.903L462.979,313.32L463.827,314.246L466.569,316.212L470.035,318.215L471.047,319.381L471.047,319.381L468.288,321.257L465.855,323.857L464.456,324.957L459.975,327.771L457.098,330.537L457.823,330.897L461.644,331.283L462.329,331.604L463.14,332.813L462.984,333.623L462.266,334.315L460.017,334.65L459.013,334.938L458.895,335.223L459.235,338.5L459.166,340.242L458.503,343.728L457.274,346.853L457.2,347.866L457.326,348.838L458.145,351.021L458.282,353.816L457.622,357.874L457.553,359.658L455.866,367.21L455.873,368.306L456.69,370.29L456.618,371.63L454.928,372.044L450.978,371.858L446.784,370.697L443.23,370.188L442.261,369.745L438.836,369.921L437.347,370.372L436.716,373.419L437.206,374.676L437.896,375.484L437.896,375.892L437.74,376.824L437.3,377.558L435.128,378.742L434.888,379.149L434.695,381.099L435.952,382.517L435.39,383.128L434.987,383.332L428.414,383.72L426.84,383.399L422.322,383.696L419.503,385.124L416.682,386.065L414.665,386.231L412,385.912L411.235,386.238L411.317,386.808L413.097,388.186L413.906,389.119L414.315,390.5L414.12,392.736L412.796,395.544L412.767,399.244L412.166,400.669L412.049,402.093L414.748,399.809L416.081,399.766L418.714,401.834L420.736,402.683L422.318,404.47L421.88,406.017L420.836,407.81L419.153,411.884L419.077,413.309L419.525,414.121L420.092,414.487L425.032,416.346L425.479,416.915L426.179,419.642L426.871,420.861L427.438,421.022L428.731,420.774L430.563,423.294L432.921,425.893L434.271,428.903L436.428,431.341L436.877,432.195L436.565,434.683L436.824,437.985L437.484,440.389L438.55,442.75L439.445,443.645L441.638,444.369L442.208,444.979L442.052,446L440.191,446.824L439.791,447.642L439.4,450.5L437.446,456.836L437.458,459.164L436.784,462.312L436.817,468.81L432.985,473.853L431.246,475.331L429.181,476.605L427.921,476.569L425.887,475.636L422.514,475.278L421.743,475.32L419.066,476.27L416.951,475.743L415.207,476.034L414.108,475.546L413.133,475.547L412.157,475.223L410.895,473.876L408.781,473.635L407.277,473.147L406.219,472.372L404.263,469.595L401.215,468.21L400.767,467.516L399.953,466.862L399.344,466.74L398.448,465.679L397.635,465.148L396.093,465.109L394.024,465.643L392.118,466.87L385.793,472.269L383.238,475.132L382.305,475.704L381.045,475.99L378.527,475.908L376.861,474.967L376.861,474.967L374.911,474.802L369.387,475.043L365.284,476.225L359.476,476.011L355.048,474.98L354.521,474.488L354.481,473.998L355.66,472.609L358.951,470.407L359.926,469.183L362.403,467.715L366.586,464.696L368.047,463.227L368.656,460.979L369.872,451.955L372.263,444.119L372.789,441.549L372.505,441.304L371.613,441.467L368.939,442.524L367.359,442.727L366.468,442.521L365.415,441.663L364.443,439.54L364.525,437.338L364.849,436.808L367.279,436.159L367.685,435.547L366.712,433.997L369.668,432.084L370.235,431.962L371.572,430.74L373.393,429.967L373.96,429.52L374.85,427.93L375.415,425.812L376.426,423.896L376.87,419.538L377.596,416.483L378.807,412.697L380.26,409.481L381.025,405.86L381.549,404.681L381.466,402.238L384.329,395.895L388.318,389.105L388.477,386.667L388.233,385.488L387.99,384.92L387.182,384.474L382.381,384.352L381.895,383.132L382.135,379.923L381.207,379.435L379.029,379.922L374.592,381.624L373.261,381.501L371.969,375.611L369.751,376.177L366.847,377.96L365.759,378.243L365.113,378.12L364.388,377.47L362.05,373.933L356.167,370.714L354.877,370.548L353.909,370.79L351.567,373.545L350.438,373.339L349.794,372.647L349.475,371.144L349.962,367.938L349.722,367.086L349.848,364.408L350.939,361.733L350.941,360.597L350.62,359.582L349.816,358.606L346.276,356.002L344.874,352.267L344.352,351.576L341.177,348.932L339.372,346.008L337.973,341.951L336.853,339.639L335.608,338.257L334.926,337.89L334.001,337.926L334.001,337.926L332.637,336.544L331.352,336.053L330.512,334.188L328.707,332.843L326.945,330.569L323.733,329.179L322.692,328.162L324.349,325.54L325.559,324.088L325.081,322.912L324.121,321.613L322.199,319.703L320.8,317.796L316.959,313.732L315.197,312.714L314.721,311.054L314.736,307.375L315.158,302.245L314.919,301.558L314.04,300.907L313.525,299.086L312.844,298.961L312.971,297.347L310.926,297.336L310.365,297.211L309.845,296.724L309.213,294.621L308.667,291.266L306.376,283.342L306.105,281.485L305.116,278.897L304.576,274.336L303.584,272.314L303.909,271.269L304.552,270.869L309.603,269.607L315.817,267.221L317.259,267.107L324.753,264.241L325.716,263.48L325.918,262.715L325.011,259.044L324.533,258.196L324.254,257.994L322.654,257.987L318.972,258.372L314.492,258.47L312.292,258.137L306.811,258.348L301.492,257.834L297.893,257.893L293.294,257.34L289.582,256.147L288.861,256.143L282.856,256.986L277.979,256.467L275.418,256.649L271.852,257.547L264.696,257.005L261.09,257.78L258.57,257.798L255.134,257.244L251.332,257.531L250.692,257.405L249.539,256.668L248.776,256.983L247.977,256.977L247.183,256.243L244.943,256.302L243.666,255.887L242.506,255.835L240.514,255.05L238.833,255.235L236.505,256.057L234.146,256.033L231.353,255.318L231.688,249.483L231.094,236.239L231.126,228.72L231.375,227.677L233.552,225.369L234.914,224.82L235.953,224.831L238.063,225.415L239.181,225.346L240.063,224.833L240.189,224.19L239.995,223.425L239.479,223.179L236.926,223.033L235.579,222.014L235.35,220.846L236.282,219.37L236.739,217.285L236.415,213.465L236.141,212.861L235.665,212.615L233.149,212.99L232.024,209.485L230.958,208.43L230.96,208.149L232.017,206.033L234.788,203.813L235.198,202.573L236.32,201.863L236.563,201.424L236.434,198.052L238.013,195.299L238.264,193.938L236.865,190.034L237.115,188.793L239.534,185.369L240.416,184.736L243.083,184.722L244.003,184.21L246.178,181.144L247.271,179.031L247.59,174.145L248.805,171.393L248.901,169.39L248.562,167.185L248.65,166.145L250.143,163.315L250.802,160.439L251.735,158.046L251.991,155.927z"/>
		<path id="ZW-MN" title="Matabeleland North" class="land" d="M232.597,110.062L233.442,110.836L233.75,111.677L233.687,114.391L234.069,115.951L233.34,117.78L233.089,119.175L233.668,120.938L235.122,122.509L235.581,124.708L236.177,125.551L235.336,125.667L235.374,126.228L235.731,126.749L235.49,127.148L235.728,127.669L235.367,127.868L234.481,129.265L233.841,129.263L233.759,129.783L234.038,130.023L234.838,129.946L237.283,128.834L237.762,128.956L238.079,129.678L237.917,130.157L238.474,130.799L239.122,132.295L241.623,132.159L242.374,132.565L242.462,136.124L243.485,137.292L243.914,138.255L243.5,140.05L244.359,141.938L244.23,143.096L245.093,144.343L245.151,146.984L245.385,147.426L246.769,148.239L247.706,150.247L249.925,150.908L250.435,151.793L251.026,152.237L251.687,154.124L252.632,155.293L252.632,155.293L251.991,155.927L251.735,158.046L250.802,160.439L250.143,163.315L248.65,166.145L248.562,167.185L248.901,169.39L248.805,171.393L247.59,174.145L247.271,179.031L246.178,181.144L244.003,184.21L243.083,184.722L240.416,184.736L239.534,185.369L237.115,188.793L236.865,190.034L238.264,193.938L238.013,195.299L236.434,198.052L236.563,201.424L236.32,201.863L235.198,202.573L234.788,203.813L232.017,206.033L230.96,208.149L230.958,208.43L232.024,209.485L233.149,212.99L235.665,212.615L236.141,212.861L236.415,213.465L236.739,217.285L236.282,219.37L235.35,220.846L235.579,222.014L236.926,223.033L239.479,223.179L239.995,223.425L240.189,224.19L240.063,224.833L239.181,225.346L238.063,225.415L235.953,224.831L234.914,224.82L233.552,225.369L231.375,227.677L231.126,228.72L231.094,236.239L231.688,249.483L231.353,255.318L234.146,256.033L236.505,256.057L238.833,255.235L240.514,255.05L242.506,255.835L243.666,255.887L244.943,256.302L247.183,256.243L247.977,256.977L248.776,256.983L249.539,256.668L250.692,257.405L251.332,257.531L255.134,257.244L258.57,257.798L261.09,257.78L264.696,257.005L271.852,257.547L275.418,256.649L277.979,256.467L282.856,256.986L288.861,256.143L289.582,256.147L293.294,257.34L297.893,257.893L301.492,257.834L306.811,258.348L312.292,258.137L314.492,258.47L318.972,258.372L322.654,257.987L324.254,257.994L324.533,258.196L325.011,259.044L325.918,262.715L325.716,263.48L324.753,264.241L317.259,267.107L315.817,267.221L309.603,269.607L304.552,270.869L303.909,271.269L303.584,272.314L304.576,274.336L305.116,278.897L306.105,281.485L306.376,283.342L308.667,291.266L309.213,294.621L309.845,296.724L310.365,297.211L310.926,297.336L312.971,297.347L312.844,298.961L313.525,299.086L314.04,300.907L314.919,301.558L315.158,302.245L314.736,307.375L314.721,311.054L315.197,312.714L316.959,313.732L320.8,317.796L322.199,319.703L324.121,321.613L325.081,322.912L325.559,324.088L324.349,325.54L322.692,328.162L323.733,329.179L326.945,330.569L328.707,332.843L330.512,334.188L331.352,336.053L332.637,336.544L334.001,337.926L334.001,337.926L332.948,340.636L332.261,341.321L331.618,341.481L330.451,341.314L328.726,339.93L324.625,339.063L322.854,339.541L322.369,340.065L322.485,341.483L324.731,343.519L325.652,344.86L325.69,345.549L325.281,347.776L324.106,350L323.298,350.849L321.362,351.934L319.545,353.385L319.542,353.953L319.943,354.44L320.948,355.136L322.071,356.357L323.519,357.012L323.678,357.541L323.622,362.245L322.968,364.879L322.157,366.297L322.237,366.703L322.927,367.472L320.932,368.82L318.644,370.916L311.123,368.151L314.087,379.008L306.259,387.489L299.604,387.977L303.289,390.695L296.631,396.652L294.185,403.018L293.375,403.475L291.065,406.346L291.805,407.403L287.291,410.509L282.643,404.8L282.643,404.8L286.506,403.88L288.652,403.122L289.628,402.071L290.12,400.976L289.962,400.202L287.668,398.681L287.228,398.067L288.502,394.294L288.302,394.008L286.769,393.713L286.489,393.386L286.497,391.922L286.259,391.31L285.653,391.306L284.719,392.315L283.869,392.595L282.499,392.137L281.375,391.071L279.923,390.938L279.483,390.285L279.688,389.758L279.614,388.66L280.147,387.485L279.827,387.035L277.077,387.908L275.624,387.938L275.218,388.098L274.161,389.309L273.633,389.629L273.109,389.625L269.85,388.135L267.319,386.487L266.351,386.479L265.945,386.761L265.897,387.654L266.17,389.12L267.081,391.444L266.953,392.379L266.132,394.12L266.128,394.689L266.728,395.548L266.562,396.116L266.115,396.479L264.209,397.397L263.88,398.208L263.957,398.696L264.962,399.274L267.914,398.975L269.08,399.635L269.564,399.64L272.644,398.403L272.924,398.731L272.834,400.032L273.034,400.4L274.121,400.979L274.521,401.47L273.292,403.82L273.083,404.795L273.083,404.795L270.415,405.058L269.19,406.676L267.592,409.593L266.619,410.154L263.791,409.763L263.426,409.923L262.488,411.014L260.766,414.133L259.608,412.209L259.376,410.782L257.987,407.675L257.379,407.833L256.613,407.622L252.328,402.902L251.491,401.592L249.725,400.313L248.65,398.392L248.146,396.109L247.388,394.963L246.787,394.509L244.736,393.432L243.293,392.36L241.845,391.817L239.698,392.566L238.043,392.509L236.425,392.816L233.802,392.707L232.218,393.665L230.597,394.258L229.436,393.269L227.21,389.828L226.25,389.086L224.443,395.732L222.716,398.681L222.175,400.302L221.083,400.329L217.298,399.268L216.375,398.769L215.34,397.291L212.568,396.036L210.539,393.368L207.51,390.037L204.024,387.92L201.958,385.131L200.555,384.502L200.002,383.438L196.771,380.512L196.297,379.692L195.541,375.662L194.634,374.026L193.556,373.199L193.16,372.666L193.246,372.221L192.085,371.474L191.813,370.699L189.516,370.708L187.064,370.187L186.023,369.644L183.394,367.415L180.836,365.796L178.738,365.968L174.838,365.424L173.425,365.646L170.623,367.227L169.978,367.297L165.955,366.829L160.131,365.561L158.718,365.741L157.298,366.407L155.928,366.467L154.714,366.812L152.219,366.608L150.161,366.898L148.299,367.476L145.693,366.62L143.269,367.065L141.377,366.951L140.809,367.226L138.509,367.429L135.264,368.75L133.323,369.202L132.06,369.992L130.891,370.092L128.379,370.857L127.281,371.405L125.268,373.641L122.168,374.687L122.168,374.687L121.068,374.185L117.776,373.463L115.917,374.012L115.468,373.939L112.751,369.437L112.025,366.952L111.481,366.252L109.933,365.188L108.773,365.133L108.083,364.293L106.24,363.703L105.061,362.753L100.659,362.235L99.939,361.823L98.757,360.73L98.231,359.889L97.854,358.372L96.058,355.119L92.917,355.468L90.648,353.849L90.996,352.969L92.875,350.514L92.825,350.027L89.286,346.811L88.573,346.724L84.326,347.579L83.036,347.036L81.076,345.491L79.303,345.16L77.773,343.749L76.046,339.522L75.363,334.646L75.09,334.146L73.523,333.037L73.413,330.325L72.532,327.706L71.399,325.741L70.341,322.397L69.607,321.01L69.78,319.471L68.792,318.851L68.206,317.697L67.067,316.442L67.506,314.976L66.1,312.39L63.939,309.494L61.88,307.649L60.739,305.06L60.371,303.751L60.503,302.109L61.109,300.945L63.18,299.108L63.348,298.336L62.812,295.529L61.147,292.046L60.78,290.739L58.925,287.721L57.056,287.249L54.988,285.81L52.687,283.708L48.776,281.859L48.865,279.478L47.192,276.956L46.297,274.245L46.557,272.948L46.091,271.725L46.011,270.596L46.367,268.995L46.901,268.36L46.383,267.582L45.851,265.977L45.958,263.998L45.767,263.476L43.372,261.52L42.855,260.822L41.233,260.365L39.617,260.25L38.364,259L36.591,256.69L34.026,251.631L33.435,251.237L31.166,250.608L27.084,244.99L23.886,241.635L21.185,233.782L19.22,230.45L18.786,228.424L17.654,226.832L15.363,221.755L13.324,218.648L12.734,218.214L11.323,218.033L10.875,217.698L10.43,216.156L9.982,215.761L7.13,214.675L6.712,213.576L4.606,210.44L3.781,208.841L2.59,204.055L0.712,201.91L0.013,200.654L0.333,199.083L0,198.224L0.045,197.1L1.579,193.184L2.183,190.326L3.127,190.434L4.796,192.077L5.586,192.548L6.229,192.54L8.765,194.037L10.225,193.731L10.865,193.879L12.006,195.119L12.649,195.212L14.592,194.67L16.056,194.535L16.523,195.032L17.187,195.065L17.924,194.535L18.506,194.509L20.296,194.811L23.268,196.565L24.45,196.312L24.967,195.905L25.676,194.672L26.353,194.163L27.397,194.151L28.145,194.564L29.147,194.452L29.978,195.045L31.114,194.37L32.742,194.451L34.042,194.035L35.198,193.318L36.377,191.976L37.518,191.697L38.843,191.736L39.132,192.213L39.319,193.836L40.36,193.679L42.911,194.883L44.46,195.058L46.885,197.167L47.144,197.91L47.904,198.203L49.458,198.162L50.668,198.608L51.233,200.368L52.177,201.782L51.342,202.496L51.127,202.98L51.294,203.46L52.404,203.748L52.196,204.754L52.773,205.832L53.557,205.821L54.068,206.518L54.67,206.43L56.366,206.97L56.86,207.868L58.825,207.54L59.997,207.986L60.638,207.796L61.731,208.384L63.03,207.804L63.198,206.897L63.457,206.672L65.074,205.947L66.908,206.343L67.688,205.646L68.844,206.188L70.026,206.026L71.523,206.521L71.994,204.804L72.699,203.847L71.798,202.919L72.066,202.191L72.581,201.8L74.602,201.341L76.032,200.471L77.93,200.305L79.788,199.507L81.279,198.481L82.78,198.097L82.617,199.304L83.487,199.692L84.287,200.725L84.996,201.095L85.574,200.846L88.105,200.806L88.51,201.021L89.516,202.371L89.939,202.425L90.818,202.089L91.767,202.355L93.085,201.913L95.652,202.816L97.878,202.539L98.606,202.828L99.425,203.739L100.654,203.96L102.141,205.1L103.898,205.249L104.496,205.94L105.804,206.054L106.925,206.774L110.91,207.012L111.502,207.441L111.775,207.979L112.169,209.498L112.682,209.949L113.815,210.333L114.276,212.471L115.806,213.22L118.363,213.205L120.609,214.473L121.667,214.81L125.251,210.983L126.342,210.336L128.701,209.721L130.521,210.203L132.304,208.997L132.907,208.983L133.119,208.576L133.148,207.249L133.579,206.737L136.105,207.302L137.335,206.631L138.607,206.863L142.591,205.283L144.289,204.842L145.762,205.109L148.545,203.797L150.759,204.769L154.86,199.064L160.115,194.619L159.984,192.614L159.633,191.398L159.912,190.508L165.861,183.557L173.633,172.851L193.112,157.571L198.529,151.336L199.277,150.135L200.073,144.89L200.14,142.987L200.434,142.019L217.05,117.346z"/>
		<path id="ZW-MS" title="Matabeleland South" class="land" d="M334.001,337.926L334.926,337.89L335.608,338.257L336.853,339.639L337.973,341.951L339.372,346.008L341.177,348.932L344.352,351.576L344.874,352.267L346.276,356.002L349.816,358.606L350.62,359.582L350.941,360.597L350.939,361.733L349.848,364.408L349.722,367.086L349.962,367.938L349.475,371.144L349.794,372.647L350.438,373.339L351.567,373.545L353.909,370.79L354.877,370.548L356.167,370.714L362.05,373.933L364.388,377.47L365.113,378.12L365.759,378.243L366.847,377.96L369.751,376.177L371.969,375.611L373.261,381.501L374.592,381.624L379.029,379.922L381.207,379.435L382.135,379.923L381.895,383.132L382.381,384.352L387.182,384.474L387.99,384.92L388.233,385.488L388.477,386.667L388.318,389.105L384.329,395.895L381.466,402.238L381.549,404.681L381.025,405.86L380.26,409.481L378.807,412.697L377.596,416.483L376.87,419.538L376.426,423.896L375.415,425.812L374.85,427.93L373.96,429.52L373.393,429.967L371.572,430.74L370.235,431.962L369.668,432.084L366.712,433.997L367.685,435.547L367.279,436.159L364.849,436.808L364.525,437.338L364.443,439.54L365.415,441.663L366.468,442.521L367.359,442.727L368.939,442.524L371.613,441.467L372.505,441.304L372.789,441.549L372.263,444.119L369.872,451.955L368.656,460.979L368.047,463.227L366.586,464.696L362.403,467.715L359.926,469.183L358.951,470.407L355.66,472.609L354.481,473.998L354.521,474.488L355.048,474.98L359.476,476.011L365.284,476.225L369.387,475.043L374.911,474.802L376.861,474.967L376.861,474.967L377.146,476.152L378.936,480.081L379.872,481.104L380.726,481.473L382.109,483.028L384.265,484.419L384.834,485.074L385.323,486.057L385.612,488.922L385.898,489.454L388.745,490.313L389.071,490.805L389.158,493.957L390.055,495.021L391.52,495.677L391.888,496.7L392.015,499.036L392.178,499.404L393.434,500.317L394.262,503.583L394.874,504.36L398.704,505.996L400.868,508.616L403.036,512.263L405.078,514.188L407.119,515.537L407.816,517.136L408.673,517.34L409.406,517.092L411.891,517.004L413.443,518.272L414.508,519.582L416.592,521.096L419.119,521.252L419.612,522.154L418.971,524.905L419.911,525.519L426.396,526.319L427.58,526.397L428.68,526.106L429.904,526.758L431.414,526.957L434.275,528.301L436.239,529.442L436.978,530.261L437.754,530.586L441.062,531.229L441.512,531.555L441.678,532.047L441.083,535.089L443.129,536.106L444.485,537.784L444.894,537.782L445.5,536.917L445.988,536.668L446.806,536.909L449.553,539.155L450.655,539.025L452.32,537.907L452.973,537.862L453.465,538.23L453.549,538.6L452.374,539.962L452.217,540.866L452.423,541.153L453.527,541.435L454.39,542.251L454.683,543.278L454.694,545.046L455.19,545.824L457.977,547.328L458.763,548.763L458.976,549.872L460.079,550.152L460.868,551.874L463.621,554.079L463.668,554.777L462.614,555.937L462.826,557.005L464.428,558.022L466.394,558.545L466.163,560.479L468.628,561.986L470.44,563.743L470.698,565.307L472.015,566.203L472.983,569.613L473.558,569.815L475.596,568.935L476.74,568.967L477.036,569.995L476.683,571.769L477.793,572.377L478.099,574.558L478.645,576.161L479.181,576.528L481.312,577.006L481.563,577.498L480.549,578.578L480.551,578.824L480.963,579.068L482.477,579.14L482.852,579.754L483.156,581.73L485.044,582.209L485.293,582.619L485.136,583.321L483.959,584.403L484.583,585.387L487.017,587.264L489.115,588.317L490.312,589.215L490.862,591.065L491.932,592.432L489.637,593.185L488.117,592.943L488.117,592.943L482.453,590.651L482.09,590.75L481.649,591.567L480.659,591.605L480.189,591.247L479.857,590.517L477.999,590.538L476.625,589.286L474.12,588.847L472.63,589.602L471.583,589.053L468.695,588.451L465.395,589.261L460.03,590.018L458.086,590.714L454.287,590.16L453.395,590.621L452.262,592.078L451.644,592.439L450.972,592.383L449.594,591.246L448.552,590.949L447.395,590.876L446.233,591.119L445.041,592.021L442.005,591.231L441.109,591.207L439.731,590.646L438.588,590.895L435.653,592.374L432.178,593.193L430.761,593.753L428.989,593.51L426.897,593.729L425.244,593.466L424.039,594.07L423.058,594.236L421.674,593.393L420.327,591.037L418.901,589.93L418.544,589.155L418.11,588.802L414.936,588.819L411.933,589.158L409.895,590.166L409.322,590.168L407.239,587.977L405.102,586.865L403.62,585.317L402.983,585.121L401.395,585.215L400.905,585.003L400.428,584.276L400.232,582.782L398.742,582.77L397.243,582.296L396.238,582.354L395.456,581.346L392.54,579.275L389.092,579.691L387.032,577.951L384.616,577.93L382.453,577.079L381.85,576.363L379.804,574.915L375.029,575.096L373.662,574.527L371.352,574.681L370.529,573.672L370.019,573.449L367.632,574.394L366.655,575.874L366.128,576.197L365.429,576.082L364.292,575.092L363.615,574.868L362.135,575.67L360.185,575.925L359.76,576.437L359.812,577.513L359.239,578.202L357.805,578.101L354.943,577.133L353.895,577.135L350.174,577.856L347.318,579.472L345.874,579.983L345.243,579.877L344.54,578.473L343.002,576.572L339.071,573.138L337.188,568.917L335.84,567.661L333.751,568.528L330.63,569.365L328.183,569.025L327.312,569.145L323.965,567.808L322.04,566.574L319.632,564.234L318.11,561.962L317.558,560.44L316.881,556.133L317.314,552.664L318.346,549.853L320.583,546.707L321.469,546.055L320.236,544.534L319.322,544.074L316.482,543.228L315.039,542.082L313.753,541.756L311.997,542.168L310.245,542.127L307.265,541.161L304.196,540.549L301.539,538.767L297.839,538.482L295.788,536.692L289.43,534.065L287.979,533.718L287.516,533.402L286.223,531.426L285.763,531.192L284.26,531.175L283.147,530.663L281.771,530.508L280.627,529.41L279.941,529.163L278.813,529.258L278.145,530.347L277.717,530.503L277.033,530.296L275.488,531.657L273,532.484L272.378,532.36L270.296,530.987L269.614,530.887L269.036,530.227L265.207,529.507L262.003,527.003L261.033,527.605L258.784,526.641L254.492,526.162L253.465,526.211L252.959,526.491L250.206,526.608L249.133,527.214L248.086,527.324L246.111,526.534L243.57,526.129L240.562,525.14L237.871,525.272L236.973,524.741L235.532,524.566L233.871,524.72L233.352,524.529L232.676,523.973L230.76,520.412L230.829,519.958L231.293,519.657L230.97,519.173L229.895,519.636L229.337,519.57L228.521,518.635L228.817,517.902L230.056,516.535L229.359,515.813L228.393,515.797L228.017,515.561L227.91,514.617L228.905,514.161L229.217,513.495L228.63,512.277L227.471,511.137L227.998,510.171L227.804,509.691L227.022,508.869L225.856,506.641L224.339,505.139L224.469,502.96L224.037,501.328L223.275,500.537L223.012,499.773L220.061,496.916L219.028,494.511L215.796,490.624L215.648,489.008L213.831,488.608L212.123,486.917L210.284,486.347L209.873,485.495L208.787,484.682L208.119,483.345L206.658,482.294L205.758,479.835L205.032,478.623L205.159,477.965L206.223,477.058L206.412,476.357L205.407,473.801L206.73,472.581L206.298,471.648L207.237,469.865L206.809,469.077L205.576,468.083L205.317,467.556L205.458,466.57L206.423,464.991L205.372,462.048L206.031,460.72L207.322,459.313L208.044,455.159L208.843,454.482L208.491,453.252L209.075,451.199L208.396,448.476L208.855,447.217L208.292,445.942L207.662,445.222L206.726,442.914L206.831,439.643L206.634,437.44L206.949,436.922L207.534,436.621L208.083,435.648L207.826,435.185L208.704,432.246L208.616,431.288L208.049,429.963L206.446,428.245L204.85,427.391L202.551,428.455L201.65,428.378L199.83,426.795L198.948,426.676L197.955,426.928L196.446,427.785L195.467,427.833L187.429,425.884L185.259,426.432L184.436,426.964L183.58,427.027L180.002,426.896L178.791,426.621L178.079,425.986L177.586,425.896L175.03,427.311L172.34,428.318L171.455,428.055L171.35,427.159L171.648,424.437L172.419,421.069L172.534,410.479L172.026,408.942L171.145,403.907L169.525,402.557L169.372,401.134L168.304,398.834L167.907,396.52L167.083,396.109L166.814,394.975L166.251,394.396L165.607,392.801L164.481,391.603L163.6,391.295L162.423,391.544L158.465,391.717L156.765,391.31L156.091,390.41L154.836,387.447L152.31,385.889L150.004,385.771L149.035,386.157L147.071,385.688L144.913,385.669L143.616,384.962L142.188,384.766L140.047,383.607L138.341,383.781L137.046,383.114L135.764,383.14L135.123,382.643L134.456,382.858L133.919,382.503L131.575,382.322L131.057,381.844L131.448,380.941L130.774,379.733L130.278,379.336L128.932,379.249L127.292,378.537L123.919,378.923L122.836,376.872L122.168,374.687L122.168,374.687L125.268,373.641L127.281,371.405L128.379,370.857L130.891,370.092L132.06,369.992L133.323,369.202L135.264,368.75L138.509,367.429L140.809,367.226L141.377,366.951L143.269,367.065L145.693,366.62L148.299,367.476L150.161,366.898L152.219,366.608L154.714,366.812L155.928,366.467L157.298,366.407L158.718,365.741L160.131,365.561L165.955,366.829L169.978,367.297L170.623,367.227L173.425,365.646L174.838,365.424L178.738,365.968L180.836,365.796L183.394,367.415L186.023,369.644L187.064,370.187L189.516,370.708L191.813,370.699L192.085,371.474L193.246,372.221L193.16,372.666L193.556,373.199L194.634,374.026L195.541,375.662L196.297,379.692L196.771,380.512L200.002,383.438L200.555,384.502L201.958,385.131L204.024,387.92L207.51,390.037L210.539,393.368L212.568,396.036L215.34,397.291L216.375,398.769L217.298,399.268L221.083,400.329L222.175,400.302L222.716,398.681L224.443,395.732L226.25,389.086L227.21,389.828L229.436,393.269L230.597,394.258L232.218,393.665L233.802,392.707L236.425,392.816L238.043,392.509L239.698,392.566L241.845,391.817L243.293,392.36L244.736,393.432L246.787,394.509L247.388,394.963L248.146,396.109L248.65,398.392L249.725,400.313L251.491,401.592L252.328,402.902L256.613,407.622L257.379,407.833L257.987,407.675L259.376,410.782L259.608,412.209L260.766,414.133L262.488,411.014L263.426,409.923L263.791,409.763L266.619,410.154L267.592,409.593L269.19,406.676L270.415,405.058L273.083,404.795L273.083,404.795L276.53,406.89L277.547,403.515L279.76,403.923L281.918,403.872L282.643,404.8L282.643,404.8L287.291,410.509L291.805,407.403L291.065,406.346L293.375,403.475L294.185,403.018L296.631,396.652L303.289,390.695L299.604,387.977L306.259,387.489L314.087,379.008L311.123,368.151L318.644,370.916L320.932,368.82L322.927,367.472L322.237,366.703L322.157,366.297L322.968,364.879L323.622,362.245L323.678,357.541L323.519,357.012L322.071,356.357L320.948,355.136L319.943,354.44L319.542,353.953L319.545,353.385L321.362,351.934L323.298,350.849L324.106,350L325.281,347.776L325.69,345.549L325.652,344.86L324.731,343.519L322.485,341.483L322.369,340.065L322.854,339.541L324.625,339.063L328.726,339.93L330.451,341.314L331.618,341.481L332.261,341.321L332.948,340.636z"/>
		<path id="ZW-MV" title="Masvingo" class="land" d="M471.047,319.381L471.403,318.691L472.281,318.04L474.404,317.22L474.563,316.976L473.411,312.981L473.489,312.536L474.293,312.693L474.772,312.448L474.714,309.862L475.226,308.324L479.769,309.67L482.177,309.817L481.949,317.012L482.075,317.658L482.641,318.22L490.74,316.993L493.711,316.932L497.72,316.377L500.489,316.355L500.489,316.355L503.756,318.068L507.069,320.468L509.369,321.702L510.708,323.146L513.734,324.737L514.341,325.217L515.93,327.387L516.657,327.906L517.503,328.182L521.117,328.148L524.904,329.246L525.915,329.844L526.895,331.33L528.999,332.726L530.877,335.458L531.441,335.655L533.084,335.153L536.107,336.053L537.957,336.195L538.605,336.634L539.348,338.325L539.9,340.869L540.187,341.312L541.639,341.782L543.753,343.742L544.746,346.12L545.478,346.759L547.579,347.627L550.863,349.816L552.033,353.286L552.647,354.13L555.87,357.616L557.776,358.728L560.052,363.441L563.471,366.277L564.473,368.899L566.724,371.507L568.184,372.258L571.688,372.253L574.868,375.05L576.814,375.876L582.613,375.756L585.315,378.638L586.209,379.193L590.316,381.567L591.693,382.115L594.039,382.609L594.569,383.048L594.987,383.974L595.221,385.918L595.079,394.689L593.762,400.558L593.08,408.37L592.268,410.536L591.529,414.857L591.234,419.092L590.892,420.439L590.294,425.982L590.451,433.146L589.507,434.83L588.857,437.162L588.411,439.653L588.222,442.957L587.868,443.573L586.624,444.244L585.751,445.316L585.482,446.258L585.439,448.664L584.734,450.143L584.453,452.798L580.771,460.767L578.758,464.224L578.447,465.127L578.39,466.557L579.539,470.011L579.655,472.296L580.935,473.625L582.117,474.057L582.534,474.745L582.126,477.12L582.429,478.26L583.373,478.94L586.757,479.952L588.446,481.479L590.158,486.685L590.362,489.217L591.443,490.713L592.386,493.561L594.353,494.593L596.028,495.139L600.651,499.277L601.55,500.72L601.55,500.72L600.624,501.138L599.672,501.99L579.566,523.971L554.902,551.548L549.148,557.495L533.659,574.857L526.738,582.077L524.673,584.811L522.789,586.433L514.419,595.634L508.205,600L506.515,598.566L504.959,595.253L503.363,594.832L500.975,595.456L500.32,595.355L499.302,594.649L498.17,592.677L497.055,592.006L495.525,591.758L490.024,593.597L488.117,592.943L488.117,592.943L489.637,593.185L491.932,592.432L490.862,591.065L490.312,589.215L489.115,588.317L487.017,587.264L484.583,585.387L483.959,584.403L485.136,583.321L485.293,582.619L485.044,582.209L483.156,581.73L482.852,579.754L482.477,579.14L480.963,579.068L480.551,578.824L480.549,578.578L481.563,577.498L481.312,577.006L479.181,576.528L478.645,576.161L478.099,574.558L477.793,572.377L476.683,571.769L477.036,569.995L476.74,568.967L475.596,568.935L473.558,569.815L472.983,569.613L472.015,566.203L470.698,565.307L470.44,563.743L468.628,561.986L466.163,560.479L466.394,558.545L464.428,558.022L462.826,557.005L462.614,555.937L463.668,554.777L463.621,554.079L460.868,551.874L460.079,550.152L458.976,549.872L458.763,548.763L457.977,547.328L455.19,545.824L454.694,545.046L454.683,543.278L454.39,542.251L453.527,541.435L452.423,541.153L452.217,540.866L452.374,539.962L453.549,538.6L453.465,538.23L452.973,537.862L452.32,537.907L450.655,539.025L449.553,539.155L446.806,536.909L445.988,536.668L445.5,536.917L444.894,537.782L444.485,537.784L443.129,536.106L441.083,535.089L441.678,532.047L441.512,531.555L441.062,531.229L437.754,530.586L436.978,530.261L436.239,529.442L434.275,528.301L431.414,526.957L429.904,526.758L428.68,526.106L427.58,526.397L426.396,526.319L419.911,525.519L418.971,524.905L419.612,522.154L419.119,521.252L416.592,521.096L414.508,519.582L413.443,518.272L411.891,517.004L409.406,517.092L408.673,517.34L407.816,517.136L407.119,515.537L405.078,514.188L403.036,512.263L400.868,508.616L398.704,505.996L394.874,504.36L394.262,503.583L393.434,500.317L392.178,499.404L392.015,499.036L391.888,496.7L391.52,495.677L390.055,495.021L389.158,493.957L389.071,490.805L388.745,490.313L385.898,489.454L385.612,488.922L385.323,486.057L384.834,485.074L384.265,484.419L382.109,483.028L380.726,481.473L379.872,481.104L378.936,480.081L377.146,476.152L376.861,474.967L376.861,474.967L378.527,475.908L381.045,475.99L382.305,475.704L383.238,475.132L385.793,472.269L392.118,466.87L394.024,465.643L396.093,465.109L397.635,465.148L398.448,465.679L399.344,466.74L399.953,466.862L400.767,467.516L401.215,468.21L404.263,469.595L406.219,472.372L407.277,473.147L408.781,473.635L410.895,473.876L412.157,475.223L413.133,475.547L414.108,475.546L415.207,476.034L416.951,475.743L419.066,476.27L421.743,475.32L422.514,475.278L425.887,475.636L427.921,476.569L429.181,476.605L431.246,475.331L432.985,473.853L436.817,468.81L436.784,462.312L437.458,459.164L437.446,456.836L439.4,450.5L439.791,447.642L440.191,446.824L442.052,446L442.208,444.979L441.638,444.369L439.445,443.645L438.55,442.75L437.484,440.389L436.824,437.985L436.565,434.683L436.877,432.195L436.428,431.341L434.271,428.903L432.921,425.893L430.563,423.294L428.731,420.774L427.438,421.022L426.871,420.861L426.179,419.642L425.479,416.915L425.032,416.346L420.092,414.487L419.525,414.121L419.077,413.309L419.153,411.884L420.836,407.81L421.88,406.017L422.318,404.47L420.736,402.683L418.714,401.834L416.081,399.766L414.748,399.809L412.049,402.093L412.166,400.669L412.767,399.244L412.796,395.544L414.12,392.736L414.315,390.5L413.906,389.119L413.097,388.186L411.317,386.808L411.235,386.238L412,385.912L414.665,386.231L416.682,386.065L419.503,385.124L422.322,383.696L426.84,383.399L428.414,383.72L434.987,383.332L435.39,383.128L435.952,382.517L434.695,381.099L434.888,379.149L435.128,378.742L437.3,377.558L437.74,376.824L437.896,375.892L437.896,375.484L437.206,374.676L436.716,373.419L437.347,370.372L438.836,369.921L442.261,369.745L443.23,370.188L446.784,370.697L450.978,371.858L454.928,372.044L456.618,371.63L456.69,370.29L455.873,368.306L455.866,367.21L457.553,359.658L457.622,357.874L458.282,353.816L458.145,351.021L457.326,348.838L457.2,347.866L457.274,346.853L458.503,343.728L459.166,340.242L459.235,338.5L458.895,335.223L459.013,334.938L460.017,334.65L462.266,334.315L462.984,333.623L463.14,332.813L462.329,331.604L461.644,331.283L457.823,330.897L457.098,330.537L459.975,327.771L464.456,324.957L465.855,323.857L468.288,321.257z"/>
		<path id="ZW-MW" title="Mashonaland West" class="land" d="M390.534,1.156L393.292,1.239L396.003,2.91L398.759,2.354L401.333,2.195L403.744,1.586L406.82,1.544L409.251,0.954L412.722,0.998L414.214,1.877L415.792,3.512L416.251,4.453L416.884,4.563L420.529,1.476L420.905,1.562L421.641,2.586L422.194,2.88L422.194,2.88L422.391,5.371L422.158,6.918L422.396,7.988L422.791,8.503L424.842,9.85L425.633,11.157L425.715,12.705L425.088,13.697L422.255,15.961L421.038,17.708L417.259,19.895L416.197,21.602L414.583,22.515L413.442,23.747L410.134,26.488L403.988,30.579L402.411,31.253L402.136,31.651L402.138,33.835L402.929,35.503L404.744,36.814L405.219,37.45L405.615,39.277L405.461,41.94L406.49,44.522L407.994,47.265L408.311,47.503L409.969,47.661L410.206,48.258L410.129,49.172L409.656,49.888L408.04,51.718L406.028,53.468L405.992,56.052L406.312,58.24L406.155,59.871L403.315,63.492L402.647,67.113L403.163,67.75L403.953,68.108L404.823,68.147L405.732,67.868L406.561,66.754L407.311,66.236L409.957,65.758L411.3,64.762L414.46,64.323L415.051,63.805L415.563,62.691L416.581,58.155L417.527,57.08L418.79,56.602L419.896,56.919L421.141,56.848L422.584,57.473L423.732,58.625L424.132,61.05L424.569,61.766L426.784,63.116L427.97,63.193L430.103,62.712L432.038,62.669L432.868,62.867L434.175,63.699L435.015,66.881L434.86,68.155L433.367,71.182L433.133,72.098L432.832,77.354L430.316,82.734L429.808,84.289L429.851,85.483L431.12,86.676L431.878,88.787L432.989,89.821L435.722,90.492L437.109,91.564L439.765,92.555L441.864,93.028L441.792,94.942L442.351,96.176L442.553,97.53L441.648,99.008L441.532,100.044L443.99,100.795L444.748,102.109L444.515,103.306L444.081,103.746L443.369,103.828L442.298,103.472L441.784,103.632L441.351,104.192L441.235,105.348L441.767,109.775L442.688,112.685L442.261,114.601L442.303,115.439L443.859,118.149L444.021,119.106L443.834,122.021L444.241,124.614L444.799,125.252L448.327,125.282L449.205,126.316L449.84,126.434L452.171,124.63L453.556,123.987L454.834,125.979L456.379,125.574L457.253,126.01L459.873,126.6L459.53,129.476L458.981,130.916L458.834,133.113L458.403,134.353L457.854,135.593L454.585,140.88L453.255,145.201L451.682,148.524L450.073,152.81L449.958,153.811L451.05,158.046L450.974,158.687L450.146,160.33L450.085,164.333L449.657,166.335L449.592,169.538L453.408,169.444L457.107,169.671L459.252,169.262L463.348,169.445L464.42,169.241L464.075,171.685L463.212,173.771L463.02,174.933L463.181,175.373L469.041,177.629L472.114,179.498L473.071,179.853L475.069,181.245L475.78,180.48L476.015,179.798L477.045,179.032L478.595,178.864L479.272,179.06L479.872,179.498L480.313,180.216L480.365,181.979L480.973,183.539L480.973,183.539L480.42,184.263L480.313,186.227L478.096,188.001L477.152,189.77L476.557,190.054L474.646,190.184L474.489,190.465L474.575,191.347L474.067,193.113L475.228,193.909L475.631,194.829L475.12,195.794L474.052,196.962L474.055,197.444L475.496,198.52L476.853,199.034L478.1,201.032L478.023,201.474L477.43,201.999L474.328,203.018L474.328,203.018L472.728,201.903L470.612,201.191L467.983,201.203L467.108,201.569L466.399,202.976L466.654,205.583L466.379,206.306L463.803,208.846L463.848,209.69L465.269,214.139L465.192,214.822L464.836,215.346L463.327,216.437L462.578,218.087L461.797,220.82L462.443,222.425L462.25,223.59L461.021,224.922L457.682,227.267L457.445,227.871L457.337,229.961L458.232,233.213L461.248,237.06L463.458,239.261L464.868,241.547L464.714,242.512L463.084,243.848L462.888,244.372L462.873,248.837L462.21,251.658L462.356,256.286L461.926,257.779L460.26,260.242L458.151,262.225L457.878,263.475L457.204,264.605L456.089,265.538L453.196,270.788L452.348,269.301L452.147,269.221L451.393,270.15L451.032,270.272L450.591,270.113L449.666,269.149L449.146,269.031L449.498,275.479L449.065,277.053L446.75,278.634L445.475,279.929L445.048,282.794L442.964,282.479L442.405,282.884L440.614,285.554L440.614,285.554L437.287,285.081L435.842,284.318L434.395,283.193L429.459,281.149L428.012,279.5L426.768,278.938L425.08,277.249L423.799,277.413L422.64,277.858L421.598,277.821L420.513,276.613L419.63,276.01L417.507,275.611L417.186,275.37L416.176,272.307L414.492,271.584L412.25,271.306L410.606,270.461L405.843,270.668L405.163,270.508L404.44,269.541L403.839,269.542L403.078,269.018L400.998,269.786L400.357,269.584L399.315,268.617L395.311,268.217L393.15,268.458L391.79,269.225L389.309,268.942L388.106,268.136L387.025,267.894L386.064,266.845L384.504,267.168L383.262,266.683L381.78,264.547L380.42,263.78L380.139,263.014L379.62,263.094L378.579,263.899L377.579,264.02L376.258,261.641L375.738,261.197L372.337,261.354L370.816,261.191L369.617,261.552L368.936,261.471L367.656,260.865L365.658,258.203L365.138,257.959L363.457,258.36L362.337,258.357L361.138,257.59L360.46,255.171L360.46,254.487L361.423,251.791L361.027,247.523L361.188,246.879L362.508,245.433L362.589,243.743L363.312,240.123L362.553,239.156L361.834,238.832L360.557,237.583L357.841,236.732L354.849,234.313L352.255,233.219L350.101,231.605L348.863,231.119L346.708,230.831L345.672,229.742L344.121,226.602L342.006,225.952L340.971,224.983L338.937,224.092L338.5,223.648L337.785,221.758L336.117,219.019L335.444,216.967L334.091,215.476L332.944,211.776L332.829,210.531L332.194,209.283L332.197,208.44L332.998,206.958L332.923,205.393L333.324,204.792L333.286,203.748L335.01,200.303L337.13,197.421L337.335,194.935L338.373,194.176L339.293,192.615L339.377,190.73L339.657,190.13L342.093,187.291L342.015,186.609L340.425,185.361L340.525,183.813L343.142,181.201L343.107,178.916L343.627,177.676L343.273,175.872L343.634,174.431L343.239,173.387L341.81,171.981L341.812,171.059L341.971,170.66L343.645,169.383L345.88,165.786L347.712,164.35L348.75,161.871L348.234,161.31L346.605,161.064L344.897,160.218L343.511,158.252L342.677,157.809L341.568,156.085L340.338,155.12L337.957,153.912L337.641,153.47L337.333,149.628L336.897,148.947L335.548,148.421L335.313,147.061L334.718,146.778L331.778,147.006L330.031,146.8L328.682,146.474L327.731,145.709L326.699,145.625L324.161,144.494L321.66,144.163L321.225,143.881L320.594,142.479L319.286,142.033L318.533,141.509L316.431,140.979L315.48,140.254L313.538,139.365L312.077,137.719L311.057,134.835L309.717,132.47L309.165,131.788L308.013,131.901L307.417,132.098L305.983,133.289L305.069,133.483L299.672,133.452L297.805,133.68L295.974,134.708L294.306,135.137L290.794,138.512L288.134,138.614L287.494,139.369L284.847,143.989L284.516,146.346L284.073,147.264L282.401,147.771L279.638,151.551L278.042,152.62L276.549,156.29L275.912,156.366L274.766,155.356L271.479,153.57L270.612,152.644L269.978,152.358L265.043,153.559L262.576,153.938L260.749,153.883L259.668,154.915L257.954,155.581L257.319,155.614L255.377,154.877L252.632,155.293L252.632,155.293L251.687,154.124L251.026,152.237L250.435,151.793L249.925,150.908L247.706,150.247L246.769,148.239L245.385,147.426L245.151,146.984L245.093,144.343L244.23,143.096L244.359,141.938L243.5,140.05L243.914,138.255L243.485,137.292L242.462,136.124L242.374,132.565L241.623,132.159L239.122,132.295L238.474,130.799L237.917,130.157L238.079,129.678L237.762,128.956L237.283,128.834L234.838,129.946L234.038,130.023L233.759,129.783L233.841,129.263L234.481,129.265L235.367,127.868L235.728,127.669L235.49,127.148L235.731,126.749L235.374,126.228L235.336,125.667L236.177,125.551L235.581,124.708L235.122,122.509L233.668,120.938L233.089,119.175L233.34,117.78L234.069,115.951L233.687,114.391L233.75,111.677L233.442,110.836L232.597,110.062L232.597,110.062L242.692,105.328L253.898,96.064L285.087,83.332L292.911,81.872L293.923,80.496L295.098,79.965L296.664,78.403L298.469,77.492L299.938,75.376L299.897,72.151L300.192,71.366L301.555,69.712L301.918,68.586L301.899,67.333L302.393,66.581L301.668,65.032L301.925,63.054L301.553,62.608L300.49,62.342L300.111,61.677L300.708,59.113L302.99,56.338L303.207,55.655L303.086,54.982L301.596,54.373L301.219,53.112L301.268,52.156L301.728,50.929L301.775,47.986L303.575,44.493L303.246,43.49L302.453,42.918L302.248,42.07L302.434,41.032L303.196,39.975L301.986,38.761L302.166,38.16L303.326,37.151L305.441,33.824L305.781,32.747L307.672,29.223L308.602,28.749L309.623,28.573L312.745,28.662L313.88,28.442L316.34,28.781L317.227,28.35L317.927,27.484L318.672,25.765L320.479,23.432L331.423,15.723L332.921,13.991L334.062,13.376L335.471,13.43L337.328,12.922L340.606,10.939L342.661,10.407L344.266,9.168L345.369,8.732L348.507,8.914L350.263,7.275L351.387,6.917L356.936,6.598L358.056,6.022L360.662,3.197L362.102,2.793L363.353,2.849L366.121,4.503L367.709,4.553L374.957,2.868L379.97,0.55L381.727,0.139L383.768,0L388.473,0.284z"/>
	</g>
</svg>